<svg xmlns:xlink="http://www.w3.org/1999/xlink" xmlns="http://www.w3.org/2000/svg" aria-hidden="true" style="2ebb1802d6b82ef3" version="1.1">
<defs>
<symbol id="scale" viewBox="0 0 14 15"> 
<path d="M13.9385 5.4891L12.6106 2.83334H13.4167C13.5714 2.83334 13.7197 2.77188 13.8291 2.66248C13.9385 2.55309 14 2.40471 14 2.25C14 2.09529 13.9385 1.94692 13.8291 1.83753C13.7197 1.72813 13.5714 1.66667 13.4167 1.66667H8.64251C8.52363 1.32582 8.30165 1.03039 8.00734 0.82135C7.71304 0.612306 7.36099 0.5 7 0.5C6.63901 0.5 6.28696 0.612306 5.99266 0.82135C5.69835 1.03039 5.47637 1.32582 5.35749 1.66667H0.583333C0.428624 1.66667 0.280251 1.72813 0.170854 1.83753C0.0614582 1.94692 0 2.09529 0 2.25C0 2.40471 0.0614582 2.55309 0.170854 2.66248C0.280251 2.77188 0.428624 2.83334 0.583333 2.83334H1.38941L0.0615242 5.4891C0.0338833 5.57423 0.0133056 5.66149 0 5.75L0 6.91667C0 7.53551 0.245833 8.129 0.683417 8.56659C1.121 9.00417 1.71449 9.25 2.33333 9.25C2.95217 9.25 3.54566 9.00417 3.98325 8.56659C4.42083 8.129 4.66667 7.53551 4.66667 6.91667V5.75C4.65336 5.66149 4.63278 5.57423 4.60514 5.4891L3.27726 2.83334H5.35753C5.44451 3.07735 5.58467 3.29897 5.76785 3.48215C5.95103 3.66533 6.17265 3.80549 6.41667 3.89248V9.83334H5.25C4.94069 9.83369 4.64415 9.95672 4.42543 10.1754C4.20672 10.3942 4.08369 10.6907 4.08333 11V11.5833H3.5C3.03603 11.5838 2.5912 11.7684 2.26312 12.0965C1.93504 12.4245 1.75051 12.8694 1.75 13.3333V13.9167C1.74998 13.9933 1.76505 14.0691 1.79436 14.1399C1.82367 14.2107 1.86664 14.275 1.92081 14.3292C1.97498 14.3834 2.0393 14.4263 2.11008 14.4556C2.18086 14.4849 2.25672 14.5 2.33333 14.5H11.6667C11.7433 14.5 11.8191 14.4849 11.8899 14.4556C11.9607 14.4263 12.025 14.3834 12.0792 14.3292C12.1334 14.275 12.1763 14.2107 12.2056 14.1399C12.2349 14.0691 12.25 13.9933 12.25 13.9167V13.3333C12.2495 12.8694 12.065 12.4245 11.7369 12.0965C11.4088 11.7684 10.964 11.5838 10.5 11.5833H9.91667V11C9.91631 10.6907 9.79328 10.3942 9.57457 10.1754C9.35585 9.95672 9.05931 9.83369 8.75 9.83334H7.58333V3.89251C7.82735 3.80552 8.04898 3.66535 8.23216 3.48217C8.41535 3.29898 8.55551 3.07736 8.64251 2.83334H10.7227L9.39486 5.4891C9.36722 5.57423 9.34664 5.66149 9.33333 5.75V6.91667C9.33333 7.53551 9.57917 8.129 10.0168 8.56659C10.4543 9.00417 11.0478 9.25 11.6667 9.25C12.2855 9.25 12.879 9.00417 13.3166 8.56659C13.7542 8.129 14 7.53551 14 6.91667V5.75C13.9867 5.66149 13.9661 5.57423 13.9385 5.4891ZM2.33333 3.55453L3.13941 5.16667H1.52726L2.33333 3.55453ZM3.5 6.91667C3.5 7.22609 3.37708 7.52284 3.15829 7.74163C2.9395 7.96042 2.64275 8.08334 2.33333 8.08334C2.02391 8.08334 1.72717 7.96042 1.50838 7.74163C1.28958 7.52284 1.16667 7.22609 1.16667 6.91667V6.33334H3.5V6.91667ZM11.0833 13.3333H2.91667C2.91682 13.1787 2.97833 13.0304 3.08769 12.921C3.19705 12.8117 3.34534 12.7502 3.5 12.75H10.5C10.6547 12.7502 10.8029 12.8117 10.9123 12.921C11.0217 13.0304 11.0832 13.1787 11.0833 13.3333ZM8.75 11.5833H5.25V11H8.75V11.5833ZM7 2.83334C6.88463 2.83334 6.77185 2.79913 6.67592 2.73503C6.57999 2.67093 6.50522 2.57983 6.46107 2.47324C6.41692 2.36665 6.40537 2.24936 6.42788 2.1362C6.45038 2.02305 6.50594 1.91911 6.58752 1.83753C6.6691 1.75594 6.77304 1.70039 6.8862 1.67788C6.99935 1.65537 7.11664 1.66692 7.22323 1.71107C7.32982 1.75523 7.42093 1.82999 7.48502 1.92592C7.54912 2.02185 7.58333 2.13463 7.58333 2.25C7.58318 2.40467 7.52167 2.55295 7.41231 2.66231C7.30295 2.77168 7.15466 2.83318 7 2.83334ZM12.4727 5.16667H10.8606L11.6667 3.55453L12.4727 5.16667ZM12.8333 6.91667C12.8333 7.22609 12.7104 7.52284 12.4916 7.74163C12.2728 7.96042 11.9761 8.08334 11.6667 8.08334C11.3572 8.08334 11.0605 7.96042 10.8417 7.74163C10.6229 7.52284 10.5 7.22609 10.5 6.91667V6.33334H12.8333V6.91667Z"/>
</symbol>

<symbol id="burger-menu" viewBox="0 0 24 24">
  <path d="M4 18H20C20.55 18 21 17.55 21 17C21 16.45 20.55 16 20 16H4C3.45 16 3 16.45 3 17C3 17.55 3.45 18 4 18ZM4 13H20C20.55 13 21 12.55 21 12C21 11.45 20.55 11 20 11H4C3.45 11 3 11.45 3 12C3 12.55 3.45 13 4 13ZM3 7C3 7.55 3.45 8 4 8H20C20.55 8 21 7.55 21 7C21 6.45 20.55 6 20 6H4C3.45 6 3 6.45 3 7Z"/>
</symbol>

<symbol id="close-cross" viewBox="0 0 24 24" fill="none">
<path d="M19 6.41L17.59 5L12 10.59L6.41 5L5 6.41L10.59 12L5 17.59L6.41 19L12 13.41L17.59 19L19 17.59L13.41 12L19 6.41Z" fill="#FCFEFF"/>
</symbol>

<symbol id="facebook-icon" viewBox="0 0 20 21" fill="none">
  <path fill-rule="evenodd" clip-rule="evenodd" d="M0 10.4551C0 4.93223 4.47715 0.455078 10 0.455078C15.5228 0.455078 20 4.93223 20 10.4551C20 15.9779 15.5228 20.4551 10 20.4551C4.47715 20.4551 0 15.9779 0 10.4551ZM11.0423 16.3349V10.8943H12.5441L12.7432 9.0195H11.0423L11.0449 8.08112C11.0449 7.59214 11.0913 7.33013 11.7937 7.33013H12.7325V5.45508H11.2305C9.42631 5.45508 8.79128 6.36458 8.79128 7.89406V9.01971H7.66667V10.8945H8.79128V16.3349H11.0423Z" fill="white"/>  <path fill-rule="evenodd" clip-rule="evenodd" d="M0 10.4551C0 4.93223 4.47715 0.455078 10 0.455078C15.5228 0.455078 20 4.93223 20 10.4551C20 15.9779 15.5228 20.4551 10 20.4551C4.47715 20.4551 0 15.9779 0 10.4551ZM11.0423 16.3349V10.8943H12.5441L12.7432 9.0195H11.0423L11.0449 8.08112C11.0449 7.59214 11.0913 7.33013 11.7937 7.33013H12.7325V5.45508H11.2305C9.42631 5.45508 8.79128 6.36458 8.79128 7.89406V9.01971H7.66667V10.8945H8.79128V16.3349H11.0423Z" fill="white"/>
</symbol>

<symbol id="instagram-icon" viewBox="0 0 20 21" fill="none">
  <path d="M10.0007 0.455078C7.28487 0.455078 6.94403 0.466953 5.87735 0.515495C4.81276 0.564245 4.08608 0.732787 3.45024 0.980078C2.79253 1.23549 2.23461 1.57716 1.67877 2.1332C1.12251 2.68904 0.780841 3.24695 0.524589 3.90445C0.276669 4.54049 0.107918 5.26737 0.0600007 6.33154C0.0125002 7.3982 0 7.73924 0 10.4551C0 13.1709 0.0120836 13.5107 0.0604175 14.5774C0.109376 15.642 0.27792 16.3686 0.525006 17.0045C0.780633 17.6622 1.1223 18.2201 1.67835 18.7759C2.23398 19.3322 2.7919 19.6747 3.4492 19.9301C4.08546 20.1774 4.81234 20.3459 5.87673 20.3947C6.94341 20.4432 7.28403 20.4551 9.99969 20.4551C12.7158 20.4551 13.0556 20.4432 14.1222 20.3947C15.1868 20.3459 15.9143 20.1774 16.5506 19.9301C17.2081 19.6747 17.7652 19.3322 18.3208 18.7759C18.8771 18.2201 19.2187 17.6622 19.475 17.0047C19.7208 16.3686 19.8896 15.6417 19.9396 14.5776C19.9875 13.5109 20 13.1709 20 10.4551C20 7.73924 19.9875 7.39841 19.9396 6.33174C19.8896 5.26716 19.7208 4.54049 19.475 3.90466C19.2187 3.24695 18.8771 2.68904 18.3208 2.1332C17.7646 1.57695 17.2083 1.23529 16.55 0.980078C15.9125 0.732787 15.1854 0.564245 14.1208 0.515495C13.0541 0.466953 12.7145 0.455078 9.99781 0.455078H10.0007ZM9.10364 2.25716C9.36989 2.25674 9.66698 2.25716 10.0007 2.25716C12.6708 2.25716 12.9872 2.26674 14.0416 2.31466C15.0166 2.35924 15.5458 2.52216 15.8983 2.65904C16.365 2.84029 16.6977 3.05695 17.0475 3.40695C17.3975 3.75695 17.6141 4.09029 17.7958 4.55695C17.9327 4.90904 18.0958 5.4382 18.1402 6.4132C18.1881 7.46737 18.1985 7.78404 18.1985 10.4528C18.1985 13.1215 18.1881 13.4382 18.1402 14.4924C18.0956 15.4674 17.9327 15.9965 17.7958 16.3486C17.6146 16.8153 17.3975 17.1476 17.0475 17.4974C16.6975 17.8474 16.3652 18.064 15.8983 18.2453C15.5462 18.3828 15.0166 18.5453 14.0416 18.5899C12.9874 18.6378 12.6708 18.6482 10.0007 18.6482C7.33049 18.6482 7.01403 18.6378 5.95985 18.5899C4.98484 18.5449 4.45567 18.382 4.10296 18.2451C3.63629 18.0638 3.30295 17.8472 2.95295 17.4972C2.60294 17.1472 2.38628 16.8147 2.20461 16.3478C2.06773 15.9957 1.9046 15.4665 1.86023 14.4915C1.81231 13.4374 1.80273 13.1207 1.80273 10.4503C1.80273 7.77987 1.81231 7.46487 1.86023 6.4107C1.90481 5.4357 2.06773 4.90654 2.20461 4.55404C2.38586 4.08737 2.60294 3.75404 2.95295 3.40404C3.30295 3.05404 3.63629 2.83737 4.10296 2.6557C4.45546 2.5182 4.98484 2.3557 5.95985 2.31091C6.88236 2.26924 7.23987 2.25674 9.10364 2.25466V2.25716Z" fill="white"/>
  <path d="M15.3172 3.89301C15.0798 3.89301 14.8478 3.9634 14.6505 4.09528C14.4531 4.22716 14.2993 4.41459 14.2085 4.63389C14.1177 4.85319 14.0939 5.09449 14.1403 5.32728C14.1866 5.56006 14.3009 5.77388 14.4688 5.94169C14.6367 6.1095 14.8505 6.22375 15.0833 6.27001C15.3161 6.31626 15.5574 6.29244 15.7767 6.20155C15.996 6.11066 16.1834 5.95679 16.3152 5.7594C16.447 5.562 16.5173 5.32995 16.5172 5.0926C16.5172 4.4301 15.9797 3.89301 15.3172 3.89301Z" fill="white"/>
  <path fill-rule="evenodd" clip-rule="evenodd" d="M9.97922 5.2951C7.14315 5.2951 4.84375 7.59447 4.84375 10.4305C4.84375 13.2666 7.14315 15.5649 9.97922 15.5649C12.8153 15.5649 15.1141 13.2666 15.1141 10.4305C15.1141 7.59447 12.8153 5.2951 9.97922 5.2951ZM10 13.7363C11.8122 13.7363 13.2813 12.2673 13.2813 10.4551C13.2813 8.64291 11.8122 7.17385 10 7.17385C8.18782 7.17385 6.71875 8.64291 6.71875 10.4551C6.71875 12.2673 8.18782 13.7363 10 13.7363Z" fill="white"/>
</symbol>

<symbol id="tik-tok-icon" viewBox="0 0 20 21" fill="none">
  <path fill-rule="evenodd" clip-rule="evenodd" d="M6.02942 16.0064C6.42546 16.2153 6.86654 16.3244 7.31429 16.3242C8.80575 16.3242 10.0233 15.1379 10.0782 13.6592L10.0837 0.455078H13.3782C13.3785 0.73553 13.4045 1.01536 13.456 1.29104H11.0439V1.2915H14.3387C14.3383 2.39659 14.7388 3.46431 15.466 4.2964L15.467 4.29747C16.2088 4.78208 17.0759 5.03974 17.962 5.03891V5.77266C18.2721 5.83908 18.5928 5.87445 18.9226 5.87445V9.16974C17.2778 9.17166 15.6741 8.65595 14.3387 7.6957V14.3912C14.3387 17.7346 11.6183 20.4551 8.27442 20.4551C7.44171 20.4553 6.61792 20.2835 5.85467 19.9505C5.09196 19.6177 4.40621 19.1311 3.84022 18.5211L3.83898 18.5202C2.27515 17.4222 1.25 15.6065 1.25 13.5552C1.25 10.2114 3.97044 7.49049 7.31429 7.49049C7.58775 7.49179 7.86075 7.5117 8.1315 7.55004V8.33012C8.15054 8.32974 8.16946 8.32908 8.18846 8.32845C8.21696 8.32745 8.24554 8.32645 8.27442 8.32645C8.54783 8.32774 8.82087 8.34766 9.09158 8.38599V11.7496C8.83325 11.6685 8.55979 11.6213 8.27442 11.6213C7.54008 11.6222 6.83608 11.9143 6.31687 12.4336C5.79767 12.9529 5.50567 13.6569 5.50496 14.3912C5.505 14.9712 5.68829 15.5364 6.02871 16.006L6.02942 16.0064ZM2.61012 16.555C2.89156 17.2882 3.31158 17.9535 3.83764 18.5188C3.30087 17.9444 2.8864 17.2763 2.61012 16.555Z" fill="white"/>
</symbol>

<symbol id="telegram-icon" viewBox="0 0 20 21" fill="none">
  <path fill-rule="evenodd" clip-rule="evenodd" d="M20 10.4551C20 15.9779 15.5228 20.4551 10 20.4551C4.47717 20.4551 0 15.9779 0 10.4551C0 4.93224 4.47717 0.455078 10 0.455078C15.5228 0.455078 20 4.93224 20 10.4551ZM6.69646 9.53904C5.69471 9.97641 4.66546 10.4258 3.72427 10.9442C3.23282 11.3041 3.88599 11.5586 4.49879 11.7974C4.59621 11.8353 4.69258 11.8729 4.78321 11.9104C4.85862 11.9336 4.93529 11.958 5.013 11.9827C5.69454 12.1999 6.45446 12.442 7.11613 12.0778C8.20304 11.4534 9.22875 10.7316 10.2537 10.0103C10.5895 9.77395 10.9252 9.5377 11.263 9.30495C11.2788 9.29483 11.2966 9.28324 11.3162 9.27062C11.6039 9.08408 12.251 8.66462 12.0116 9.24262C11.4456 9.86162 10.8393 10.4095 10.2298 10.9605C9.81896 11.3318 9.40663 11.7045 9.00413 12.1011C8.65358 12.386 8.28954 12.9587 8.68208 13.3576C9.58621 13.9905 10.5045 14.6081 11.4222 15.2254C11.7208 15.4262 12.0194 15.627 12.3174 15.8284C12.8225 16.2316 13.6119 15.9054 13.7229 15.2753C13.7723 14.9854 13.8219 14.6956 13.8715 14.4057C14.1455 12.8037 14.4195 11.2012 14.6617 9.59404C14.6946 9.34191 14.7319 9.08983 14.7692 8.83762C14.8597 8.22633 14.9503 7.61429 14.9785 6.9997C14.9056 6.38637 14.162 6.52124 13.7481 6.65916C11.621 7.46858 9.51504 8.33799 7.41746 9.22274C7.17983 9.32799 6.93896 9.43316 6.69646 9.53904Z" fill="white"/>
</symbol>

<symbol id="icon-arrow-left" viewBox="0 0 32 32">
<path fill="none" stroke="#ee8e18" style="d90832179f4d0881" stroke-linejoin="miter" stroke-linecap="butt" stroke-miterlimit="4" stroke-width="1" d="M31.5 16c0 8.56-6.94 15.5-15.5 15.5s-15.5-6.94-15.5-15.5c0-8.56 6.94-15.5 15.5-15.5s15.5 6.94 15.5 15.5z"/>
<path fill="#ee8e18" style="7f51cb1e0040b690" d="M21.2 16.353c0 0.148-0.059 0.291-0.164 0.396s-0.247 0.164-0.396 0.164h-8.729l1.844 1.844c0.053 0.052 0.096 0.113 0.126 0.182s0.045 0.142 0.045 0.216c0.001 0.074-0.014 0.148-0.042 0.217s-0.070 0.131-0.122 0.184-0.115 0.094-0.184 0.122c-0.069 0.028-0.143 0.042-0.217 0.042s-0.148-0.016-0.216-0.045c-0.068-0.029-0.13-0.072-0.182-0.125l-2.8-2.8c-0.105-0.105-0.164-0.248-0.164-0.396s0.059-0.291 0.164-0.396l2.8-2.8c0.106-0.102 0.247-0.159 0.394-0.157s0.287 0.060 0.391 0.164c0.104 0.104 0.163 0.244 0.164 0.391s-0.055 0.288-0.157 0.394l-1.844 1.844h8.729c0.148 0 0.291 0.059 0.396 0.164s0.164 0.247 0.164 0.396z"/>
</symbol>

<symbol id="icon-arrow-right" viewBox="0 0 32 32">
<path fill="none" stroke="#ee8e18" style="d90832179f4d0881" stroke-linejoin="miter" stroke-linecap="butt" stroke-miterlimit="4" stroke-width="1" d="M31.5 16c0 8.56-6.94 15.5-15.5 15.5s-15.5-6.94-15.5-15.5c0-8.56 6.94-15.5 15.5-15.5s15.5 6.94 15.5 15.5z"/>
<path fill="#ee8e18" style="7f51cb1e0040b690" d="M10 16.353c0 0.148 0.059 0.291 0.164 0.396s0.248 0.164 0.396 0.164h8.729l-1.844 1.844c-0.053 0.052-0.096 0.113-0.126 0.182s-0.045 0.142-0.045 0.216c-0.001 0.074 0.014 0.148 0.042 0.217s0.070 0.131 0.122 0.184 0.115 0.094 0.184 0.122c0.069 0.028 0.142 0.042 0.217 0.042s0.148-0.016 0.216-0.045c0.068-0.029 0.13-0.072 0.182-0.125l2.8-2.8c0.105-0.105 0.164-0.248 0.164-0.396s-0.059-0.291-0.164-0.396l-2.8-2.8c-0.106-0.102-0.247-0.159-0.394-0.157s-0.287 0.060-0.391 0.164c-0.104 0.104-0.163 0.244-0.164 0.391s0.055 0.288 0.157 0.394l1.844 1.844h-8.729c-0.149 0-0.291 0.059-0.396 0.164s-0.164 0.247-0.164 0.396z"/>
</symbol>

<symbol id="quotes" viewBox="0 0 5 7" fill="none">
<path d="M0.707071 6.36364C1.03704 6.04938 1.34343 5.67228 1.62626 5.23232C1.90909 4.79237 2.08193 4.35241 2.14478 3.91246C1.53199 3.91246 1.02132 3.74747 0.612795 3.41751C0.204265 3.07183 0 2.6083 0 2.02694C0 1.42985 0.188552 0.942761 0.565657 0.565656C0.942761 0.188552 1.42985 0 2.02694 0C2.62402 0 3.10326 0.196408 3.46465 0.589225C3.84175 0.982043 4.0303 1.47699 4.0303 2.07407C4.0303 3.03255 3.78676 3.96745 3.29966 4.87879C2.81257 5.79012 2.17621 6.49719 1.39057 7L0.707071 6.36364Z" fill="black"/>
</symbol>

<symbol id="star" width="20" height="20" viewBox="0 0 21 20" fill="none">
<path d="M9.97597 3.84498C9.94327 3.74474 9.87972 3.65739 9.7944 3.59543C9.70907 3.53347 9.60633 3.50006 9.50087 3.49998H6.5253L5.47509 0.340001C5.44131 0.240839 5.37733 0.154734 5.29213 0.0937597C5.20693 0.0327856 5.10478 0 5 0C4.89522 0 4.79307 0.0327856 4.70787 0.0937597C4.62267 0.154734 4.55869 0.240839 4.52491 0.340001L3.4747 3.49998H0.499127C0.393668 3.50006 0.290933 3.53347 0.205606 3.59543C0.120278 3.65739 0.056727 3.74474 0.0240348 3.84498C-0.00809211 3.94544 -0.00800945 4.05342 0.0242711 4.15383C0.0565516 4.25424 0.119416 4.34205 0.20407 4.40498L2.58953 6.15497L1.52433 9.33995C1.49061 9.44105 1.48988 9.55024 1.52224 9.65179C1.55459 9.75333 1.61837 9.84198 1.70436 9.90495C1.79065 9.96595 1.89374 9.9987 1.99942 9.9987C2.1051 9.9987 2.20818 9.96595 2.29448 9.90495L5 7.91996L7.70553 9.90495C7.79079 9.96812 7.89447 10.0015 8.00058 9.99995C8.10658 10.0007 8.21002 9.96743 8.29564 9.90495C8.38163 9.84198 8.44541 9.75333 8.47776 9.65179C8.51012 9.55024 8.50939 9.44105 8.47567 9.33995L8.31064 8.85495L7.41047 6.15497L9.79593 4.40498C9.88058 4.34205 9.94345 4.25424 9.97573 4.15383C10.008 4.05342 10.0081 3.94544 9.97597 3.84498Z" fill="#E3AD5C"/>
<path d="M8.29564 9.90496C8.21002 9.96745 8.10658 10.0008 8.00058 9.99996C7.89447 10.0015 7.79079 9.96814 7.70552 9.90496L5 7.91998L2.29448 9.90496C2.20818 9.96596 2.1051 9.99872 1.99942 9.99872C1.89374 9.99872 1.79065 9.96596 1.70436 9.90496C1.61837 9.84199 1.55459 9.75335 1.52224 9.6518C1.48988 9.55026 1.49061 9.44107 1.52433 9.33997L2.58953 6.15499L0.20407 4.405C0.119416 4.34207 0.0565516 4.25426 0.0242711 4.15385C-0.00800945 4.05344 -0.00809211 3.94546 0.0240348 3.845C0.056727 3.74475 0.120278 3.65741 0.205606 3.59545C0.290933 3.53348 0.393668 3.50008 0.499127 3.5H1.93441C3.32301 6.01301 5.59517 7.92124 8.31064 8.85497L8.47567 9.33997C8.50939 9.44107 8.51012 9.55026 8.47776 9.6518C8.44541 9.75335 8.38163 9.84199 8.29564 9.90496Z" fill="#EE8E18"/>
</symbol>

<symbol id="star-1" fill="none">
<path d="M20.9324 7.69001C20.8671 7.48952 20.74 7.31483 20.5694 7.1909C20.3987 7.06698 20.1933 7.00016 19.9824 7.00001H14.0324L11.9324 0.680006C11.8649 0.48168 11.7369 0.309469 11.5666 0.187521C11.3962 0.0655716 11.192 0 10.9824 0C10.7729 0 10.5687 0.0655716 10.3983 0.187521C10.2279 0.309469 10.1 0.48168 10.0324 0.680006L7.93244 7.00001H1.98244C1.77156 7.00016 1.56613 7.06698 1.39551 7.1909C1.22489 7.31483 1.09781 7.48952 1.03244 7.69001C0.968194 7.89092 0.968359 8.10689 1.03291 8.30771C1.09746 8.50853 1.22316 8.68415 1.39244 8.81001L6.16244 12.31L4.03244 18.68C3.96502 18.8822 3.96356 19.1006 4.02826 19.3037C4.09296 19.5068 4.22048 19.6841 4.39244 19.81C4.56499 19.932 4.77111 19.9975 4.98244 19.9975C5.19376 19.9975 5.39988 19.932 5.57244 19.81L10.9824 15.84L16.3924 19.81C16.5629 19.9364 16.7702 20.0031 16.9824 20C17.1944 20.0016 17.4012 19.935 17.5724 19.81C17.7444 19.6841 17.8719 19.5068 17.9366 19.3037C18.0013 19.1006 17.9998 18.8822 17.9324 18.68L17.6024 17.71L15.8024 12.31L20.5724 8.81001C20.7417 8.68415 20.8674 8.50853 20.932 8.30771C20.9965 8.10689 20.9967 7.89092 20.9324 7.69001Z" fill="#E3AD5C"/>
<path d="M17.5724 19.81C17.4012 19.935 17.1944 20.0016 16.9824 20C16.7702 20.0031 16.5629 19.9363 16.3924 19.81L10.9824 15.84L5.57244 19.81C5.39988 19.932 5.19376 19.9975 4.98244 19.9975C4.77111 19.9975 4.56499 19.932 4.39244 19.81C4.22048 19.6841 4.09296 19.5068 4.02826 19.3037C3.96356 19.1006 3.96502 18.8822 4.03244 18.68L6.16244 12.31L1.39244 8.81C1.22316 8.68414 1.09746 8.50852 1.03291 8.30771C0.968359 8.10689 0.968194 7.89092 1.03244 7.69C1.09781 7.48951 1.22489 7.31482 1.39551 7.1909C1.56613 7.06697 1.77156 7.00016 1.98244 7H4.85244C7.62911 12.0261 12.1725 15.8425 17.6024 17.71L17.9324 18.68C17.9998 18.8822 18.0013 19.1006 17.9366 19.3037C17.8719 19.5068 17.7444 19.6841 17.5724 19.81Z" fill="#EE8E18"/>
</symbol>

<symbol id="phone" width="17" height="16" viewBox="0 0 17 16">
<path d="M15.8942 10.424L12.6942 9.624C12.5341 9.58419 12.3656 9.59475 12.2117 9.65424C12.0578 9.71373 11.9261 9.81925 11.8344 9.9564L9.7864 13.0284C7.03376 11.6901 4.81009 9.4664 3.47176 6.71376L6.54376 4.66576C6.68108 4.5742 6.78672 4.44242 6.8462 4.28847C6.90568 4.13452 6.91609 3.96594 6.876 3.80584L6.076 0.60584C6.03271 0.432798 5.93283 0.279188 5.79223 0.169419C5.65163 0.0596496 5.47837 1.8086e-05 5.3 0H1.3C1.08783 0 0.884344 0.0842854 0.734315 0.234315C0.584285 0.384344 0.5 0.587827 0.5 0.8C0.504869 4.8298 2.10786 8.69315 4.95736 11.5426C7.80685 14.3921 11.6702 15.9951 15.7 16C15.9122 16 16.1157 15.9157 16.2657 15.7657C16.4157 15.6157 16.5 15.4122 16.5 15.2V11.2C16.5 11.0216 16.4404 10.8484 16.3306 10.7078C16.2208 10.5672 16.0672 10.4673 15.8942 10.424ZM5.18712 3.64728L2.84704 5.20728C2.43085 4.0474 2.19266 2.83119 2.14056 1.6H4.67536L5.18712 3.64728ZM12.8527 11.3129L14.9 11.8249V14.3597C13.6686 14.3103 12.4521 14.072 11.293 13.6532L12.8527 11.3129Z"/>
</symbol>

<symbol id="icon-messenger" viewBox="0 0 34 32">
<path fill="#000" style="c78e1d57e9f3a622" d="M16.532 0c-9.011 0-15.999 6.603-15.999 15.519 0 4.664 1.912 8.695 5.024 11.479 0.26 0.232 0.42 0.56 0.428 0.912l0.088 2.848c0.028 0.908 0.964 1.5 1.796 1.132l3.176-1.4c0.268-0.12 0.572-0.14 0.856-0.064 1.46 0.4 3.012 0.616 4.632 0.616 9.011 0 15.999-6.604 15.999-15.519s-6.987-15.523-15.999-15.523z"/>
<path fill="#fffdfa" style="d91e3a2f7d184809" d="M6.925 20.057l4.7-7.455c0.748-1.188 2.348-1.48 3.472-0.64l3.74 2.804c0.344 0.256 0.816 0.256 1.156-0.004l5.048-3.832c0.672-0.512 1.552 0.296 1.104 1.012l-4.704 7.451c-0.748 1.188-2.348 1.48-3.472 0.64l-3.74-2.804c-0.344-0.256-0.816-0.256-1.156 0.004l-5.048 3.832c-0.672 0.512-1.552-0.292-1.1-1.008z"/>
</symbol>

<symbol id="icon-telegram" viewBox="0 0 34 32">
<path fill="#000" style="c78e1d57e9f3a622" d="M17.067 32c8.837 0 16-7.164 16-16s-7.163-16-16-16c-8.836 0-16 7.163-16 16s7.163 16 16 16z"/>
<path fill="#fffdfa" style="d91e3a2f7d184809" d="M7.026 16.784c1.87-1.030 3.958-1.89 5.909-2.754 3.356-1.416 6.726-2.807 10.129-4.102 0.662-0.221 1.852-0.436 1.969 0.545-0.064 1.389-0.327 2.77-0.507 4.151-0.458 3.037-0.986 6.063-1.502 9.090-0.178 1.008-1.441 1.53-2.249 0.885-1.942-1.312-3.899-2.611-5.816-3.953-0.628-0.638-0.046-1.555 0.515-2.010 1.6-1.576 3.296-2.916 4.812-4.574 0.409-0.988-0.799-0.155-1.198 0.1-2.19 1.509-4.326 3.11-6.635 4.437-1.179 0.649-2.554 0.094-3.733-0.268-1.057-0.438-2.606-0.878-1.694-1.546h0z"/>
</symbol>

<symbol id="icon-viber" viewBox="0 0 32 32">
<path d="M16 0c8.836 0 16 7.163 16 16s-7.164 16-16 16c-8.837 0-16-7.164-16-16s7.163-16 16-16zM20.263 13.972c-0.078-0.632-0.272-1.129-0.617-1.568-0.448-0.566-1.021-0.905-1.868-1.106-0.552-0.134-0.776-0.119-0.976 0.064-0.186 0.171-0.222 0.514-0.080 0.736 0.1 0.161 0.215 0.219 0.536 0.282 0.427 0.079 0.723 0.181 0.992 0.334 0.57 0.329 0.836 0.845 0.864 1.679 0.013 0.392 0.047 0.512 0.184 0.651 0.254 0.254 0.705 0.205 0.896-0.099 0.070-0.115 0.081-0.164 0.088-0.43 0.005-0.165-0.002-0.41-0.019-0.541zM20.27 10.093c1.356 1.096 2.113 2.655 2.226 4.592 0.047 0.763-0.016 1.011-0.285 1.153-0.243 0.131-0.518 0.088-0.707-0.109-0.125-0.128-0.173-0.304-0.171-0.615 0.006-0.86-0.192-1.82-0.515-2.486-0.373-0.775-0.949-1.435-1.674-1.918-0.635-0.424-1.475-0.71-2.29-0.781-0.528-0.046-0.717-0.136-0.819-0.389-0.063-0.152-0.046-0.414 0.028-0.531 0.070-0.108 0.226-0.228 0.336-0.259 0.117-0.034 0.8 0.026 1.171 0.099 1.012 0.206 1.936 0.63 2.7 1.246zM24.968 22.144c-0.038-0.111-0.126-0.281-0.189-0.38-0.398-0.601-2.536-2.274-3.603-2.821-0.609-0.313-1.061-0.417-1.396-0.319-0.36 0.101-0.55 0.269-1.153 1.018-0.243 0.3-0.493 0.582-0.559 0.626-0.164 0.114-0.486 0.206-0.714 0.206-0.527-0.003-1.484-0.345-2.22-0.794-0.572-0.348-1.304-0.971-1.866-1.588-0.663-0.724-1.115-1.363-1.472-2.084-0.461-0.927-0.578-1.493-0.385-1.907 0.047-0.104 0.111-0.215 0.139-0.25 0.028-0.032 0.325-0.275 0.654-0.541 0.644-0.512 0.748-0.629 0.868-0.98 0.152-0.446 0.111-0.901-0.123-1.36-0.18-0.348-0.65-1.107-0.992-1.597-0.452-0.645-1.576-2.024-1.8-2.211-0.404-0.329-0.922-0.386-1.494-0.164-0.603 0.234-1.734 1.145-2.217 1.781-0.436 0.576-0.603 0.984-0.628 1.521-0.022 0.443 0.016 0.626 0.249 1.192 1.828 4.44 4.557 7.986 8.305 10.8 1.958 1.471 3.988 2.59 6.095 3.355 1.228 0.446 1.762 0.468 2.39 0.101 0.265-0.158 0.922-0.832 1.288-1.322 0.606-0.816 0.831-1.192 0.894-1.493 0.044-0.206 0.009-0.563-0.073-0.791zM24.161 12.134c0.385 1.002 0.569 1.901 0.609 2.996 0.007 0.216 0.004 0.613-0.011 0.882-0.029 0.515-0.057 0.617-0.205 0.754-0.238 0.224-0.703 0.17-0.879-0.099-0.092-0.144-0.105-0.25-0.087-0.852 0.051-1.78-0.309-3.173-1.176-4.566-1.036-1.672-2.586-2.798-4.601-3.349-0.514-0.14-0.947-0.226-1.621-0.316-0.439-0.057-0.535-0.082-0.643-0.148-0.327-0.21-0.332-0.74-0.005-0.953 0.168-0.112 0.292-0.117 0.841-0.047 1.609 0.201 3.044 0.679 4.223 1.401 0.845 0.518 1.378 0.984 2.065 1.8 0.726 0.87 1.11 1.513 1.49 2.499z"/>
</symbol>

<symbol id="icon-whatsapp" viewBox="0 0 32 32">
<path d="M3.851 23.16l-2.114 7.719 7.9-2.071c2.177 1.187 4.627 1.813 7.121 1.814h0.006c8.213 0 14.898-6.684 14.902-14.897 0.001-3.981-1.548-7.724-4.361-10.539s-6.555-4.367-10.541-4.369c-8.214 0-14.899 6.683-14.902 14.896-0.001 2.625 0.685 5.188 1.989 7.448zM4.378 15.713c0.003-6.827 5.559-12.381 12.391-12.381 3.308 0.001 6.418 1.291 8.757 3.631s3.625 5.451 3.624 8.76c-0.003 6.827-5.559 12.382-12.386 12.382h-0.005c-2.223-0.001-4.403-0.598-6.304-1.726l-0.453-0.268-4.688 1.229 1.252-4.569-0.295-0.468c-1.24-1.972-1.894-4.25-1.893-6.59z"/>
<path d="M13.040 9.485c-0.279-0.62-0.573-0.632-0.838-0.643-0.217-0.009-0.466-0.009-0.714-0.009s-0.652 0.093-0.993 0.466c-0.341 0.373-1.303 1.273-1.303 3.105s1.334 3.602 1.52 3.851c0.186 0.248 2.576 4.128 6.361 5.62 3.145 1.24 3.785 0.994 4.468 0.932s2.203-0.901 2.513-1.77c0.31-0.869 0.31-1.614 0.217-1.77s-0.341-0.248-0.714-0.435c-0.372-0.186-2.203-1.087-2.544-1.211s-0.59-0.186-0.838 0.187c-0.248 0.372-0.961 1.211-1.179 1.459s-0.434 0.28-0.807 0.093c-0.372-0.187-1.572-0.579-2.994-1.848-1.107-0.987-1.854-2.206-2.072-2.578s-0.023-0.574 0.164-0.76c0.167-0.167 0.372-0.435 0.559-0.652s0.248-0.373 0.372-0.621c0.124-0.249 0.062-0.466-0.031-0.652s-0.817-2.028-1.148-2.764z"/>
</symbol>

<symbol id="envelope" viewBox="0 0 17 13">
<path d="M15.7727 0.318359H1.22727C1.03439 0.318359 0.849403 0.394983 0.713013 0.531373C0.576623 0.667763 0.5 0.852747 0.5 1.04563V11.9547C0.5 12.1476 0.576623 12.3326 0.713013 12.469C0.849403 12.6054 1.03439 12.682 1.22727 12.682H15.7727C15.9656 12.682 16.1506 12.6054 16.287 12.469C16.4234 12.3326 16.5 12.1476 16.5 11.9547V1.04563C16.5 0.852747 16.4234 0.667763 16.287 0.531373C16.1506 0.394983 15.9656 0.318359 15.7727 0.318359ZM15.0455 11.2274H1.95455V1.7729H15.0455V11.2274Z" fill="#262525"/>
<path d="M3.04825 4.58519L8.13916 7.49428C8.24904 7.55707 8.37341 7.59009 8.49996 7.59009C8.62651 7.59009 8.75088 7.55707 8.86076 7.49428L13.9517 4.58519C14.117 4.4884 14.2374 4.3303 14.2868 4.14524C14.3362 3.96019 14.3106 3.7631 14.2156 3.5968C14.1206 3.43049 13.9638 3.30839 13.7792 3.257C13.5947 3.20562 13.3974 3.2291 13.2301 3.32236L8.49996 6.02548L3.76985 3.32236C3.68687 3.27376 3.59508 3.2421 3.49979 3.22922C3.4045 3.21633 3.3076 3.22247 3.2147 3.24728C3.12179 3.27208 3.03473 3.31507 2.95855 3.37374C2.88236 3.43242 2.81857 3.50562 2.77087 3.58911C2.72316 3.6726 2.69248 3.76472 2.68061 3.86014C2.66874 3.95557 2.67591 4.0524 2.70171 4.14503C2.7275 4.23767 2.77141 4.32426 2.8309 4.39982C2.89038 4.47537 2.96426 4.53838 3.04825 4.58519Z" fill="#262525"/>
</symbol>

<symbol id="bank" viewBox="0 0 16 18">
<path d="M15.2727 8.00002C15.4656 8.00002 15.6506 7.92339 15.787 7.787C15.9234 7.65061 16 7.46563 16 7.27274V4.36365C16 4.22859 15.9624 4.09618 15.8914 3.98128C15.8204 3.86638 15.7188 3.77352 15.598 3.71311L8.32531 0.076743C8.22429 0.0262737 8.11292 0 8 0C7.88708 0 7.77571 0.0262737 7.67469 0.076743L0.401964 3.71311C0.281163 3.77352 0.179573 3.86638 0.108577 3.98128C0.037581 4.09618 -1.56645e-05 4.22859 4.89597e-09 4.36365V7.27274C4.89597e-09 7.46563 0.0766231 7.65061 0.213013 7.787C0.349403 7.92339 0.534388 8.00002 0.727273 8.00002H2.18182V13.0909H0.727273C0.534388 13.0909 0.349403 13.1675 0.213013 13.3039C0.0766231 13.4403 4.89597e-09 13.6253 4.89597e-09 13.8182V16.7273C4.89597e-09 16.9202 0.0766231 17.1052 0.213013 17.2415C0.349403 17.3779 0.534388 17.4546 0.727273 17.4546H15.2727C15.4656 17.4546 15.6506 17.3779 15.787 17.2415C15.9234 17.1052 16 16.9202 16 16.7273V13.8182C16 13.6253 15.9234 13.4403 15.787 13.3039C15.6506 13.1675 15.4656 13.0909 15.2727 13.0909H13.8182V8.00002H15.2727ZM1.45455 4.81325L8 1.54052L14.5455 4.81325V6.54547H1.45455V4.81325ZM6.54545 13.0909V8.00002H9.45455V13.0909H6.54545ZM3.63636 8.00002H5.09091V13.0909H3.63636V8.00002ZM14.5455 16H1.45455V14.5455H14.5455V16ZM12.3636 13.0909H10.9091V8.00002H12.3636V13.0909Z" fill="#262525"/>
</symbol>

<symbol id="circle-yes" viewBox="0 0 24 24">
<path d="M12.0003 24C18.6274 24 23.9998 18.6274 23.9998 12C23.9998 5.37257 18.6274 0 12.0003 0C5.37311 0 0.000732422 5.37257 0.000732422 12C0.000732422 18.6274 5.37311 24 12.0003 24Z" fill="#FFF4E6"/>
<path d="M21.1561 19.7521C20.1135 20.9844 18.833 21.9935 17.3913 22.7192C15.9495 23.4449 14.3761 23.8722 12.7654 23.9756C11.1546 24.0789 9.53951 23.8561 8.01686 23.3206C6.4942 22.785 5.09526 21.9477 3.90379 20.8588C2.71231 19.7699 1.75281 18.4517 1.08273 16.9832C0.412638 15.5148 0.0457448 13.9262 0.00401122 12.3126C-0.0377224 10.699 0.246562 9.09353 0.839844 7.59238C1.43313 6.09123 2.32321 4.72523 3.45679 3.57617C6.55268 9.27616 12.0485 16.3681 21.1561 19.7521Z" fill="#E2CEB7"/>
<path d="M16.8003 10.0924C11.7376 15.1684 12.6485 14.2564 11.6525 15.2524C11.425 15.4754 11.1191 15.6004 10.8005 15.6004C10.4819 15.6004 10.1761 15.4754 9.94858 15.2524L7.20068 12.4924L8.89262 10.8004L10.8005 12.7084L15.1084 8.40039L16.8003 10.0924Z" fill="#FAAC39"/>
<path d="M12.3125 14.5911L11.6525 15.2511C11.425 15.4741 11.1191 15.5991 10.8005 15.5991C10.4819 15.5991 10.1761 15.4741 9.94858 15.2511L7.20068 12.4911L8.65263 11.0391C9.77663 12.3181 11.0004 13.5058 12.3125 14.5911Z" fill="#B4721D"/>
<path d="M12.3125 14.5911L11.6525 15.2511C11.425 15.4741 11.1191 15.5991 10.8005 15.5991C10.4819 15.5991 10.1761 15.4741 9.94858 15.2511L7.20068 12.4911L8.65263 11.0391C9.77663 12.3181 11.0004 13.5058 12.3125 14.5911Z" fill="black" fill-opacity="0.2"/>
</symbol>

<symbol id="icon-Facebook-modal" viewBox="0 0 34 32">
<path fill="#b4721d" style="56f498121e40082a" d="M0.8 16c0-8.837 7.163-16 16-16s16 7.163 16 16c0 8.836-7.164 16-16 16s-16-7.164-16-16zM18.468 25.408v-8.705h2.403l0.319-3h-2.721l0.004-1.501c0-0.782 0.074-1.202 1.198-1.202h1.502v-3h-2.403c-2.887 0-3.903 1.455-3.903 3.902v1.801h-1.799v3h1.799v8.704h3.602z"/>
<path fill="#000" style="cd3c49ca5ea233e4" opacity="0.2" d="M0.8 16c0-8.837 7.163-16 16-16s16 7.163 16 16c0 8.836-7.164 16-16 16s-16-7.164-16-16zM18.468 25.408v-8.705h2.403l0.319-3h-2.721l0.004-1.501c0-0.782 0.074-1.202 1.198-1.202h1.502v-3h-2.403c-2.887 0-3.903 1.455-3.903 3.902v1.801h-1.799v3h1.799v8.704h3.602z"/>
</symbol>

<symbol id="icon-Instagram-modal" viewBox="0 0 32 32">
<path fill="#b4721d" style="56f498121e40082a" d="M16.001 0c-4.345 0-4.891 0.019-6.597 0.097-1.703 0.078-2.866 0.348-3.883 0.743-1.052 0.409-1.945 0.955-2.834 1.845s-1.437 1.782-1.847 2.834c-0.397 1.018-0.667 2.181-0.743 3.883-0.076 1.707-0.096 2.252-0.096 6.598s0.019 4.889 0.097 6.596c0.078 1.703 0.348 2.866 0.743 3.883 0.409 1.052 0.956 1.945 1.845 2.834s1.782 1.438 2.833 1.847c1.018 0.396 2.181 0.665 3.884 0.743 1.707 0.078 2.252 0.097 6.597 0.097s4.889-0.019 6.596-0.097c1.703-0.078 2.867-0.348 3.885-0.743 1.052-0.409 1.943-0.957 2.832-1.847 0.89-0.889 1.437-1.782 1.847-2.834 0.393-1.018 0.663-2.181 0.743-3.883 0.077-1.707 0.097-2.251 0.097-6.596s-0.020-4.891-0.097-6.597c-0.080-1.703-0.35-2.866-0.743-3.883-0.41-1.052-0.957-1.945-1.847-2.834s-1.78-1.437-2.833-1.845c-1.020-0.396-2.183-0.665-3.887-0.743-1.707-0.078-2.25-0.097-6.597-0.097h0.005zM14.566 2.883c0.426-0.001 0.901 0 1.435 0 4.272 0 4.778 0.015 6.465 0.092 1.56 0.071 2.407 0.332 2.971 0.551 0.747 0.29 1.279 0.637 1.839 1.197s0.907 1.093 1.197 1.84c0.219 0.563 0.48 1.41 0.551 2.97 0.077 1.687 0.093 2.193 0.093 6.463s-0.017 4.777-0.093 6.463c-0.071 1.56-0.332 2.407-0.551 2.97-0.29 0.747-0.637 1.278-1.197 1.838s-1.092 0.907-1.839 1.197c-0.563 0.22-1.411 0.48-2.971 0.551-1.687 0.077-2.193 0.093-6.465 0.093s-4.779-0.017-6.465-0.093c-1.56-0.072-2.407-0.333-2.971-0.552-0.747-0.29-1.28-0.637-1.84-1.197s-0.907-1.092-1.197-1.839c-0.219-0.563-0.48-1.41-0.551-2.97-0.077-1.687-0.092-2.193-0.092-6.466s0.015-4.777 0.092-6.463c0.071-1.56 0.332-2.407 0.551-2.971 0.29-0.747 0.637-1.28 1.197-1.84s1.093-0.907 1.84-1.197c0.564-0.22 1.411-0.48 2.971-0.552 1.476-0.067 2.048-0.087 5.030-0.090v0.004z"/>
<path fill="#000" style="cd3c49ca5ea233e4" opacity="0.2" d="M16.001 0c-4.345 0-4.891 0.019-6.597 0.097-1.703 0.078-2.866 0.348-3.883 0.743-1.052 0.409-1.945 0.955-2.834 1.845s-1.437 1.782-1.847 2.834c-0.397 1.018-0.667 2.181-0.743 3.883-0.076 1.707-0.096 2.252-0.096 6.598s0.019 4.889 0.097 6.596c0.078 1.703 0.348 2.866 0.743 3.883 0.409 1.052 0.956 1.945 1.845 2.834s1.782 1.438 2.833 1.847c1.018 0.396 2.181 0.665 3.884 0.743 1.707 0.078 2.252 0.097 6.597 0.097s4.889-0.019 6.596-0.097c1.703-0.078 2.867-0.348 3.885-0.743 1.052-0.409 1.943-0.957 2.832-1.847 0.89-0.889 1.437-1.782 1.847-2.834 0.393-1.018 0.663-2.181 0.743-3.883 0.077-1.707 0.097-2.251 0.097-6.596s-0.020-4.891-0.097-6.597c-0.080-1.703-0.35-2.866-0.743-3.883-0.41-1.052-0.957-1.945-1.847-2.834s-1.78-1.437-2.833-1.845c-1.020-0.396-2.183-0.665-3.887-0.743-1.707-0.078-2.25-0.097-6.597-0.097h0.005zM14.566 2.883c0.426-0.001 0.901 0 1.435 0 4.272 0 4.778 0.015 6.465 0.092 1.56 0.071 2.407 0.332 2.971 0.551 0.747 0.29 1.279 0.637 1.839 1.197s0.907 1.093 1.197 1.84c0.219 0.563 0.48 1.41 0.551 2.97 0.077 1.687 0.093 2.193 0.093 6.463s-0.017 4.777-0.093 6.463c-0.071 1.56-0.332 2.407-0.551 2.97-0.29 0.747-0.637 1.278-1.197 1.838s-1.092 0.907-1.839 1.197c-0.563 0.22-1.411 0.48-2.971 0.551-1.687 0.077-2.193 0.093-6.465 0.093s-4.779-0.017-6.465-0.093c-1.56-0.072-2.407-0.333-2.971-0.552-0.747-0.29-1.28-0.637-1.84-1.197s-0.907-1.092-1.197-1.839c-0.219-0.563-0.48-1.41-0.551-2.97-0.077-1.687-0.092-2.193-0.092-6.466s0.015-4.777 0.092-6.463c0.071-1.56 0.332-2.407 0.551-2.971 0.29-0.747 0.637-1.28 1.197-1.84s1.093-0.907 1.84-1.197c0.564-0.22 1.411-0.48 2.971-0.552 1.476-0.067 2.048-0.087 5.030-0.090v0.004z"/>
<path fill="#b4721d" style="56f498121e40082a" d="M24.508 5.501c-0.38 0-0.751 0.113-1.067 0.324s-0.562 0.511-0.707 0.862-0.183 0.737-0.109 1.109c0.074 0.372 0.257 0.715 0.526 0.983s0.611 0.451 0.983 0.525c0.372 0.074 0.759 0.036 1.109-0.11s0.651-0.392 0.862-0.707c0.211-0.316 0.323-0.687 0.323-1.067 0-1.060-0.86-1.919-1.92-1.919z"/>
<path fill="#000" style="cd3c49ca5ea233e4" opacity="0.2" d="M24.508 5.501c-0.38 0-0.751 0.113-1.067 0.324s-0.562 0.511-0.707 0.862-0.183 0.737-0.109 1.109c0.074 0.372 0.257 0.715 0.526 0.983s0.611 0.451 0.983 0.525c0.372 0.074 0.759 0.036 1.109-0.11s0.651-0.392 0.862-0.707c0.211-0.316 0.323-0.687 0.323-1.067 0-1.060-0.86-1.919-1.92-1.919z"/>
<path fill="#b4721d" style="56f498121e40082a" d="M15.967 7.744c4.538 0 8.216 3.679 8.216 8.217s-3.678 8.215-8.216 8.215c-4.538 0-8.217-3.677-8.217-8.215s3.679-8.217 8.217-8.217zM16 21.25c2.9 0 5.25-2.351 5.25-5.25s-2.351-5.25-5.25-5.25c-2.899 0-5.25 2.351-5.25 5.25s2.351 5.25 5.25 5.25z"/>
<path fill="#000" style="cd3c49ca5ea233e4" opacity="0.2" d="M15.967 7.744c4.538 0 8.216 3.679 8.216 8.217s-3.678 8.215-8.216 8.215c-4.538 0-8.217-3.677-8.217-8.215s3.679-8.217 8.217-8.217zM16 21.25c2.9 0 5.25-2.351 5.25-5.25s-2.351-5.25-5.25-5.25c-2.899 0-5.25 2.351-5.25 5.25s2.351 5.25 5.25 5.25z"/>
</symbol>

<symbol id="icon-Messenger-modal" viewBox="0 0 32 32">
<path fill="#000" style="cd3c49ca5ea233e4" d="M15.999 0c-9.011 0-15.999 6.603-15.999 15.519 0 4.664 1.912 8.695 5.024 11.479 0.26 0.232 0.42 0.56 0.428 0.912l0.088 2.848c0.028 0.908 0.964 1.5 1.796 1.132l3.176-1.4c0.268-0.12 0.572-0.14 0.856-0.064 1.46 0.4 3.012 0.616 4.632 0.616 9.011 0 15.999-6.604 15.999-15.519s-6.987-15.523-15.999-15.523z"/>
<path fill="#fff" style="7fc62648e8cf9b8c" d="M6.392 20.057l4.7-7.455c0.748-1.188 2.348-1.48 3.472-0.64l3.74 2.804c0.344 0.256 0.816 0.256 1.156-0.004l5.048-3.832c0.672-0.512 1.552 0.296 1.104 1.012l-4.704 7.451c-0.748 1.188-2.348 1.48-3.472 0.64l-3.74-2.804c-0.344-0.256-0.816-0.256-1.156 0.004l-5.048 3.832c-0.672 0.512-1.552-0.292-1.1-1.008z"/>
</symbol>

<symbol id="icon-Telegram-modal" viewBox="0 0 32 32">
<path fill="#000" style="cd3c49ca5ea233e4" d="M16 32c8.836 0 16-7.164 16-16s-7.164-16-16-16c-8.837 0-16 7.163-16 16s7.163 16 16 16z"/>
<path fill="#fff" style="7fc62648e8cf9b8c" d="M5.959 16.784c1.87-1.030 3.958-1.89 5.909-2.754 3.356-1.416 6.726-2.807 10.129-4.102 0.662-0.221 1.852-0.436 1.969 0.545-0.064 1.389-0.327 2.77-0.507 4.151-0.458 3.037-0.986 6.063-1.502 9.090-0.178 1.008-1.441 1.53-2.249 0.885-1.942-1.312-3.899-2.611-5.817-3.953-0.628-0.638-0.046-1.555 0.515-2.010 1.6-1.576 3.296-2.916 4.812-4.574 0.409-0.988-0.799-0.155-1.198 0.1-2.19 1.509-4.326 3.11-6.635 4.437-1.179 0.649-2.554 0.094-3.733-0.268-1.057-0.438-2.606-0.878-1.694-1.546h0z"/>
</symbol>

<symbol id="icon-Tik-Tok-modal" viewBox="0 0 34 32">
<path fill="#b4721d" style="56f498121e40082a" d="M10.447 24.882c0.634 0.334 1.339 0.509 2.056 0.509 2.386 0 4.334-1.898 4.422-4.264l0.009-21.127h5.271c0 0.449 0.042 0.896 0.124 1.338l1.412 0.001c-0.001 1.768 0.64 3.477 1.804 4.808l0.002 0.002c1.187 0.775 2.574 1.188 3.992 1.186v1.174c0.496 0.106 1.009 0.163 1.537 0.163v5.272c-2.632 0.003-5.198-0.822-7.334-2.358v10.713c0 5.349-4.353 9.702-9.703 9.702-1.332 0-2.65-0.275-3.872-0.807s-2.318-1.311-3.223-2.287l-0.002-0.001c-2.502-1.757-4.142-4.662-4.142-7.944 0-5.35 4.353-9.704 9.703-9.704 0.438 0.002 0.874 0.034 1.308 0.095v1.248c0.030-0.001 0.061-0.002 0.091-0.003 0.046-0.002 0.091-0.003 0.138-0.003 0.437 0.002 0.874 0.034 1.307 0.095v5.382c-0.413-0.13-0.851-0.205-1.307-0.205-1.175 0.001-2.301 0.469-3.132 1.3s-1.298 1.957-1.299 3.132c0 0.928 0.293 1.832 0.838 2.584l0.001 0.001zM4.976 25.76c0.45 1.173 1.122 2.238 1.964 3.142-0.859-0.919-1.522-1.988-1.964-3.142z"/>
<path fill="#000" style="cd3c49ca5ea233e4" opacity="0.2" d="M10.447 24.882c0.634 0.334 1.339 0.509 2.056 0.509 2.386 0 4.334-1.898 4.422-4.264l0.009-21.127h5.271c0 0.449 0.042 0.896 0.124 1.338l1.412 0.001c-0.001 1.768 0.64 3.477 1.804 4.808l0.002 0.002c1.187 0.775 2.574 1.188 3.992 1.186v1.174c0.496 0.106 1.009 0.163 1.537 0.163v5.272c-2.632 0.003-5.198-0.822-7.334-2.358v10.713c0 5.349-4.353 9.702-9.703 9.702-1.332 0-2.65-0.275-3.872-0.807s-2.318-1.311-3.223-2.287l-0.002-0.001c-2.502-1.757-4.142-4.662-4.142-7.944 0-5.35 4.353-9.704 9.703-9.704 0.438 0.002 0.874 0.034 1.308 0.095v1.248c0.030-0.001 0.061-0.002 0.091-0.003 0.046-0.002 0.091-0.003 0.138-0.003 0.437 0.002 0.874 0.034 1.307 0.095v5.382c-0.413-0.13-0.851-0.205-1.307-0.205-1.175 0.001-2.301 0.469-3.132 1.3s-1.298 1.957-1.299 3.132c0 0.928 0.293 1.832 0.838 2.584l0.001 0.001zM4.976 25.76c0.45 1.173 1.122 2.238 1.964 3.142-0.859-0.919-1.522-1.988-1.964-3.142z"/>
</symbol>

<symbol id="icon-Viber-modal" viewBox="0 0 32 32">
<path fill="#000" style="cd3c49ca5ea233e4" d="M16 0c8.836 0 16 7.163 16 16s-7.164 16-16 16c-8.837 0-16-7.164-16-16s7.163-16 16-16z"/>
<path fill="#fff" style="7fc62648e8cf9b8c" d="M16.495 12.634c0.008-0.157 0.142-0.278 0.299-0.269 0.587 0.031 1.076 0.208 1.424 0.568 0.347 0.358 0.516 0.859 0.546 1.46 0.008 0.157-0.113 0.291-0.27 0.298s-0.291-0.113-0.298-0.27c-0.026-0.515-0.167-0.865-0.387-1.093-0.219-0.226-0.553-0.37-1.044-0.395-0.157-0.008-0.277-0.142-0.269-0.299z"/>
<path fill="#fff" style="7fc62648e8cf9b8c" d="M16.368 10.838c-0.157-0.011-0.293 0.106-0.304 0.263s0.106 0.293 0.263 0.305c1.084 0.079 1.897 0.442 2.479 1.077 0.584 0.638 0.87 1.433 0.849 2.408-0.003 0.157 0.121 0.287 0.278 0.291s0.287-0.121 0.291-0.278c0.024-1.105-0.305-2.047-0.999-2.804v-0c-0.701-0.765-1.663-1.173-2.858-1.261z"/>
<path fill="#fff" style="7fc62648e8cf9b8c" d="M15.562 9.643c0.001-0.157 0.129-0.284 0.287-0.283 1.651 0.011 3.047 0.561 4.168 1.654 1.13 1.102 1.689 2.602 1.703 4.464 0.001 0.157-0.125 0.286-0.282 0.287s-0.286-0.125-0.287-0.282c-0.013-1.746-0.533-3.087-1.531-4.061-1.008-0.983-2.26-1.482-3.775-1.492-0.157-0.001-0.284-0.129-0.283-0.287z"/>
<path fill="#fff" style="7fc62648e8cf9b8c" d="M17.451 17.987c-0.215 0.265-0.615 0.232-0.615 0.232-2.924-0.746-3.706-3.708-3.706-3.708s-0.035-0.4 0.232-0.615l0.528-0.42c0.262-0.202 0.429-0.692 0.162-1.17-0.205-0.359-0.427-0.708-0.666-1.044-0.233-0.318-0.774-0.968-0.776-0.97-0.261-0.308-0.645-0.38-1.050-0.169-0.001 0-0.003 0.001-0.005 0.001s-0.003 0.001-0.004 0.001c-0.403 0.232-0.766 0.527-1.076 0.874-0.001 0.002-0.002 0.003-0.003 0.004s-0.002 0.002-0.003 0.004c-0.25 0.302-0.393 0.598-0.43 0.888-0.008 0.043-0.010 0.086-0.008 0.13-0.001 0.128 0.018 0.256 0.058 0.377l0.014 0.009c0.126 0.448 0.442 1.195 1.129 2.44 0.393 0.72 0.846 1.406 1.354 2.049 0.255 0.323 0.528 0.631 0.818 0.922 0.004 0.004 0.007 0.007 0.010 0.010 0.007 0.007 0.014 0.014 0.021 0.021l0.093 0.093c0.291 0.29 0.599 0.563 0.922 0.818 0.644 0.508 1.329 0.961 2.050 1.354 1.244 0.687 1.992 1.003 2.44 1.129l0.009 0.014c0.122 0.040 0.249 0.059 0.377 0.058 0.044 0.002 0.087-0.001 0.13-0.008 0.29-0.034 0.586-0.177 0.887-0.429 0.004-0.002 0.004-0.004 0.008-0.006 0.347-0.31 0.642-0.673 0.874-1.076 0-0.001 0-0.002 0.001-0.003s0.001-0.004 0.001-0.005c0.211-0.405 0.14-0.789-0.17-1.051-0 0-0.026-0.021-0.068-0.056-0.176-0.145-0.646-0.532-0.902-0.72-0.336-0.239-0.685-0.462-1.044-0.666-0.479-0.267-0.967-0.1-1.17 0.162l-0.42 0.528z"/>
<path fill="#fff" style="7fc62648e8cf9b8c" d="M24.258 7.528c-0.559-0.516-2.818-2.156-7.849-2.178 0 0-5.934-0.358-8.826 2.295-1.61 1.611-2.177 3.967-2.236 6.889s-0.137 8.397 5.141 9.881h0.005l-0.003 2.265c0 0-0.034 0.917 0.57 1.104 0.61 0.189 1.009-0.265 1.53-0.857 0.103-0.117 0.211-0.24 0.327-0.365 0.383-0.412 0.911-1.018 1.31-1.481 3.609 0.304 6.386-0.391 6.701-0.493 0.065-0.021 0.157-0.044 0.271-0.074h0c1.166-0.296 4.641-1.18 5.252-6.166 0.692-5.643-0.335-9.212-2.191-10.821zM24.87 17.945c-0.51 4.116-3.272 4.759-4.268 4.99v0h-0c-0.11 0.026-0.198 0.046-0.26 0.066-0.262 0.084-2.7 0.691-5.766 0.491 0 0-2.285 2.756-2.998 3.473-0.111 0.112-0.242 0.157-0.33 0.135-0.123-0.030-0.157-0.176-0.155-0.388 0.002-0.304 0.020-3.764 0.020-3.764-4.317-1.199-4.216-5.595-4.159-8.091l0-0c0.002-0.085 0.004-0.168 0.006-0.249 0.051-2.44 0.509-4.439 1.871-5.784 2.447-2.216 7.487-1.885 7.487-1.885 4.256 0.019 6.296 1.3 6.769 1.73 1.57 1.345 2.37 4.562 1.785 9.275v0.001z"/>
</symbol>

<symbol id="icon-WhatsApp-modal" viewBox="0 0 34 32">
<path d="M5.066 22.444l-1.903 6.948 7.11-1.864c1.959 1.068 4.165 1.631 6.409 1.632h0.006c7.392 0 13.409-6.015 13.412-13.407 0.001-3.583-1.393-6.951-3.925-9.486s-5.9-3.93-9.487-3.932c-7.393 0-13.409 6.014-13.412 13.407-0.001 2.363 0.617 4.67 1.79 6.703zM5.54 15.742c0.002-6.144 5.003-11.143 11.152-11.143 2.978 0.001 5.776 1.162 7.881 3.268s3.263 4.906 3.262 7.884c-0.003 6.145-5.003 11.144-11.147 11.144h-0.004c-2.001-0.001-3.962-0.538-5.674-1.554l-0.407-0.241-4.219 1.106 1.126-4.112-0.265-0.421c-1.116-1.774-1.705-3.825-1.704-5.931z"/>
<path d="M13.336 10.136c-0.251-0.558-0.515-0.569-0.754-0.579-0.195-0.008-0.419-0.008-0.642-0.008s-0.587 0.084-0.893 0.419c-0.307 0.335-1.173 1.146-1.173 2.795s1.201 3.242 1.368 3.466c0.168 0.224 2.318 3.715 5.725 5.058 2.831 1.116 3.407 0.894 4.021 0.838s1.983-0.811 2.262-1.593c0.279-0.782 0.279-1.453 0.196-1.593s-0.307-0.224-0.643-0.391c-0.335-0.168-1.983-0.978-2.29-1.090s-0.531-0.168-0.754 0.168c-0.223 0.335-0.865 1.090-1.061 1.313s-0.391 0.252-0.726 0.084c-0.335-0.168-1.414-0.521-2.695-1.663-0.996-0.888-1.669-1.985-1.864-2.32s-0.021-0.517 0.147-0.684c0.15-0.15 0.335-0.391 0.503-0.587s0.223-0.335 0.335-0.559c0.112-0.224 0.056-0.419-0.028-0.587s-0.735-1.825-1.033-2.488z"/>
</symbol>

<symbol id="icon-Phone-modal" viewBox="0 0 32 32">
<path fill="#fffdfa" style="8cd019b1f7097753" d="M28.495 20.095l-6.667-2.667c-0.262-0.103-0.549-0.121-0.822-0.052s-0.517 0.222-0.698 0.437l-2.714 3.256c-2.72-1.66-5.005-3.945-6.665-6.665l3.257-2.714c0.217-0.18 0.37-0.424 0.44-0.697s0.050-0.561-0.054-0.822l-2.667-6.667c-0.099-0.248-0.27-0.46-0.491-0.609s-0.481-0.229-0.748-0.229h-9.333c-0.175-0-0.349 0.034-0.51 0.101s-0.309 0.165-0.433 0.289c-0.124 0.124-0.222 0.271-0.289 0.433s-0.101 0.335-0.101 0.51c0.009 7.423 2.961 14.54 8.21 19.79s12.366 8.202 19.79 8.21c0.175 0 0.349-0.034 0.51-0.101s0.309-0.165 0.433-0.289c0.124-0.124 0.222-0.271 0.289-0.433s0.102-0.335 0.101-0.51v-9.333c0-0.267-0.080-0.527-0.23-0.748s-0.362-0.391-0.609-0.491zM26.667 29.298c-6.246-0.338-12.148-2.971-16.571-7.394s-7.056-10.325-7.394-16.571h7.062l1.971 4.928-3.374 2.811c-0.237 0.197-0.398 0.47-0.457 0.772s-0.010 0.616 0.136 0.887c2.108 3.911 5.316 7.118 9.227 9.227 0.271 0.146 0.584 0.195 0.887 0.136s0.575-0.22 0.772-0.457l2.811-3.374 4.928 1.971v7.062z"/>
<path fill="#fffdfa" style="8cd019b1f7097753" d="M18.667 10.667c0.707 0.001 1.385 0.282 1.885 0.782s0.781 1.178 0.782 1.885c0 0.354 0.14 0.693 0.391 0.943s0.589 0.391 0.943 0.391 0.693-0.14 0.943-0.391c0.25-0.25 0.391-0.589 0.391-0.943-0.001-1.414-0.564-2.77-1.564-3.77s-2.356-1.562-3.77-1.564c-0.354 0-0.693 0.14-0.943 0.391s-0.391 0.589-0.391 0.943 0.14 0.693 0.391 0.943c0.25 0.25 0.589 0.391 0.943 0.391z"/>
<path fill="#fffdfa" style="8cd019b1f7097753" d="M18.667 6.667c1.767 0.002 3.462 0.705 4.712 1.955s1.953 2.944 1.955 4.712c0 0.354 0.14 0.693 0.391 0.943s0.589 0.391 0.943 0.391 0.693-0.14 0.943-0.391c0.25-0.25 0.391-0.589 0.391-0.943-0.003-2.474-0.987-4.847-2.737-6.596s-4.122-2.734-6.596-2.737c-0.354 0-0.693 0.14-0.943 0.391s-0.391 0.589-0.391 0.943 0.14 0.693 0.391 0.943c0.25 0.25 0.589 0.391 0.943 0.391z"/>
<path fill="#fffdfa" style="8cd019b1f7097753" d="M18.667 0c-0.354 0-0.693 0.14-0.943 0.391s-0.391 0.589-0.391 0.943 0.14 0.693 0.391 0.943c0.25 0.25 0.589 0.391 0.943 0.391 2.828 0.003 5.539 1.128 7.539 3.128s3.125 4.711 3.128 7.539c0 0.354 0.14 0.693 0.391 0.943s0.589 0.391 0.943 0.391 0.693-0.14 0.943-0.391c0.25-0.25 0.391-0.589 0.391-0.943-0.004-3.535-1.41-6.924-3.91-9.424s-5.889-3.906-9.423-3.91z"/>
</symbol>

<symbol id="icon-Info" viewBox="0 0 32 32">
<path fill="#fff4e6" style="4f78587eda8009ff" d="M16 31.999c8.836 0 16-7.163 16-15.999s-7.163-15.999-16-15.999c-8.836 0-15.999 7.163-15.999 15.999s7.163 15.999 15.999 15.999z"/>
<path fill="#e2ceb7" style="15d20a7c98f13537" d="M28.208 26.336c-1.39 1.643-3.097 2.988-5.020 3.956s-4.020 1.537-6.168 1.675c-2.148 0.138-4.301-0.159-6.331-0.873s-3.895-1.83-5.484-3.282-2.868-3.209-3.761-5.167c-0.893-1.958-1.383-4.076-1.438-6.227s0.323-4.292 1.114-6.293 1.978-3.823 3.489-5.355c4.128 7.6 11.456 17.055 23.599 21.567z"/>
<path fill="#faac39" style="7279c71cc90829f2" d="M17.601 12.8h-3.2v11.2h3.2v-11.2z"/>
<path fill="#faac39" style="7279c71cc90829f2" d="M17.601 8h-3.2v3.2h3.2v-3.2z"/>
<path fill="#b4721d" style="ff9601e1d57c0271" d="M17.601 20.398v3.6h-3.2v-6.336c1.012 0.974 2.080 1.888 3.2 2.736z"/>
<path fill="#000" style="6661f1827023a7ab" opacity="0.2" d="M17.601 20.398v3.6h-3.2v-6.336c1.012 0.974 2.080 1.888 3.2 2.736z"/>
</symbol>


</defs>
</svg>