<svg aria-hidden="true" style="width:0;height:0;position:absolute;overflow:hidden" xmlns="http://www.w3.org/2000/svg"><defs><symbol id="scale" viewBox="0 0 14 15"><path d="m13.938 5.49-1.327-2.657h.806a.583.583 0 0 0 0-1.166H8.643a1.74 1.74 0 0 0-3.286 0H.583a.583.583 0 0 0 0 1.166h.806L.062 5.49A1.629 1.629 0 0 0 0 5.75v1.167a2.333 2.333 0 0 0 4.667 0V5.75a1.63 1.63 0 0 0-.062-.26L3.277 2.832h2.08a1.747 1.747 0 0 0 1.06 1.06v5.94H5.25A1.168 1.168 0 0 0 4.083 11v.583H3.5a1.752 1.752 0 0 0-1.75 1.75v.584a.583.583 0 0 0 .583.583h9.334a.584.584 0 0 0 .583-.583v-.584a1.752 1.752 0 0 0-1.75-1.75h-.583V11A1.168 1.168 0 0 0 8.75 9.833H7.583v-5.94a1.747 1.747 0 0 0 1.06-1.06h2.08L9.395 5.49a1.63 1.63 0 0 0-.062.261v1.167a2.333 2.333 0 1 0 4.667 0V5.75a1.633 1.633 0 0 0-.062-.26ZM2.333 3.554l.806 1.612H1.527l.806-1.612ZM3.5 6.917a1.167 1.167 0 0 1-2.333 0v-.584H3.5v.584Zm7.583 6.416H2.917a.584.584 0 0 1 .583-.583h7a.584.584 0 0 1 .583.583Zm-2.333-1.75h-3.5V11h3.5v.583ZM7 2.833a.583.583 0 1 1 0-1.166.583.583 0 0 1 0 1.166Zm5.473 2.334H10.86l.806-1.612.806 1.612Zm.36 1.75a1.167 1.167 0 1 1-2.333 0v-.584h2.333v.584Z"/></symbol><symbol id="burger-menu" viewBox="0 0 24 24"><path d="M4 18h16c.55 0 1-.45 1-1s-.45-1-1-1H4c-.55 0-1 .45-1 1s.45 1 1 1Zm0-5h16c.55 0 1-.45 1-1s-.45-1-1-1H4c-.55 0-1 .45-1 1s.45 1 1 1ZM3 7c0 .55.45 1 1 1h16c.55 0 1-.45 1-1s-.45-1-1-1H4c-.55 0-1 .45-1 1Z"/></symbol><symbol id="close-cross" viewBox="0 0 24 24" fill="none"><path d="M19 6.41 17.59 5 12 10.59 6.41 5 5 6.41 10.59 12 5 17.59 6.41 19 12 13.41 17.59 19 19 17.59 13.41 12 19 6.41Z" fill="#FCFEFF"/></symbol><symbol id="facebook-icon" viewBox="0 0 20 21" fill="none"><path fill-rule="evenodd" clip-rule="evenodd" d="M0 10.455c0-5.523 4.477-10 10-10s10 4.477 10 10-4.477 10-10 10-10-4.477-10-10Zm11.042 5.88v-5.44h1.502l.2-1.875h-1.702l.003-.939c0-.489.046-.75.749-.75h.938V5.454H11.23c-1.804 0-2.439.91-2.439 2.44V9.02H7.667v1.875H8.79v5.44h2.251Z" fill="#fff"/><path fill-rule="evenodd" clip-rule="evenodd" d="M0 10.455c0-5.523 4.477-10 10-10s10 4.477 10 10-4.477 10-10 10-10-4.477-10-10Zm11.042 5.88v-5.44h1.502l.2-1.875h-1.702l.003-.939c0-.489.046-.75.749-.75h.938V5.454H11.23c-1.804 0-2.439.91-2.439 2.44V9.02H7.667v1.875H8.79v5.44h2.251Z" fill="#fff"/></symbol><symbol id="instagram-icon" viewBox="0 0 20 21" fill="none"><path d="M10 .455c-2.715 0-3.056.012-4.123.06-1.064.05-1.79.218-2.427.465A4.897 4.897 0 0 0 1.68 2.133 4.909 4.909 0 0 0 .525 3.904C.277 4.54.108 5.267.06 6.332.013 7.398 0 7.739 0 10.455s.012 3.056.06 4.122c.05 1.065.218 1.792.465 2.428a4.9 4.9 0 0 0 1.153 1.77A4.896 4.896 0 0 0 3.45 19.93c.636.247 1.363.416 2.428.465 1.066.048 1.407.06 4.123.06s3.056-.012 4.122-.06c1.065-.05 1.792-.218 2.429-.465a4.892 4.892 0 0 0 1.77-1.154 4.909 4.909 0 0 0 1.154-1.771c.246-.636.415-1.363.465-2.427.047-1.067.06-1.407.06-4.123s-.012-3.057-.06-4.123c-.05-1.065-.22-1.792-.465-2.427a4.908 4.908 0 0 0-1.154-1.772A4.887 4.887 0 0 0 16.55.98c-.638-.247-1.365-.416-2.43-.465-1.066-.048-1.405-.06-4.122-.06H10Zm-.896 1.802H10c2.67 0 2.986.01 4.04.058.976.044 1.505.207 1.857.344.467.181.8.398 1.15.748.35.35.566.683.748 1.15.137.352.3.881.344 1.856.048 1.054.058 1.371.058 4.04 0 2.668-.01 2.985-.058 4.04-.044.974-.207 1.503-.344 1.856a3.091 3.091 0 0 1-.748 1.148c-.35.35-.683.567-1.15.748-.352.138-.881.3-1.856.345-1.055.048-1.371.058-4.041.058-2.67 0-2.987-.01-4.041-.058-.975-.045-1.504-.208-1.857-.345a3.098 3.098 0 0 1-1.15-.748 3.1 3.1 0 0 1-.748-1.15c-.137-.351-.3-.88-.345-1.856-.048-1.054-.057-1.37-.057-4.04 0-2.671.01-2.986.057-4.04.045-.975.208-1.504.345-1.857.18-.467.398-.8.748-1.15.35-.35.683-.567 1.15-.748.352-.138.882-.3 1.857-.345.922-.042 1.28-.054 3.144-.056v.002Z" fill="#fff"/><path d="M15.317 3.893a1.2 1.2 0 1 0 0 2.4 1.2 1.2 0 0 0 0-2.4Z" fill="#fff"/><path fill-rule="evenodd" clip-rule="evenodd" d="M9.98 5.295a5.136 5.136 0 1 0 0 10.271 5.136 5.136 0 0 0 0-10.27Zm.02 8.441a3.281 3.281 0 1 0 0-6.562 3.281 3.281 0 0 0 0 6.562Z" fill="#fff"/></symbol><symbol id="tik-tok-icon" viewBox="0 0 20 21" fill="none"><path fill-rule="evenodd" clip-rule="evenodd" d="M6.03 16.006c.395.21.837.318 1.284.318a2.77 2.77 0 0 0 2.764-2.665L10.084.455h3.294c0 .28.027.56.078.836h-2.412 3.295c0 1.106.4 2.173 1.127 3.005l.001.001a4.554 4.554 0 0 0 2.495.742v.734c.31.066.63.101.96.101V9.17a7.836 7.836 0 0 1-4.583-1.474v6.695a6.071 6.071 0 0 1-6.065 6.064 6.047 6.047 0 0 1-4.434-1.934H3.84a6.06 6.06 0 0 1-2.589-4.966A6.072 6.072 0 0 1 7.314 7.49c.274.002.547.022.818.06v.78c.019 0 .037 0 .056-.002l.086-.002c.274.002.547.022.818.06v3.364a2.72 2.72 0 0 0-.818-.129 2.773 2.773 0 0 0-2.769 2.77c0 .58.183 1.145.524 1.615Zm-3.42.549Z" fill="#fff"/></symbol><symbol id="telegram-icon" viewBox="0 0 20 21" fill="none"><path fill-rule="evenodd" clip-rule="evenodd" d="M20 10.455c0 5.523-4.477 10-10 10s-10-4.477-10-10 4.477-10 10-10 10 4.477 10 10ZM6.696 9.54c-1.001.437-2.03.887-2.972 1.405-.491.36.162.615.775.853.097.038.194.076.284.113l.23.073c.682.217 1.441.459 2.103.095 1.087-.625 2.113-1.346 3.138-2.068.335-.236.671-.472 1.009-.705l.053-.034c.288-.187.935-.606.696-.028-.566.619-1.173 1.166-1.782 1.717-.411.372-.823.744-1.226 1.141-.35.285-.714.858-.322 1.257.904.633 1.822 1.25 2.74 1.867l.895.603c.505.404 1.295.077 1.406-.553l.148-.87c.274-1.601.548-3.204.79-4.811.034-.252.07-.504.108-.756.09-.612.181-1.224.21-1.838-.073-.614-.817-.479-1.23-.34-2.128.809-4.234 1.678-6.332 2.563l-.72.316Z" fill="#fff"/></symbol></defs></svg>