<svg aria-hidden="true" style="width:0;height:0;position:absolute;overflow:hidden" xmlns="http://www.w3.org/2000/svg"><defs><symbol id="scale" viewBox="0 0 14 15"><path d="m13.938 5.49-1.327-2.657h.806a.583.583 0 0 0 0-1.166H8.643a1.74 1.74 0 0 0-3.286 0H.583a.583.583 0 0 0 0 1.166h.806L.062 5.49A1.629 1.629 0 0 0 0 5.75v1.167a2.333 2.333 0 0 0 4.667 0V5.75a1.63 1.63 0 0 0-.062-.26L3.277 2.832h2.08a1.747 1.747 0 0 0 1.06 1.06v5.94H5.25A1.168 1.168 0 0 0 4.083 11v.583H3.5a1.752 1.752 0 0 0-1.75 1.75v.584a.583.583 0 0 0 .583.583h9.334a.584.584 0 0 0 .583-.583v-.584a1.752 1.752 0 0 0-1.75-1.75h-.583V11A1.168 1.168 0 0 0 8.75 9.833H7.583v-5.94a1.747 1.747 0 0 0 1.06-1.06h2.08L9.395 5.49a1.63 1.63 0 0 0-.062.261v1.167a2.333 2.333 0 1 0 4.667 0V5.75a1.633 1.633 0 0 0-.062-.26ZM2.333 3.554l.806 1.612H1.527l.806-1.612ZM3.5 6.917a1.167 1.167 0 0 1-2.333 0v-.584H3.5v.584Zm7.583 6.416H2.917a.584.584 0 0 1 .583-.583h7a.584.584 0 0 1 .583.583Zm-2.333-1.75h-3.5V11h3.5v.583ZM7 2.833a.583.583 0 1 1 0-1.166.583.583 0 0 1 0 1.166Zm5.473 2.334H10.86l.806-1.612.806 1.612Zm.36 1.75a1.167 1.167 0 1 1-2.333 0v-.584h2.333v.584Z"/></symbol><symbol id="burger-menu" viewBox="0 0 24 24"><path d="M4 18h16c.55 0 1-.45 1-1s-.45-1-1-1H4c-.55 0-1 .45-1 1s.45 1 1 1Zm0-5h16c.55 0 1-.45 1-1s-.45-1-1-1H4c-.55 0-1 .45-1 1s.45 1 1 1ZM3 7c0 .55.45 1 1 1h16c.55 0 1-.45 1-1s-.45-1-1-1H4c-.55 0-1 .45-1 1Z"/></symbol><symbol id="close-cross" viewBox="0 0 24 24" fill="none"><path d="M19 6.41 17.59 5 12 10.59 6.41 5 5 6.41 10.59 12 5 17.59 6.41 19 12 13.41 17.59 19 19 17.59 13.41 12 19 6.41Z" fill="#FCFEFF"/></symbol><symbol id="facebook-icon" viewBox="0 0 20 21" fill="none"><path fill-rule="evenodd" clip-rule="evenodd" d="M0 10.455c0-5.523 4.477-10 10-10s10 4.477 10 10-4.477 10-10 10-10-4.477-10-10Zm11.042 5.88v-5.44h1.502l.2-1.875h-1.702l.003-.939c0-.489.046-.75.749-.75h.938V5.454H11.23c-1.804 0-2.439.91-2.439 2.44V9.02H7.667v1.875H8.79v5.44h2.251Z" fill="#fff"/><path fill-rule="evenodd" clip-rule="evenodd" d="M0 10.455c0-5.523 4.477-10 10-10s10 4.477 10 10-4.477 10-10 10-10-4.477-10-10Zm11.042 5.88v-5.44h1.502l.2-1.875h-1.702l.003-.939c0-.489.046-.75.749-.75h.938V5.454H11.23c-1.804 0-2.439.91-2.439 2.44V9.02H7.667v1.875H8.79v5.44h2.251Z" fill="#fff"/></symbol><symbol id="instagram-icon" viewBox="0 0 20 21" fill="none"><path d="M10 .455c-2.715 0-3.056.012-4.123.06-1.064.05-1.79.218-2.427.465A4.897 4.897 0 0 0 1.68 2.133 4.909 4.909 0 0 0 .525 3.904C.277 4.54.108 5.267.06 6.332.013 7.398 0 7.739 0 10.455s.012 3.056.06 4.122c.05 1.065.218 1.792.465 2.428a4.9 4.9 0 0 0 1.153 1.77A4.896 4.896 0 0 0 3.45 19.93c.636.247 1.363.416 2.428.465 1.066.048 1.407.06 4.123.06s3.056-.012 4.122-.06c1.065-.05 1.792-.218 2.429-.465a4.892 4.892 0 0 0 1.77-1.154 4.909 4.909 0 0 0 1.154-1.771c.246-.636.415-1.363.465-2.427.047-1.067.06-1.407.06-4.123s-.012-3.057-.06-4.123c-.05-1.065-.22-1.792-.465-2.427a4.908 4.908 0 0 0-1.154-1.772A4.887 4.887 0 0 0 16.55.98c-.638-.247-1.365-.416-2.43-.465-1.066-.048-1.405-.06-4.122-.06H10Zm-.896 1.802H10c2.67 0 2.986.01 4.04.058.976.044 1.505.207 1.857.344.467.181.8.398 1.15.748.35.35.566.683.748 1.15.137.352.3.881.344 1.856.048 1.054.058 1.371.058 4.04 0 2.668-.01 2.985-.058 4.04-.044.974-.207 1.503-.344 1.856a3.091 3.091 0 0 1-.748 1.148c-.35.35-.683.567-1.15.748-.352.138-.881.3-1.856.345-1.055.048-1.371.058-4.041.058-2.67 0-2.987-.01-4.041-.058-.975-.045-1.504-.208-1.857-.345a3.098 3.098 0 0 1-1.15-.748 3.1 3.1 0 0 1-.748-1.15c-.137-.351-.3-.88-.345-1.856-.048-1.054-.057-1.37-.057-4.04 0-2.671.01-2.986.057-4.04.045-.975.208-1.504.345-1.857.18-.467.398-.8.748-1.15.35-.35.683-.567 1.15-.748.352-.138.882-.3 1.857-.345.922-.042 1.28-.054 3.144-.056v.002Z" fill="#fff"/><path d="M15.317 3.893a1.2 1.2 0 1 0 0 2.4 1.2 1.2 0 0 0 0-2.4Z" fill="#fff"/><path fill-rule="evenodd" clip-rule="evenodd" d="M9.98 5.295a5.136 5.136 0 1 0 0 10.271 5.136 5.136 0 0 0 0-10.27Zm.02 8.441a3.281 3.281 0 1 0 0-6.562 3.281 3.281 0 0 0 0 6.562Z" fill="#fff"/></symbol><symbol id="tik-tok-icon" viewBox="0 0 20 21" fill="none"><path fill-rule="evenodd" clip-rule="evenodd" d="M6.03 16.006c.395.21.837.318 1.284.318a2.77 2.77 0 0 0 2.764-2.665L10.084.455h3.294c0 .28.027.56.078.836h-2.412 3.295c0 1.106.4 2.173 1.127 3.005l.001.001a4.554 4.554 0 0 0 2.495.742v.734c.31.066.63.101.96.101V9.17a7.836 7.836 0 0 1-4.583-1.474v6.695a6.071 6.071 0 0 1-6.065 6.064 6.047 6.047 0 0 1-4.434-1.934H3.84a6.06 6.06 0 0 1-2.589-4.966A6.072 6.072 0 0 1 7.314 7.49c.274.002.547.022.818.06v.78c.019 0 .037 0 .056-.002l.086-.002c.274.002.547.022.818.06v3.364a2.72 2.72 0 0 0-.818-.129 2.773 2.773 0 0 0-2.769 2.77c0 .58.183 1.145.524 1.615Zm-3.42.549Z" fill="#fff"/></symbol><symbol id="telegram-icon" viewBox="0 0 20 21" fill="none"><path fill-rule="evenodd" clip-rule="evenodd" d="M20 10.455c0 5.523-4.477 10-10 10s-10-4.477-10-10 4.477-10 10-10 10 4.477 10 10ZM6.696 9.54c-1.001.437-2.03.887-2.972 1.405-.491.36.162.615.775.853.097.038.194.076.284.113l.23.073c.682.217 1.441.459 2.103.095 1.087-.625 2.113-1.346 3.138-2.068.335-.236.671-.472 1.009-.705l.053-.034c.288-.187.935-.606.696-.028-.566.619-1.173 1.166-1.782 1.717-.411.372-.823.744-1.226 1.141-.35.285-.714.858-.322 1.257.904.633 1.822 1.25 2.74 1.867l.895.603c.505.404 1.295.077 1.406-.553l.148-.87c.274-1.601.548-3.204.79-4.811.034-.252.07-.504.108-.756.09-.612.181-1.224.21-1.838-.073-.614-.817-.479-1.23-.34-2.128.809-4.234 1.678-6.332 2.563l-.72.316Z" fill="#fff"/></symbol><symbol id="icon-arrow-left" viewBox="0 0 32 32"><path fill="none" stroke="#ee8e18" style="stroke:var(--color1,#ee8e18)" d="M31.5 16c0 8.56-6.94 15.5-15.5 15.5S.5 24.56.5 16C.5 7.44 7.44.5 16 .5S31.5 7.44 31.5 16z"/><path fill="#ee8e18" style="fill:var(--color1,#ee8e18)" d="M21.2 16.353a.561.561 0 0 1-.56.56h-8.729l1.844 1.844c.053.052.096.113.126.182s.045.142.045.216a.559.559 0 0 1-.781.52.569.569 0 0 1-.182-.125l-2.8-2.8a.561.561 0 0 1 0-.792l2.8-2.8a.557.557 0 0 1 .785.007.558.558 0 0 1 .007.785l-1.844 1.844h8.729a.561.561 0 0 1 .56.56z"/></symbol><symbol id="icon-arrow-right" viewBox="0 0 32 32"><path fill="none" stroke="#ee8e18" style="stroke:var(--color1,#ee8e18)" d="M31.5 16c0 8.56-6.94 15.5-15.5 15.5S.5 24.56.5 16C.5 7.44 7.44.5 16 .5S31.5 7.44 31.5 16z"/><path fill="#ee8e18" style="fill:var(--color1,#ee8e18)" d="M10 16.353a.561.561 0 0 0 .56.56h8.729l-1.844 1.844c-.053.052-.096.113-.126.182s-.045.142-.045.216a.559.559 0 0 0 .781.52.569.569 0 0 0 .182-.125l2.8-2.8a.561.561 0 0 0 0-.792l-2.8-2.8a.557.557 0 0 0-.785.007.558.558 0 0 0-.007.785l1.844 1.844H10.56a.56.56 0 0 0-.56.56z"/></symbol><symbol id="quotes" viewBox="0 0 5 7" fill="none"><path d="M.707 6.364c.33-.315.636-.692.92-1.132.282-.44.455-.88.518-1.32-.613 0-1.124-.165-1.532-.494C.204 3.072 0 2.608 0 2.027 0 1.43.189.943.566.566.943.189 1.43 0 2.026 0c.598 0 1.077.196 1.439.59.377.392.565.887.565 1.484 0 .959-.243 1.893-.73 2.805C2.813 5.79 2.176 6.497 1.39 7l-.683-.636Z" fill="#000"/></symbol><symbol id="star" viewBox="0 0 21 20" fill="none"><path d="M9.976 3.845a.5.5 0 0 0-.475-.345H6.525L5.475.34a.502.502 0 0 0-.95 0L3.475 3.5H.499a.5.5 0 0 0-.295.905l2.386 1.75L1.524 9.34a.503.503 0 0 0 .18.565.511.511 0 0 0 .59 0L5 7.92l2.706 1.985A.484.484 0 0 0 8 10a.495.495 0 0 0 .477-.348.503.503 0 0 0-.002-.312l-.165-.485-.9-2.7 2.385-1.75a.506.506 0 0 0 .18-.56Z" fill="#E3AD5C"/><path d="M8.296 9.905A.494.494 0 0 1 8 10a.484.484 0 0 1-.295-.095L5 7.92 2.294 9.905a.511.511 0 0 1-.59 0 .503.503 0 0 1-.18-.565L2.59 6.155.204 4.405a.506.506 0 0 1-.18-.56.5.5 0 0 1 .475-.345h1.435a11.59 11.59 0 0 0 6.377 5.355l.165.485a.503.503 0 0 1-.18.565Z" fill="#EE8E18"/></symbol><symbol id="star-1" fill="none"><path d="M20.932 7.69a1 1 0 0 0-.95-.69h-5.95l-2.1-6.32a1.004 1.004 0 0 0-1.9 0L7.932 7h-5.95a1 1 0 0 0-.95 1.308c.065.2.191.376.36.502l4.77 3.5-2.13 6.37a1.006 1.006 0 0 0 .36 1.13 1.022 1.022 0 0 0 1.18 0l5.41-3.97 5.41 3.97c.17.126.378.193.59.19a.988.988 0 0 0 .59-.19 1.006 1.006 0 0 0 .36-1.13l-.33-.97-1.8-5.4 4.77-3.5a1.012 1.012 0 0 0 .36-1.12Z" fill="#E3AD5C"/><path d="M17.572 19.81a.988.988 0 0 1-.59.19.967.967 0 0 1-.59-.19l-5.41-3.97-5.41 3.97a1.022 1.022 0 0 1-1.18 0 1.006 1.006 0 0 1-.36-1.13l2.13-6.37-4.77-3.5a1.012 1.012 0 0 1-.36-1.12 1 1 0 0 1 .95-.69h2.87a23.178 23.178 0 0 0 12.75 10.71l.33.97a1.006 1.006 0 0 1-.36 1.13Z" fill="#EE8E18"/></symbol><symbol id="phone" viewBox="0 0 17 16"><path d="m15.894 10.424-3.2-.8a.802.802 0 0 0-.86.332l-2.048 3.072a13.666 13.666 0 0 1-6.314-6.314l3.072-2.048a.8.8 0 0 0 .332-.86l-.8-3.2A.8.8 0 0 0 5.3 0h-4a.8.8 0 0 0-.8.8A15.218 15.218 0 0 0 15.7 16a.8.8 0 0 0 .8-.8v-4a.8.8 0 0 0-.606-.776ZM5.187 3.647l-2.34 1.56A12.21 12.21 0 0 1 2.141 1.6h2.534l.512 2.047Zm7.666 7.666 2.047.512v2.535a12.034 12.034 0 0 1-3.607-.707l1.56-2.34Z"/></symbol><symbol id="icon-messenger" viewBox="0 0 34 32"><path style="fill:var(--color1,#000)" d="M16.532 0C7.521 0 .533 6.603.533 15.519c0 4.664 1.912 8.695 5.024 11.479.26.232.42.56.428.912l.088 2.848c.028.908.964 1.5 1.796 1.132l3.176-1.4c.268-.12.572-.14.856-.064 1.46.4 3.012.616 4.632.616 9.011 0 15.999-6.604 15.999-15.519S25.545 0 16.533 0z"/><path fill="#fffdfa" style="fill:var(--color2,#fffdfa)" d="m6.925 20.057 4.7-7.455a2.401 2.401 0 0 1 3.472-.64l3.74 2.804a.96.96 0 0 0 1.156-.004l5.048-3.832c.672-.512 1.552.296 1.104 1.012l-4.704 7.451a2.401 2.401 0 0 1-3.472.64l-3.74-2.804a.96.96 0 0 0-1.156.004l-5.048 3.832c-.672.512-1.552-.292-1.1-1.008z"/></symbol><symbol id="icon-telegram" viewBox="0 0 34 32"><path style="fill:var(--color1,#000)" d="M17.067 32c8.837 0 16-7.164 16-16s-7.163-16-16-16c-8.836 0-16 7.163-16 16s7.163 16 16 16z"/><path fill="#fffdfa" style="fill:var(--color2,#fffdfa)" d="M7.026 16.784c1.87-1.03 3.958-1.89 5.909-2.754 3.356-1.416 6.726-2.807 10.129-4.102.662-.221 1.852-.436 1.969.545-.064 1.389-.327 2.77-.507 4.151-.458 3.037-.986 6.063-1.502 9.09-.178 1.008-1.441 1.53-2.249.885-1.942-1.312-3.899-2.611-5.816-3.953-.628-.638-.046-1.555.515-2.01 1.6-1.576 3.296-2.916 4.812-4.574.409-.988-.799-.155-1.198.1-2.19 1.509-4.326 3.11-6.635 4.437-1.179.649-2.554.094-3.733-.268-1.057-.438-2.606-.878-1.694-1.546z"/></symbol><symbol id="icon-viber" viewBox="0 0 32 32"><path d="M16 0c8.836 0 16 7.163 16 16s-7.164 16-16 16C7.163 32 0 24.836 0 16S7.163 0 16 0zm4.263 13.972c-.078-.632-.272-1.129-.617-1.568-.448-.566-1.021-.905-1.868-1.106-.552-.134-.776-.119-.976.064-.186.171-.222.514-.08.736.1.161.215.219.536.282.427.079.723.181.992.334.57.329.836.845.864 1.679.013.392.047.512.184.651a.588.588 0 0 0 .896-.099c.07-.115.081-.164.088-.43a4.21 4.21 0 0 0-.019-.541zm.007-3.879c1.356 1.096 2.113 2.655 2.226 4.592.047.763-.016 1.011-.285 1.153a.575.575 0 0 1-.707-.109c-.125-.128-.173-.304-.171-.615.006-.86-.192-1.82-.515-2.486a4.81 4.81 0 0 0-1.674-1.918c-.635-.424-1.475-.71-2.29-.781-.528-.046-.717-.136-.819-.389-.063-.152-.046-.414.028-.531a.718.718 0 0 1 .336-.259c.117-.034.8.026 1.171.099a6.278 6.278 0 0 1 2.7 1.246zm4.698 12.051a2.17 2.17 0 0 0-.189-.38c-.398-.601-2.536-2.274-3.603-2.821-.609-.313-1.061-.417-1.396-.319-.36.101-.55.269-1.153 1.018-.243.3-.493.582-.559.626-.164.114-.486.206-.714.206-.527-.003-1.484-.345-2.22-.794-.572-.348-1.304-.971-1.866-1.588-.663-.724-1.115-1.363-1.472-2.084-.461-.927-.578-1.493-.385-1.907.047-.104.111-.215.139-.25.028-.032.325-.275.654-.541.644-.512.748-.629.868-.98.152-.446.111-.901-.123-1.36a18.68 18.68 0 0 0-.992-1.597c-.452-.645-1.576-2.024-1.8-2.211-.404-.329-.922-.386-1.494-.164-.603.234-1.734 1.145-2.217 1.781-.436.576-.603.984-.628 1.521-.022.443.016.626.249 1.192 1.828 4.44 4.557 7.986 8.305 10.8 1.958 1.471 3.988 2.59 6.095 3.355 1.228.446 1.762.468 2.39.101.265-.158.922-.832 1.288-1.322.606-.816.831-1.192.894-1.493.044-.206.009-.563-.073-.791zm-.807-10.01a8.803 8.803 0 0 1 .609 2.996c.007.216.004.613-.011.882-.029.515-.057.617-.205.754-.238.224-.703.17-.879-.099-.092-.144-.105-.25-.087-.852.051-1.78-.309-3.173-1.176-4.566-1.036-1.672-2.586-2.798-4.601-3.349-.514-.14-.947-.226-1.621-.316-.439-.057-.535-.082-.643-.148-.327-.21-.332-.74-.005-.953.168-.112.292-.117.841-.047 1.609.201 3.044.679 4.223 1.401.845.518 1.378.984 2.065 1.8.726.87 1.11 1.513 1.49 2.499z"/></symbol><symbol id="icon-whatsapp" viewBox="0 0 32 32"><path d="m3.851 23.16-2.114 7.719 7.9-2.071a14.893 14.893 0 0 0 7.121 1.814h.006c8.213 0 14.898-6.684 14.902-14.897.001-3.981-1.548-7.724-4.361-10.539S20.75.819 16.764.817C8.55.817 1.865 7.5 1.862 15.713a14.874 14.874 0 0 0 1.989 7.448zm.527-7.447C4.381 8.886 9.937 3.332 16.769 3.332c3.308.001 6.418 1.291 8.757 3.631s3.625 5.451 3.624 8.76c-.003 6.827-5.559 12.382-12.386 12.382h-.005a12.37 12.37 0 0 1-6.304-1.726l-.453-.268-4.688 1.229 1.252-4.569-.295-.468a12.35 12.35 0 0 1-1.893-6.59z"/><path d="M13.04 9.485c-.279-.62-.573-.632-.838-.643-.217-.009-.466-.009-.714-.009s-.652.093-.993.466c-.341.373-1.303 1.273-1.303 3.105s1.334 3.602 1.52 3.851c.186.248 2.576 4.128 6.361 5.62 3.145 1.24 3.785.994 4.468.932s2.203-.901 2.513-1.77c.31-.869.31-1.614.217-1.77s-.341-.248-.714-.435c-.372-.186-2.203-1.087-2.544-1.211s-.59-.186-.838.187c-.248.372-.961 1.211-1.179 1.459s-.434.28-.807.093c-.372-.187-1.572-.579-2.994-1.848-1.107-.987-1.854-2.206-2.072-2.578s-.023-.574.164-.76c.167-.167.372-.435.559-.652s.248-.373.372-.621c.124-.249.062-.466-.031-.652s-.817-2.028-1.148-2.764z"/></symbol><symbol id="envelope" viewBox="0 0 17 13"><path d="M15.773.318H1.227a.727.727 0 0 0-.727.728v10.909a.727.727 0 0 0 .727.727h14.546a.727.727 0 0 0 .727-.727V1.045a.727.727 0 0 0-.727-.727Zm-.727 10.91H1.955V1.772h13.09v9.454Z" fill="#262525"/><path d="m3.048 4.585 5.091 2.91a.727.727 0 0 0 .722 0l5.09-2.91a.727.727 0 0 0-.72-1.263L8.5 6.025 3.77 3.322a.727.727 0 1 0-.722 1.263Z" fill="#262525"/></symbol><symbol id="bank" viewBox="0 0 16 18"><path d="M15.273 8A.727.727 0 0 0 16 7.273v-2.91a.727.727 0 0 0-.402-.65L8.325.077a.728.728 0 0 0-.65 0L.402 3.713a.727.727 0 0 0-.402.65v2.91A.727.727 0 0 0 .727 8h1.455v5.09H.727a.727.727 0 0 0-.727.728v2.91a.727.727 0 0 0 .727.727h14.546a.727.727 0 0 0 .727-.728v-2.909a.727.727 0 0 0-.727-.727h-1.455V8h1.455ZM1.455 4.813 8 1.541l6.546 3.272v1.732H1.455V4.813Zm5.09 8.278V8h2.91v5.09h-2.91ZM3.636 8h1.455v5.09H3.636V8Zm10.91 8H1.455v-1.454h13.09V16Zm-2.182-2.91h-1.455V8h1.455v5.09Z" fill="#262525"/></symbol><symbol id="circle-yes" viewBox="0 0 24 24"><path d="M12 24c6.627 0 12-5.373 12-12S18.627 0 12 0 0 5.373 0 12s5.373 12 12 12Z" fill="#FFF4E6"/><path d="M21.156 19.752a11.997 11.997 0 1 1-17.7-16.176c3.097 5.7 8.593 12.792 17.7 16.176Z" fill="#E2CEB7"/><path d="M16.8 10.092c-5.062 5.076-4.152 4.164-5.148 5.16a1.217 1.217 0 0 1-1.703 0L7.2 12.492 8.893 10.8l1.907 1.908L15.108 8.4l1.692 1.692Z" fill="#FAAC39"/><path d="m12.313 14.591-.66.66a1.217 1.217 0 0 1-1.704 0L7.2 12.491l1.452-1.452a32.163 32.163 0 0 0 3.66 3.552Z" fill="#B4721D"/><path d="m12.313 14.591-.66.66a1.217 1.217 0 0 1-1.704 0L7.2 12.491l1.452-1.452a32.163 32.163 0 0 0 3.66 3.552Z" fill-opacity=".2"/></symbol><symbol id="icon-Facebook-modal" viewBox="0 0 34 32"><path fill="#b4721d" style="fill:var(--color1,#b4721d)" d="M.8 16c0-8.837 7.163-16 16-16s16 7.163 16 16c0 8.836-7.164 16-16 16S.8 24.836.8 16zm17.668 9.408v-8.705h2.403l.319-3h-2.721l.004-1.501c0-.782.074-1.202 1.198-1.202h1.502V8H18.77c-2.887 0-3.903 1.455-3.903 3.902v1.801h-1.799v3h1.799v8.704h3.602z"/><path style="fill:var(--color2,#000)" opacity=".2" d="M.8 16c0-8.837 7.163-16 16-16s16 7.163 16 16c0 8.836-7.164 16-16 16S.8 24.836.8 16zm17.668 9.408v-8.705h2.403l.319-3h-2.721l.004-1.501c0-.782.074-1.202 1.198-1.202h1.502V8H18.77c-2.887 0-3.903 1.455-3.903 3.902v1.801h-1.799v3h1.799v8.704h3.602z"/></symbol><symbol id="icon-Instagram-modal" viewBox="0 0 32 32"><path fill="#b4721d" style="fill:var(--color1,#b4721d)" d="M16.001 0c-4.345 0-4.891.019-6.597.097C7.701.175 6.538.445 5.521.84c-1.052.409-1.945.955-2.834 1.845S1.25 4.467.84 5.519C.443 6.537.173 7.7.097 9.402.021 11.109.001 11.654.001 16s.019 4.889.097 6.596c.078 1.703.348 2.866.743 3.883.409 1.052.956 1.945 1.845 2.834s1.782 1.438 2.833 1.847c1.018.396 2.181.665 3.884.743C11.11 31.981 11.655 32 16 32s4.889-.019 6.596-.097c1.703-.078 2.867-.348 3.885-.743a7.832 7.832 0 0 0 2.832-1.847 7.853 7.853 0 0 0 1.847-2.834c.393-1.018.663-2.181.743-3.883C31.98 20.889 32 20.345 32 16s-.02-4.891-.097-6.597c-.08-1.703-.35-2.866-.743-3.883-.41-1.052-.957-1.945-1.847-2.834S27.533 1.249 26.48.841C25.46.445 24.297.176 22.593.098 20.886.02 20.343.001 15.996.001h.005zm-1.435 2.883h1.435c4.272 0 4.778.015 6.465.092 1.56.071 2.407.332 2.971.551.747.29 1.279.637 1.839 1.197s.907 1.093 1.197 1.84c.219.563.48 1.41.551 2.97.077 1.687.093 2.193.093 6.463s-.017 4.777-.093 6.463c-.071 1.56-.332 2.407-.551 2.97-.29.747-.637 1.278-1.197 1.838s-1.092.907-1.839 1.197c-.563.22-1.411.48-2.971.551-1.687.077-2.193.093-6.465.093s-4.779-.017-6.465-.093c-1.56-.072-2.407-.333-2.971-.552-.747-.29-1.28-.637-1.84-1.197s-.907-1.092-1.197-1.839c-.219-.563-.48-1.41-.551-2.97-.077-1.687-.092-2.193-.092-6.466s.015-4.777.092-6.463c.071-1.56.332-2.407.551-2.971.29-.747.637-1.28 1.197-1.84s1.093-.907 1.84-1.197c.564-.22 1.411-.48 2.971-.552 1.476-.067 2.048-.087 5.03-.09v.004z"/><path style="fill:var(--color2,#000)" opacity=".2" d="M16.001 0c-4.345 0-4.891.019-6.597.097C7.701.175 6.538.445 5.521.84c-1.052.409-1.945.955-2.834 1.845S1.25 4.467.84 5.519C.443 6.537.173 7.7.097 9.402.021 11.109.001 11.654.001 16s.019 4.889.097 6.596c.078 1.703.348 2.866.743 3.883.409 1.052.956 1.945 1.845 2.834s1.782 1.438 2.833 1.847c1.018.396 2.181.665 3.884.743C11.11 31.981 11.655 32 16 32s4.889-.019 6.596-.097c1.703-.078 2.867-.348 3.885-.743a7.832 7.832 0 0 0 2.832-1.847 7.853 7.853 0 0 0 1.847-2.834c.393-1.018.663-2.181.743-3.883C31.98 20.889 32 20.345 32 16s-.02-4.891-.097-6.597c-.08-1.703-.35-2.866-.743-3.883-.41-1.052-.957-1.945-1.847-2.834S27.533 1.249 26.48.841C25.46.445 24.297.176 22.593.098 20.886.02 20.343.001 15.996.001h.005zm-1.435 2.883h1.435c4.272 0 4.778.015 6.465.092 1.56.071 2.407.332 2.971.551.747.29 1.279.637 1.839 1.197s.907 1.093 1.197 1.84c.219.563.48 1.41.551 2.97.077 1.687.093 2.193.093 6.463s-.017 4.777-.093 6.463c-.071 1.56-.332 2.407-.551 2.97-.29.747-.637 1.278-1.197 1.838s-1.092.907-1.839 1.197c-.563.22-1.411.48-2.971.551-1.687.077-2.193.093-6.465.093s-4.779-.017-6.465-.093c-1.56-.072-2.407-.333-2.971-.552-.747-.29-1.28-.637-1.84-1.197s-.907-1.092-1.197-1.839c-.219-.563-.48-1.41-.551-2.97-.077-1.687-.092-2.193-.092-6.466s.015-4.777.092-6.463c.071-1.56.332-2.407.551-2.971.29-.747.637-1.28 1.197-1.84s1.093-.907 1.84-1.197c.564-.22 1.411-.48 2.971-.552 1.476-.067 2.048-.087 5.03-.09v.004z"/><path fill="#b4721d" style="fill:var(--color1,#b4721d)" d="M24.508 5.501a1.921 1.921 0 0 0-.374 3.803c.372.074.759.036 1.109-.11s.651-.392.862-.707a1.92 1.92 0 0 0-1.597-2.986z"/><path style="fill:var(--color2,#000)" opacity=".2" d="M24.508 5.501a1.921 1.921 0 0 0-.374 3.803c.372.074.759.036 1.109-.11s.651-.392.862-.707a1.92 1.92 0 0 0-1.597-2.986z"/><path fill="#b4721d" style="fill:var(--color1,#b4721d)" d="M15.967 7.744a8.216 8.216 0 0 1 0 16.432 8.217 8.217 0 0 1 0-16.432zM16 21.25a5.25 5.25 0 1 0 0-10.5 5.25 5.25 0 0 0 0 10.5z"/><path style="fill:var(--color2,#000)" opacity=".2" d="M15.967 7.744a8.216 8.216 0 0 1 0 16.432 8.217 8.217 0 0 1 0-16.432zM16 21.25a5.25 5.25 0 1 0 0-10.5 5.25 5.25 0 0 0 0 10.5z"/></symbol><symbol id="icon-Messenger-modal" viewBox="0 0 32 32"><path style="fill:var(--color2,#000)" d="M15.999 0C6.988 0 0 6.603 0 15.519c0 4.664 1.912 8.695 5.024 11.479.26.232.42.56.428.912l.088 2.848c.028.908.964 1.5 1.796 1.132l3.176-1.4c.268-.12.572-.14.856-.064 1.46.4 3.012.616 4.632.616 9.011 0 15.999-6.604 15.999-15.519S25.012 0 16 0z"/><path fill="#fff" style="fill:var(--color3,#fff)" d="m6.392 20.057 4.7-7.455a2.401 2.401 0 0 1 3.472-.64l3.74 2.804a.96.96 0 0 0 1.156-.004l5.048-3.832c.672-.512 1.552.296 1.104 1.012l-4.704 7.451a2.401 2.401 0 0 1-3.472.64l-3.74-2.804a.96.96 0 0 0-1.156.004l-5.048 3.832c-.672.512-1.552-.292-1.1-1.008z"/></symbol><symbol id="icon-Telegram-modal" viewBox="0 0 32 32"><path style="fill:var(--color2,#000)" d="M16 32c8.836 0 16-7.164 16-16S24.836 0 16 0C7.163 0 0 7.163 0 16s7.163 16 16 16z"/><path fill="#fff" style="fill:var(--color3,#fff)" d="M5.959 16.784c1.87-1.03 3.958-1.89 5.909-2.754 3.356-1.416 6.726-2.807 10.129-4.102.662-.221 1.852-.436 1.969.545-.064 1.389-.327 2.77-.507 4.151-.458 3.037-.986 6.063-1.502 9.09-.178 1.008-1.441 1.53-2.249.885-1.942-1.312-3.899-2.611-5.817-3.953-.628-.638-.046-1.555.515-2.01 1.6-1.576 3.296-2.916 4.812-4.574.409-.988-.799-.155-1.198.1-2.19 1.509-4.326 3.11-6.635 4.437-1.179.649-2.554.094-3.733-.268-1.057-.438-2.606-.878-1.694-1.546z"/></symbol><symbol id="icon-Tik-Tok-modal" viewBox="0 0 34 32"><path fill="#b4721d" style="fill:var(--color1,#b4721d)" d="M10.447 24.882a4.41 4.41 0 0 0 2.056.509 4.432 4.432 0 0 0 4.422-4.264L16.934 0h5.271c0 .449.042.896.124 1.338l1.412.001a7.298 7.298 0 0 0 1.804 4.808l.002.002a7.284 7.284 0 0 0 3.992 1.186v1.174a7.34 7.34 0 0 0 1.537.163v5.272a12.538 12.538 0 0 1-7.334-2.358v10.713c0 5.349-4.353 9.702-9.703 9.702-1.332 0-2.65-.275-3.872-.807s-2.318-1.311-3.223-2.287l-.002-.001A9.697 9.697 0 0 1 2.8 20.962c0-5.35 4.353-9.704 9.703-9.704.438.002.874.034 1.308.095v1.248l.091-.003c.046-.002.091-.003.138-.003.437.002.874.034 1.307.095v5.382a4.343 4.343 0 0 0-1.307-.205 4.435 4.435 0 0 0-4.431 4.432c0 .928.293 1.832.838 2.584l.001.001zm-5.471.878z"/><path style="fill:var(--color2,#000)" opacity=".2" d="M10.447 24.882a4.41 4.41 0 0 0 2.056.509 4.432 4.432 0 0 0 4.422-4.264L16.934 0h5.271c0 .449.042.896.124 1.338l1.412.001a7.298 7.298 0 0 0 1.804 4.808l.002.002a7.284 7.284 0 0 0 3.992 1.186v1.174a7.34 7.34 0 0 0 1.537.163v5.272a12.538 12.538 0 0 1-7.334-2.358v10.713c0 5.349-4.353 9.702-9.703 9.702-1.332 0-2.65-.275-3.872-.807s-2.318-1.311-3.223-2.287l-.002-.001A9.697 9.697 0 0 1 2.8 20.962c0-5.35 4.353-9.704 9.703-9.704.438.002.874.034 1.308.095v1.248l.091-.003c.046-.002.091-.003.138-.003.437.002.874.034 1.307.095v5.382a4.343 4.343 0 0 0-1.307-.205 4.435 4.435 0 0 0-4.431 4.432c0 .928.293 1.832.838 2.584l.001.001zm-5.471.878z"/></symbol><symbol id="icon-Viber-modal" viewBox="0 0 32 32"><path style="fill:var(--color2,#000)" d="M16 0c8.836 0 16 7.163 16 16s-7.164 16-16 16C7.163 32 0 24.836 0 16S7.163 0 16 0z"/><path fill="#fff" style="fill:var(--color3,#fff)" d="M16.495 12.634a.284.284 0 0 1 .299-.269c.587.031 1.076.208 1.424.568.347.358.516.859.546 1.46a.284.284 0 1 1-.568.028c-.026-.515-.167-.865-.387-1.093-.219-.226-.553-.37-1.044-.395a.284.284 0 0 1-.269-.299z"/><path fill="#fff" style="fill:var(--color3,#fff)" d="M16.368 10.838a.285.285 0 0 0-.041.568c1.084.079 1.897.442 2.479 1.077.584.638.87 1.433.849 2.408a.285.285 0 0 0 .569.013c.024-1.105-.305-2.047-.999-2.804-.701-.765-1.663-1.173-2.858-1.261z"/><path fill="#fff" style="fill:var(--color3,#fff)" d="M15.562 9.643a.285.285 0 0 1 .287-.283c1.651.011 3.047.561 4.168 1.654 1.13 1.102 1.689 2.602 1.703 4.464a.285.285 0 0 1-.569.005c-.013-1.746-.533-3.087-1.531-4.061-1.008-.983-2.26-1.482-3.775-1.492a.285.285 0 0 1-.283-.287zM17.451 17.987c-.215.265-.615.232-.615.232-2.924-.746-3.706-3.708-3.706-3.708s-.035-.4.232-.615l.528-.42c.262-.202.429-.692.162-1.17a12.465 12.465 0 0 0-.666-1.044 28.535 28.535 0 0 0-.776-.97c-.261-.308-.645-.38-1.05-.169l-.005.001-.004.001a4.359 4.359 0 0 0-1.076.874l-.003.004-.003.004c-.25.302-.393.598-.43.888-.008.043-.01.086-.008.13-.001.128.018.256.058.377l.014.009c.126.448.442 1.195 1.129 2.44.393.72.846 1.406 1.354 2.049.255.323.528.631.818.922l.01.01.021.021.093.093c.291.29.599.563.922.818.644.508 1.329.961 2.05 1.354 1.244.687 1.992 1.003 2.44 1.129l.009.014a1.178 1.178 0 0 0 .507.05c.29-.034.586-.177.887-.429l.008-.006c.347-.31.642-.673.874-1.076l.001-.003.001-.005c.211-.405.14-.789-.17-1.051l-.068-.056a27.148 27.148 0 0 0-.902-.72 12.214 12.214 0 0 0-1.044-.666c-.479-.267-.967-.1-1.17.162l-.42.528z"/><path fill="#fff" style="fill:var(--color3,#fff)" d="M24.258 7.528c-.559-.516-2.818-2.156-7.849-2.178 0 0-5.934-.358-8.826 2.295-1.61 1.611-2.177 3.967-2.236 6.889s-.137 8.397 5.141 9.881h.005l-.003 2.265s-.034.917.57 1.104c.61.189 1.009-.265 1.53-.857.103-.117.211-.24.327-.365.383-.412.911-1.018 1.31-1.481 3.609.304 6.386-.391 6.701-.493.065-.021.157-.044.271-.074 1.166-.296 4.641-1.18 5.252-6.166.692-5.643-.335-9.212-2.191-10.821zm.612 10.417c-.51 4.116-3.272 4.759-4.268 4.99-.11.026-.198.046-.26.066-.262.084-2.7.691-5.766.491 0 0-2.285 2.756-2.998 3.473-.111.112-.242.157-.33.135-.123-.03-.157-.176-.155-.388l.02-3.764c-4.317-1.199-4.216-5.595-4.159-8.091l.006-.249c.051-2.44.509-4.439 1.871-5.784 2.447-2.216 7.487-1.885 7.487-1.885 4.256.019 6.296 1.3 6.769 1.73 1.57 1.345 2.37 4.562 1.785 9.275v.001z"/></symbol><symbol id="icon-WhatsApp-modal" viewBox="0 0 34 32"><path d="m5.066 22.444-1.903 6.948 7.11-1.864a13.41 13.41 0 0 0 6.409 1.632h.006c7.392 0 13.409-6.015 13.412-13.407.001-3.583-1.393-6.951-3.925-9.486s-5.9-3.93-9.487-3.932c-7.393 0-13.409 6.014-13.412 13.407a13.387 13.387 0 0 0 1.79 6.703zm.474-6.702c.002-6.144 5.003-11.143 11.152-11.143 2.978.001 5.776 1.162 7.881 3.268s3.263 4.906 3.262 7.884c-.003 6.145-5.003 11.144-11.147 11.144h-.004a11.13 11.13 0 0 1-5.674-1.554l-.407-.241-4.219 1.106 1.126-4.112-.265-.421a11.112 11.112 0 0 1-1.704-5.931z"/><path d="M13.336 10.136c-.251-.558-.515-.569-.754-.579-.195-.008-.419-.008-.642-.008s-.587.084-.893.419c-.307.335-1.173 1.146-1.173 2.795s1.201 3.242 1.368 3.466c.168.224 2.318 3.715 5.725 5.058 2.831 1.116 3.407.894 4.021.838s1.983-.811 2.262-1.593c.279-.782.279-1.453.196-1.593s-.307-.224-.643-.391c-.335-.168-1.983-.978-2.29-1.09s-.531-.168-.754.168c-.223.335-.865 1.09-1.061 1.313s-.391.252-.726.084c-.335-.168-1.414-.521-2.695-1.663-.996-.888-1.669-1.985-1.864-2.32s-.021-.517.147-.684c.15-.15.335-.391.503-.587s.223-.335.335-.559c.112-.224.056-.419-.028-.587s-.735-1.825-1.033-2.488z"/></symbol><symbol id="icon-Phone-modal" viewBox="0 0 32 32"><path fill="#fffdfa" style="fill:var(--color1,#fffdfa)" d="m28.495 20.095-6.667-2.667a1.344 1.344 0 0 0-1.52.385l-2.714 3.256a20.037 20.037 0 0 1-6.665-6.665l3.257-2.714a1.335 1.335 0 0 0 .386-1.519l-2.667-6.667a1.328 1.328 0 0 0-1.239-.838H1.333A1.33 1.33 0 0 0 0 3.999c.009 7.423 2.961 14.54 8.21 19.79s12.366 8.202 19.79 8.21a1.33 1.33 0 0 0 1.333-1.333v-9.333a1.33 1.33 0 0 0-.839-1.239zm-1.828 9.203A25.375 25.375 0 0 1 2.702 5.333h7.062l1.971 4.928-3.374 2.811a1.337 1.337 0 0 0-.321 1.659 22.744 22.744 0 0 0 9.227 9.227 1.333 1.333 0 0 0 1.659-.321l2.811-3.374 4.928 1.971v7.062z"/><path fill="#fffdfa" style="fill:var(--color1,#fffdfa)" d="M18.667 10.667a2.671 2.671 0 0 1 2.667 2.667 1.335 1.335 0 0 0 2.277.943c.25-.25.391-.589.391-.943A5.338 5.338 0 0 0 18.668 8a1.335 1.335 0 0 0-.943 2.277c.25.25.589.391.943.391z"/><path fill="#fffdfa" style="fill:var(--color1,#fffdfa)" d="M18.667 6.667a6.675 6.675 0 0 1 6.667 6.667 1.335 1.335 0 0 0 2.277.943c.25-.25.391-.589.391-.943a9.342 9.342 0 0 0-9.333-9.333 1.335 1.335 0 0 0-.943 2.277c.25.25.589.391.943.391z"/><path fill="#fffdfa" style="fill:var(--color1,#fffdfa)" d="M18.667 0a1.335 1.335 0 0 0-.943 2.277c.25.25.589.391.943.391a10.678 10.678 0 0 1 10.667 10.667 1.335 1.335 0 0 0 2.277.943c.25-.25.391-.589.391-.943A13.349 13.349 0 0 0 18.669.001z"/></symbol><symbol id="icon-Info" viewBox="0 0 32 32"><path fill="#fff4e6" style="fill:var(--color1,#fff4e6)" d="M16 31.999c8.836 0 16-7.163 16-15.999S24.837.001 16 .001C7.164.001.001 7.164.001 16S7.164 31.999 16 31.999z"/><path fill="#e2ceb7" style="fill:var(--color2,#e2ceb7)" d="M28.208 26.336a15.994 15.994 0 0 1-17.519 4.758A15.998 15.998 0 0 1 1.12 10.125 16.007 16.007 0 0 1 4.609 4.77c4.128 7.6 11.456 17.055 23.599 21.567z"/><path fill="#faac39" style="fill:var(--color3,#faac39)" d="M17.601 12.8h-3.2V24h3.2V12.8zM17.601 8h-3.2v3.2h3.2V8z"/><path fill="#b4721d" style="fill:var(--color4,#b4721d)" d="M17.601 20.398v3.6h-3.2v-6.336a35.635 35.635 0 0 0 3.2 2.736z"/><path style="fill:var(--color5,#000)" opacity=".2" d="M17.601 20.398v3.6h-3.2v-6.336a35.635 35.635 0 0 0 3.2 2.736z"/></symbol></defs></svg>