<svg width="21" height="20" viewBox="0 0 21 20" fill="none" xmlns="http://www.w3.org/2000/svg">
<path fill-rule="evenodd" clip-rule="evenodd" d="M0.5 10C0.5 4.47715 4.97715 0 10.5 0C16.0228 0 20.5 4.47715 20.5 10C20.5 15.5228 16.0228 20 10.5 20C4.97715 20 0.5 15.5228 0.5 10ZM11.5423 15.8798V10.4393H13.0441L13.2432 8.56442H11.5423L11.5449 7.62604C11.5449 7.13706 11.5913 6.87505 12.2937 6.87505H13.2325V5H11.7305C9.92631 5 9.29128 5.9095 9.29128 7.43899V8.56463H8.16667V10.4395H9.29128V15.8798H11.5423Z" fill="#B4721D"/>
<path fill-rule="evenodd" clip-rule="evenodd" d="M0.5 10C0.5 4.47715 4.97715 0 10.5 0C16.0228 0 20.5 4.47715 20.5 10C20.5 15.5228 16.0228 20 10.5 20C4.97715 20 0.5 15.5228 0.5 10ZM11.5423 15.8798V10.4393H13.0441L13.2432 8.56442H11.5423L11.5449 7.62604C11.5449 7.13706 11.5913 6.87505 12.2937 6.87505H13.2325V5H11.7305C9.92631 5 9.29128 5.9095 9.29128 7.43899V8.56463H8.16667V10.4395H9.29128V15.8798H11.5423Z" fill="black" fill-opacity="0.2"/>
</svg>
