<svg width="20" height="20" viewBox="0 0 20 20" fill="none" xmlns="http://www.w3.org/2000/svg">
<path d="M10.0003 19.9992C15.523 19.9992 20 15.5222 20 9.99961C20 4.47698 15.523 0 10.0003 0C4.47771 0 0.000732422 4.47698 0.000732422 9.99961C0.000732422 15.5222 4.47771 19.9992 10.0003 19.9992Z" fill="#FFF4E6"/>
<path d="M17.6301 16.4599C16.7613 17.4868 15.6942 18.3277 14.4927 18.9324C13.2912 19.5372 11.9801 19.8932 10.6378 19.9793C9.29548 20.0654 7.94959 19.8798 6.68071 19.4335C5.41183 18.9873 4.24605 18.2895 3.25315 17.3821C2.26026 16.4747 1.46068 15.3763 0.902271 14.1526C0.343865 12.9289 0.0381207 11.6052 0.00334268 10.2605C-0.0314353 8.91592 0.205468 7.5781 0.69987 6.32719C1.19427 5.07628 1.936 3.93799 2.88066 2.98047C5.46056 7.73028 10.0404 13.6401 17.6301 16.4599Z" fill="#E2CEB7"/>
<path d="M11.0004 8H9.00049V14.9997H11.0004V8Z" fill="#FAAC39"/>
<path d="M11.0004 5H9.00049V6.99992H11.0004V5Z" fill="#FAAC39"/>
<path d="M11.0004 12.749V14.9989H9.00049V11.0391C9.63272 11.6481 10.3005 12.2191 11.0004 12.749Z" fill="#B4721D"/>
<path d="M11.0004 12.749V14.9989H9.00049V11.0391C9.63272 11.6481 10.3005 12.2191 11.0004 12.749Z" fill="black" fill-opacity="0.2"/>
</svg>
