<svg width="20" height="20" viewBox="0 0 20 20" fill="none" xmlns="http://www.w3.org/2000/svg">
<path d="M10.0007 0C7.28487 0 6.94403 0.0118752 5.87735 0.0604169C4.81276 0.109167 4.08608 0.277708 3.45024 0.525C2.79253 0.780417 2.23461 1.12208 1.67877 1.67813C1.12251 2.23396 0.780841 2.79187 0.524589 3.44937C0.276669 4.08542 0.107918 4.81229 0.0600007 5.87646C0.0125002 6.94313 0 7.28417 0 10C0 12.7158 0.0120836 13.0556 0.0604175 14.1223C0.109376 15.1869 0.27792 15.9135 0.525006 16.5494C0.780633 17.2071 1.1223 17.765 1.67835 18.3208C2.23398 18.8771 2.7919 19.2196 3.4492 19.475C4.08546 19.7223 4.81234 19.8908 5.87673 19.9396C6.94341 19.9881 7.28403 20 9.99969 20C12.7158 20 13.0556 19.9881 14.1222 19.9396C15.1868 19.8908 15.9143 19.7223 16.5506 19.475C17.2081 19.2196 17.7652 18.8771 18.3208 18.3208C18.8771 17.765 19.2187 17.2071 19.475 16.5496C19.7208 15.9135 19.8896 15.1867 19.9396 14.1225C19.9875 13.0558 20 12.7158 20 10C20 7.28417 19.9875 6.94333 19.9396 5.87667C19.8896 4.81208 19.7208 4.08542 19.475 3.44958C19.2187 2.79187 18.8771 2.23396 18.3208 1.67813C17.7646 1.12188 17.2083 0.780208 16.55 0.525C15.9125 0.277708 15.1854 0.109167 14.1208 0.0604169C13.0541 0.0118752 12.7145 0 9.99781 0H10.0007ZM9.10364 1.80208C9.36989 1.80167 9.66698 1.80208 10.0007 1.80208C12.6708 1.80208 12.9872 1.81167 14.0416 1.85958C15.0166 1.90417 15.5458 2.06708 15.8983 2.20396C16.365 2.38521 16.6977 2.60188 17.0475 2.95188C17.3975 3.30188 17.6141 3.63521 17.7958 4.10188C17.9327 4.45396 18.0958 4.98312 18.1402 5.95812C18.1881 7.01229 18.1985 7.32896 18.1985 9.99771C18.1985 12.6665 18.1881 12.9831 18.1402 14.0373C18.0956 15.0123 17.9327 15.5415 17.7958 15.8935C17.6146 16.3602 17.3975 16.6925 17.0475 17.0423C16.6975 17.3923 16.3652 17.609 15.8983 17.7902C15.5462 17.9277 15.0166 18.0902 14.0416 18.1348C12.9874 18.1827 12.6708 18.1931 10.0007 18.1931C7.33049 18.1931 7.01403 18.1827 5.95985 18.1348C4.98484 18.0898 4.45567 17.9269 4.10296 17.79C3.63629 17.6087 3.30295 17.3921 2.95295 17.0421C2.60294 16.6921 2.38628 16.3596 2.20461 15.8927C2.06773 15.5406 1.9046 15.0115 1.86023 14.0365C1.81231 12.9823 1.80273 12.6656 1.80273 9.99521C1.80273 7.32479 1.81231 7.00979 1.86023 5.95563C1.90481 4.98063 2.06773 4.45146 2.20461 4.09896C2.38586 3.63229 2.60294 3.29896 2.95295 2.94896C3.30295 2.59896 3.63629 2.38229 4.10296 2.20062C4.45546 2.06312 4.98484 1.90063 5.95985 1.85583C6.88236 1.81417 7.23987 1.80167 9.10364 1.79958V1.80208Z" fill="#B4721D"/>
<path d="M10.0007 0C7.28487 0 6.94403 0.0118752 5.87735 0.0604169C4.81276 0.109167 4.08608 0.277708 3.45024 0.525C2.79253 0.780417 2.23461 1.12208 1.67877 1.67813C1.12251 2.23396 0.780841 2.79187 0.524589 3.44937C0.276669 4.08542 0.107918 4.81229 0.0600007 5.87646C0.0125002 6.94313 0 7.28417 0 10C0 12.7158 0.0120836 13.0556 0.0604175 14.1223C0.109376 15.1869 0.27792 15.9135 0.525006 16.5494C0.780633 17.2071 1.1223 17.765 1.67835 18.3208C2.23398 18.8771 2.7919 19.2196 3.4492 19.475C4.08546 19.7223 4.81234 19.8908 5.87673 19.9396C6.94341 19.9881 7.28403 20 9.99969 20C12.7158 20 13.0556 19.9881 14.1222 19.9396C15.1868 19.8908 15.9143 19.7223 16.5506 19.475C17.2081 19.2196 17.7652 18.8771 18.3208 18.3208C18.8771 17.765 19.2187 17.2071 19.475 16.5496C19.7208 15.9135 19.8896 15.1867 19.9396 14.1225C19.9875 13.0558 20 12.7158 20 10C20 7.28417 19.9875 6.94333 19.9396 5.87667C19.8896 4.81208 19.7208 4.08542 19.475 3.44958C19.2187 2.79187 18.8771 2.23396 18.3208 1.67813C17.7646 1.12188 17.2083 0.780208 16.55 0.525C15.9125 0.277708 15.1854 0.109167 14.1208 0.0604169C13.0541 0.0118752 12.7145 0 9.99781 0H10.0007ZM9.10364 1.80208C9.36989 1.80167 9.66698 1.80208 10.0007 1.80208C12.6708 1.80208 12.9872 1.81167 14.0416 1.85958C15.0166 1.90417 15.5458 2.06708 15.8983 2.20396C16.365 2.38521 16.6977 2.60188 17.0475 2.95188C17.3975 3.30188 17.6141 3.63521 17.7958 4.10188C17.9327 4.45396 18.0958 4.98312 18.1402 5.95812C18.1881 7.01229 18.1985 7.32896 18.1985 9.99771C18.1985 12.6665 18.1881 12.9831 18.1402 14.0373C18.0956 15.0123 17.9327 15.5415 17.7958 15.8935C17.6146 16.3602 17.3975 16.6925 17.0475 17.0423C16.6975 17.3923 16.3652 17.609 15.8983 17.7902C15.5462 17.9277 15.0166 18.0902 14.0416 18.1348C12.9874 18.1827 12.6708 18.1931 10.0007 18.1931C7.33049 18.1931 7.01403 18.1827 5.95985 18.1348C4.98484 18.0898 4.45567 17.9269 4.10296 17.79C3.63629 17.6087 3.30295 17.3921 2.95295 17.0421C2.60294 16.6921 2.38628 16.3596 2.20461 15.8927C2.06773 15.5406 1.9046 15.0115 1.86023 14.0365C1.81231 12.9823 1.80273 12.6656 1.80273 9.99521C1.80273 7.32479 1.81231 7.00979 1.86023 5.95563C1.90481 4.98063 2.06773 4.45146 2.20461 4.09896C2.38586 3.63229 2.60294 3.29896 2.95295 2.94896C3.30295 2.59896 3.63629 2.38229 4.10296 2.20062C4.45546 2.06312 4.98484 1.90063 5.95985 1.85583C6.88236 1.81417 7.23987 1.80167 9.10364 1.79958V1.80208Z" fill="black" fill-opacity="0.2"/>
<path d="M15.3172 3.43794C15.0798 3.43794 14.8478 3.50832 14.6505 3.6402C14.4531 3.77208 14.2993 3.95952 14.2085 4.17881C14.1177 4.39811 14.0939 4.63941 14.1403 4.8722C14.1866 5.10499 14.3009 5.31881 14.4688 5.48661C14.6367 5.65442 14.8505 5.76867 15.0833 5.81493C15.3161 5.86118 15.5574 5.83736 15.7767 5.74647C15.996 5.65558 16.1834 5.50171 16.3152 5.30432C16.447 5.10692 16.5173 4.87487 16.5172 4.63752C16.5172 3.97502 15.9797 3.43794 15.3172 3.43794Z" fill="#B4721D"/>
<path d="M15.3172 3.43794C15.0798 3.43794 14.8478 3.50832 14.6505 3.6402C14.4531 3.77208 14.2993 3.95952 14.2085 4.17881C14.1177 4.39811 14.0939 4.63941 14.1403 4.8722C14.1866 5.10499 14.3009 5.31881 14.4688 5.48661C14.6367 5.65442 14.8505 5.76867 15.0833 5.81493C15.3161 5.86118 15.5574 5.83736 15.7767 5.74647C15.996 5.65558 16.1834 5.50171 16.3152 5.30432C16.447 5.10692 16.5173 4.87487 16.5172 4.63752C16.5172 3.97502 15.9797 3.43794 15.3172 3.43794Z" fill="black" fill-opacity="0.2"/>
<path fill-rule="evenodd" clip-rule="evenodd" d="M9.97922 4.84002C7.14315 4.84002 4.84375 7.13939 4.84375 9.97544C4.84375 12.8115 7.14315 15.1098 9.97922 15.1098C12.8153 15.1098 15.1141 12.8115 15.1141 9.97544C15.1141 7.13939 12.8153 4.84002 9.97922 4.84002ZM10 13.2813C11.8122 13.2813 13.2813 11.8122 13.2813 10C13.2813 8.18783 11.8122 6.71877 10 6.71877C8.18782 6.71877 6.71875 8.18783 6.71875 10C6.71875 11.8122 8.18782 13.2813 10 13.2813Z" fill="#B4721D"/>
<path fill-rule="evenodd" clip-rule="evenodd" d="M9.97922 4.84002C7.14315 4.84002 4.84375 7.13939 4.84375 9.97544C4.84375 12.8115 7.14315 15.1098 9.97922 15.1098C12.8153 15.1098 15.1141 12.8115 15.1141 9.97544C15.1141 7.13939 12.8153 4.84002 9.97922 4.84002ZM10 13.2813C11.8122 13.2813 13.2813 11.8122 13.2813 10C13.2813 8.18783 11.8122 6.71877 10 6.71877C8.18782 6.71877 6.71875 8.18783 6.71875 10C6.71875 11.8122 8.18782 13.2813 10 13.2813Z" fill="black" fill-opacity="0.2"/>
</svg>
