<svg width="20" height="20" viewBox="0 0 20 20" fill="none" xmlns="http://www.w3.org/2000/svg">
<path d="M9.99911 0C4.36711 0 0 4.12713 0 9.69914C0 12.6139 1.19489 15.1337 3.13972 16.8735C3.30221 17.0185 3.4022 17.2235 3.4072 17.4435L3.46219 19.2233C3.47969 19.7907 4.06464 20.1607 4.58459 19.9307L6.56942 19.0558C6.7369 18.9808 6.92689 18.9683 7.10437 19.0158C8.01679 19.2658 8.9867 19.4008 9.99911 19.4008C15.6311 19.4008 19.9982 15.2736 19.9982 9.70164C19.9982 4.12963 15.6311 0 9.99911 0Z" fill="url(#paint0_linear_555_17558)"/>
<path d="M3.9947 12.5358L6.93194 7.87617C7.3994 7.13374 8.39931 6.95126 9.10175 7.47621L11.439 9.22855C11.654 9.38854 11.949 9.38854 12.1615 9.22605L15.3162 6.83127C15.7362 6.5113 16.2861 7.01625 16.0061 7.46371L13.0664 12.1208C12.5989 12.8632 11.599 13.0457 10.8966 12.5208L8.55929 10.7684C8.34431 10.6084 8.04934 10.6084 7.83686 10.7709L4.68214 13.1657C4.26217 13.4857 3.71222 12.9832 3.9947 12.5358Z" fill="white"/>
<defs>
<linearGradient id="paint0_linear_555_17558" x1="5.55319e-09" y1="1.34615" x2="20.598" y2="1.84948" gradientUnits="userSpaceOnUse">
<stop offset="0.005" stop-color="#7E7B79"/>
<stop offset="0.28" stop-color="#524D45"/>
<stop offset="1" stop-color="#211E1E"/>
</linearGradient>
</defs>
</svg>
