<svg width="18" height="18" viewBox="0 0 18 18" fill="none" xmlns="http://www.w3.org/2000/svg">
<path d="M16.0283 11.3035L12.2783 9.80347C12.1311 9.74563 11.9694 9.73544 11.8161 9.77433C11.6627 9.81323 11.5255 9.89924 11.4236 10.0203L9.89722 11.852C8.36715 10.9182 7.08185 9.63287 6.14797 8.1028L7.97975 6.57643C8.10156 6.47514 8.18816 6.33787 8.2271 6.18431C8.26605 6.03075 8.25536 5.8688 8.19655 5.7217L6.69655 1.9717C6.64087 1.83248 6.54475 1.71313 6.42059 1.62905C6.29644 1.54498 6.14994 1.50003 6 1.5H0.75C0.651493 1.49994 0.553941 1.5193 0.462921 1.55698C0.371902 1.59465 0.2892 1.64989 0.219545 1.71954C0.14989 1.7892 0.0946471 1.8719 0.056976 1.96292C0.0193049 2.05394 -5.60752e-05 2.15149 1.21988e-07 2.25C0.00480777 6.42568 1.66572 10.429 4.61838 13.3816C7.57103 16.3343 11.5743 17.9952 15.75 18C15.8485 18.0001 15.9461 17.9807 16.0371 17.943C16.1281 17.9054 16.2108 17.8501 16.2805 17.7805C16.3501 17.7108 16.4054 17.6281 16.443 17.5371C16.4807 17.4461 16.5001 17.3485 16.5 17.25V12C16.5 11.8501 16.455 11.7036 16.3709 11.5794C16.2869 11.4553 16.1675 11.3592 16.0283 11.3035ZM15 16.4802C11.4865 16.2903 8.16698 14.8091 5.67893 12.3211C3.19087 9.83302 1.70968 6.51351 1.51978 3H5.49243L6.60132 5.77222L4.70361 7.35352C4.5704 7.46429 4.47966 7.61777 4.44682 7.78788C4.41397 7.95799 4.44105 8.13422 4.52344 8.28662C5.70946 10.4863 7.51368 12.2905 9.71338 13.4766C9.86578 13.559 10.042 13.586 10.2121 13.5532C10.3822 13.5203 10.5357 13.4296 10.6465 13.2964L12.2278 11.3987L15 12.5076V16.4802Z" fill="#FFFDFA"/>
<path d="M10.5 6C10.8977 6.00052 11.2789 6.15872 11.5601 6.43991C11.8413 6.7211 11.9995 7.10233 12 7.5C12 7.69891 12.079 7.88968 12.2197 8.03033C12.3603 8.17098 12.5511 8.25 12.75 8.25C12.9489 8.25 13.1397 8.17098 13.2803 8.03033C13.421 7.88968 13.5 7.69891 13.5 7.5C13.4992 6.70459 13.1829 5.94199 12.6204 5.37956C12.058 4.81712 11.2954 4.50079 10.5 4.5C10.3011 4.5 10.1103 4.57902 9.96967 4.71967C9.82902 4.86032 9.75 5.05109 9.75 5.25C9.75 5.44891 9.82902 5.63968 9.96967 5.78033C10.1103 5.92098 10.3011 6 10.5 6Z" fill="#FFFDFA"/>
<path d="M10.5 3.75C11.4942 3.75117 12.4474 4.14663 13.1504 4.84964C13.8534 5.55265 14.2488 6.5058 14.25 7.5C14.25 7.69891 14.329 7.88968 14.4697 8.03033C14.6103 8.17098 14.8011 8.25 15 8.25C15.1989 8.25 15.3897 8.17098 15.5303 8.03033C15.671 7.88968 15.75 7.69891 15.75 7.5C15.7483 6.10813 15.1947 4.77375 14.2104 3.78955C13.2262 2.80535 11.8919 2.25169 10.5 2.25C10.3011 2.25 10.1103 2.32902 9.96967 2.46967C9.82902 2.61032 9.75 2.80109 9.75 3C9.75 3.19891 9.82902 3.38968 9.96967 3.53033C10.1103 3.67098 10.3011 3.75 10.5 3.75Z" fill="#FFFDFA"/>
<path d="M10.5 0C10.3011 0 10.1103 0.0790176 9.96967 0.21967C9.82902 0.360322 9.75 0.551088 9.75 0.75C9.75 0.948912 9.82902 1.13968 9.96967 1.28033C10.1103 1.42098 10.3011 1.5 10.5 1.5C12.0907 1.50182 13.6158 2.13455 14.7406 3.25937C15.8655 4.38419 16.4982 5.90926 16.5 7.5C16.5 7.69891 16.579 7.88968 16.7197 8.03033C16.8603 8.17098 17.0511 8.25 17.25 8.25C17.4489 8.25 17.6397 8.17098 17.7803 8.03033C17.921 7.88968 18 7.69891 18 7.5C17.9977 5.51159 17.2067 3.6053 15.8007 2.19928C14.3947 0.793263 12.4884 0.00233623 10.5 0Z" fill="#FFFDFA"/>
</svg>
