<svg width="20" height="20" viewBox="0 0 20 20" fill="none" xmlns="http://www.w3.org/2000/svg">
<path d="M10 20C15.5228 20 20 15.5228 20 10C20 4.47717 15.5228 0 10 0C4.47717 0 0 4.47717 0 10C0 15.5228 4.47717 20 10 20Z" fill="url(#paint0_linear_555_17555)"/>
<path d="M3.72434 10.49C4.89333 9.84605 6.19825 9.30863 7.4175 8.76847C9.51508 7.88372 11.621 7.0143 13.7482 6.20488C14.162 6.06697 14.9057 5.93209 14.9786 6.54543C14.9387 7.41359 14.7744 8.27668 14.6618 9.13976C14.3758 11.0378 14.0453 12.9293 13.723 14.821C13.612 15.4511 12.8226 15.7773 12.3175 15.3741C11.1037 14.5542 9.8805 13.7423 8.68217 12.9033C8.28963 12.5045 8.65363 11.9317 9.00421 11.6468C10.004 10.6616 11.0642 9.82451 12.0117 8.78834C12.2673 8.17113 11.5121 8.6913 11.263 8.85068C9.89438 9.79384 8.55921 10.7946 7.11621 11.6235C6.37913 12.0293 5.52004 11.6825 4.78329 11.4561C4.1227 11.1826 3.15469 10.9071 3.72428 10.49L3.72434 10.49Z" fill="white"/>
<defs>
<linearGradient id="paint0_linear_555_17555" x1="5.55368e-09" y1="1.34615" x2="20.5998" y2="1.84957" gradientUnits="userSpaceOnUse">
<stop offset="0.005" stop-color="#7E7B79"/>
<stop offset="0.28" stop-color="#524D45"/>
<stop offset="1" stop-color="#211E1E"/>
</linearGradient>
</defs>
</svg>
