<svg width="21" height="20" viewBox="0 0 21 20" fill="none" xmlns="http://www.w3.org/2000/svg">
<path fill-rule="evenodd" clip-rule="evenodd" d="M6.52942 15.5513C6.92546 15.7603 7.36654 15.8693 7.81429 15.8692C9.30575 15.8692 10.5233 14.6828 10.5782 13.2042L10.5837 0H13.8782C13.8785 0.280452 13.9045 0.560283 13.956 0.835967H11.5439V0.836425H14.8387C14.8383 1.94151 15.2388 3.00923 15.966 3.84133L15.967 3.84239C16.7088 4.327 17.5759 4.58467 18.462 4.58383V5.31758C18.7721 5.384 19.0928 5.41937 19.4226 5.41937V8.71467C17.7778 8.71658 16.1741 8.20088 14.8387 7.24062V13.9362C14.8387 17.2795 12.1183 20 8.77442 20C7.94171 20.0002 7.11792 19.8284 6.35467 19.4954C5.59196 19.1626 4.90621 18.676 4.34022 18.066L4.33898 18.0651C2.77515 16.9672 1.75 15.1514 1.75 13.1002C1.75 9.75629 4.47044 7.03542 7.81429 7.03542C8.08775 7.03671 8.36075 7.05662 8.6315 7.09496V7.87504C8.65054 7.87467 8.66946 7.874 8.68846 7.87337C8.71696 7.87237 8.74554 7.87138 8.77442 7.87138C9.04783 7.87267 9.32087 7.89258 9.59158 7.93092V11.2945C9.33325 11.2134 9.05979 11.1662 8.77442 11.1662C8.04008 11.1671 7.33608 11.4592 6.81687 11.9785C6.29767 12.4978 6.00567 13.2018 6.00496 13.9361C6.005 14.5161 6.18829 15.0813 6.52871 15.5509L6.52942 15.5513ZM3.11012 16.0999C3.39156 16.8332 3.81158 17.4984 4.33764 18.0637C3.80087 17.4893 3.3864 16.8213 3.11012 16.0999Z" fill="#B4721D"/>
<path fill-rule="evenodd" clip-rule="evenodd" d="M6.52942 15.5513C6.92546 15.7603 7.36654 15.8693 7.81429 15.8692C9.30575 15.8692 10.5233 14.6828 10.5782 13.2042L10.5837 0H13.8782C13.8785 0.280452 13.9045 0.560283 13.956 0.835967H11.5439V0.836425H14.8387C14.8383 1.94151 15.2388 3.00923 15.966 3.84133L15.967 3.84239C16.7088 4.327 17.5759 4.58467 18.462 4.58383V5.31758C18.7721 5.384 19.0928 5.41937 19.4226 5.41937V8.71467C17.7778 8.71658 16.1741 8.20088 14.8387 7.24062V13.9362C14.8387 17.2795 12.1183 20 8.77442 20C7.94171 20.0002 7.11792 19.8284 6.35467 19.4954C5.59196 19.1626 4.90621 18.676 4.34022 18.066L4.33898 18.0651C2.77515 16.9672 1.75 15.1514 1.75 13.1002C1.75 9.75629 4.47044 7.03542 7.81429 7.03542C8.08775 7.03671 8.36075 7.05662 8.6315 7.09496V7.87504C8.65054 7.87467 8.66946 7.874 8.68846 7.87337C8.71696 7.87237 8.74554 7.87138 8.77442 7.87138C9.04783 7.87267 9.32087 7.89258 9.59158 7.93092V11.2945C9.33325 11.2134 9.05979 11.1662 8.77442 11.1662C8.04008 11.1671 7.33608 11.4592 6.81687 11.9785C6.29767 12.4978 6.00567 13.2018 6.00496 13.9361C6.005 14.5161 6.18829 15.0813 6.52871 15.5509L6.52942 15.5513ZM3.11012 16.0999C3.39156 16.8332 3.81158 17.4984 4.33764 18.0637C3.80087 17.4893 3.3864 16.8213 3.11012 16.0999Z" fill="black" fill-opacity="0.2"/>
</svg>
