<svg width="20" height="20" viewBox="0 0 20 20" fill="none" xmlns="http://www.w3.org/2000/svg">
<path d="M10 4.76837e-07C15.5228 4.76837e-07 20 4.47715 20 10C20 15.5228 15.5228 20 10 20C4.47715 20 0 15.5228 0 10C0 4.47715 4.47715 4.76837e-07 10 4.76837e-07Z" fill="url(#paint0_linear_2209_13716)"/>
<path d="M10.3096 7.89607C10.3147 7.79798 10.3984 7.72261 10.4965 7.72773C10.8635 7.74687 11.1688 7.85796 11.3863 8.08281C11.6029 8.30679 11.7091 8.6197 11.7277 8.99549C11.7326 9.09359 11.657 9.17707 11.5589 9.18194C11.4608 9.1868 11.3773 9.11122 11.3725 9.01311C11.3565 8.69143 11.2682 8.47243 11.1306 8.3301C10.9937 8.18862 10.7849 8.09896 10.4779 8.08295C10.3798 8.07783 10.3045 7.99416 10.3096 7.89607Z" fill="white"/>
<path d="M10.2303 6.77351C10.1324 6.76634 10.0472 6.83995 10.04 6.93791C10.0328 7.03587 10.1064 7.1211 10.2044 7.12827C10.8816 7.17783 11.3901 7.40448 11.7539 7.80157C12.1188 8.20031 12.2979 8.69735 12.2847 9.30637C12.2826 9.40457 12.3605 9.4859 12.4587 9.48802C12.5569 9.49015 12.6382 9.41227 12.6404 9.31406C12.6553 8.62348 12.4495 8.03471 12.0163 7.56142L12.0163 7.56136C11.5784 7.08337 10.9772 6.82817 10.2303 6.77351Z" fill="white"/>
<path d="M9.72601 6.02706C9.7267 5.92884 9.80688 5.84977 9.9051 5.85045C10.9372 5.85764 11.8097 6.20125 12.5101 6.88409C13.2164 7.57264 13.5657 8.51004 13.5746 9.67427C13.5753 9.77249 13.4963 9.85272 13.3981 9.85347C13.2999 9.85422 13.2196 9.7752 13.2189 9.67698C13.2106 8.58603 12.886 7.74731 12.2618 7.13879C11.6317 6.52456 10.8494 6.21274 9.90262 6.20615C9.8044 6.20546 9.72533 6.12528 9.72601 6.02706Z" fill="white"/>
<path d="M10.907 11.2417C10.7724 11.4075 10.5224 11.3864 10.5224 11.3864C8.69519 10.9199 8.20615 9.06907 8.20615 9.06907C8.20615 9.06907 8.18421 8.81907 8.35088 8.68447L8.68105 8.42201C8.84477 8.29585 8.9492 7.98973 8.78253 7.69078C8.65469 7.46638 8.5157 7.24852 8.36607 7.03802C8.22071 6.8395 7.88209 6.43295 7.88083 6.43168C7.71753 6.23906 7.47744 6.19434 7.22427 6.3262C7.22351 6.3262 7.22246 6.32654 7.22145 6.32687C7.22051 6.32717 7.21961 6.32746 7.219 6.32746C6.9672 6.47254 6.74015 6.65686 6.54641 6.87346C6.54575 6.87478 6.54509 6.87542 6.54443 6.87605C6.54383 6.87663 6.54322 6.87721 6.54262 6.87832C6.38621 7.06707 6.29669 7.25209 6.27405 7.43339C6.26935 7.46012 6.26772 7.4873 6.26919 7.5144C6.26835 7.59446 6.28054 7.67412 6.30527 7.75027L6.31392 7.75618C6.39283 8.03635 6.5903 8.50303 7.01942 9.2811C7.26487 9.73114 7.54795 10.1596 7.86564 10.5619C8.0248 10.7636 8.19541 10.956 8.37662 11.1381C8.3788 11.1403 8.38095 11.1425 8.3831 11.1446C8.3874 11.149 8.39167 11.1533 8.39603 11.1575L8.45425 11.2157C8.63638 11.3969 8.82875 11.5675 9.03043 11.7267C9.43278 12.0444 9.86133 12.3275 10.3115 12.5729C11.0893 13.0021 11.5564 13.1995 11.8362 13.2784L11.8421 13.2871C11.9182 13.3119 11.9979 13.3241 12.0779 13.3234C12.1051 13.3247 12.1322 13.323 12.159 13.3183C12.3405 13.2968 12.5254 13.2074 12.7136 13.0502C12.7159 13.0489 12.7159 13.0476 12.7185 13.0464C12.9351 12.8526 13.1195 12.6255 13.2647 12.3738C13.2647 12.3733 13.2649 12.3725 13.2651 12.3718C13.2654 12.3706 13.2657 12.3694 13.2657 12.3685C13.3976 12.1153 13.3529 11.8752 13.1592 11.7117C13.1589 11.7117 13.1431 11.6987 13.1164 11.6767C13.0066 11.5863 12.7125 11.3439 12.5529 11.2265C12.3426 11.0769 12.1249 10.9379 11.9007 10.81C11.6016 10.6434 11.2961 10.7478 11.1695 10.9115L10.907 11.2417Z" fill="white"/>
<path fill-rule="evenodd" clip-rule="evenodd" d="M15.1615 4.70528C14.8122 4.38291 13.4003 3.358 10.2556 3.34408C10.2556 3.34408 6.54705 3.12044 4.73921 4.7787C3.73286 5.78526 3.37885 7.25807 3.34151 9.08405C3.30416 10.91 3.25585 14.332 6.55443 15.2599H6.5576L6.55549 16.6757C6.55549 16.6757 6.53439 17.249 6.91182 17.3658C7.29284 17.4842 7.54249 17.2003 7.86802 16.8302C7.93256 16.7568 8.00007 16.68 8.07218 16.6023C8.31142 16.3445 8.64181 15.9658 8.89076 15.6764C11.1467 15.8662 12.8818 15.4323 13.0788 15.3681C13.1195 15.3549 13.177 15.3403 13.2484 15.3221L13.2485 15.3221C13.9773 15.1368 16.1492 14.5846 16.531 11.4685C16.9637 7.94163 16.3217 5.71078 15.1615 4.70528ZM15.5438 11.2155C15.2253 13.788 13.4987 14.1898 12.8765 14.3345L12.8765 14.3345L12.8764 14.3345C12.8077 14.3505 12.7524 14.3634 12.714 14.3757C12.5501 14.4285 11.0262 14.8076 9.10996 14.6825C9.10996 14.6825 7.68209 16.4051 7.23609 16.853C7.16647 16.923 7.08461 16.9513 7.02997 16.9374C6.95317 16.9186 6.93208 16.8276 6.93292 16.6947C6.93419 16.5049 6.94516 14.342 6.94516 14.342C4.24702 13.5929 4.30995 10.8449 4.34566 9.28523L4.34567 9.28512C4.34689 9.23186 4.34807 9.17998 4.34912 9.12962C4.38076 7.60449 4.66727 6.3551 5.51834 5.51479C7.04748 4.12974 10.1975 4.33671 10.1975 4.33671C12.8577 4.34831 14.1324 5.14938 14.428 5.41774C15.4094 6.25805 15.9095 8.26885 15.5438 11.2147V11.2155Z" fill="white"/>
<defs>
<linearGradient id="paint0_linear_2209_13716" x1="5.55368e-09" y1="18.6538" x2="20.5998" y2="18.1504" gradientUnits="userSpaceOnUse">
<stop offset="0.005" stop-color="#7E7B79"/>
<stop offset="0.28" stop-color="#524D45"/>
<stop offset="1" stop-color="#211E1E"/>
</linearGradient>
</defs>
</svg>
