<svg width="21" height="20" viewBox="0 0 21 20" fill="none" xmlns="http://www.w3.org/2000/svg">
<path fill-rule="evenodd" clip-rule="evenodd" d="M3.16629 14.0275L1.97705 18.3697L6.42063 17.2045C7.64503 17.8722 9.02345 18.2241 10.4262 18.2246H10.4298C15.0495 18.2246 18.8102 14.4651 18.8122 9.84502C18.813 7.60581 17.9417 5.5005 16.3593 3.91658C14.7765 2.33266 12.672 1.46008 10.4298 1.45898C5.80929 1.45898 2.04926 5.21791 2.04738 9.83827C2.04691 11.3151 2.43281 12.7568 3.16629 14.0275ZM3.4627 9.83871C3.46411 5.99862 6.58943 2.87444 10.4325 2.87444C12.2935 2.87523 14.0426 3.60052 15.3581 4.91692C16.6735 6.23333 17.3974 7.98335 17.3968 9.84437C17.3952 13.6848 14.2699 16.8093 10.4298 16.8093H10.4271C9.17668 16.8087 7.95055 16.473 6.8811 15.8383L6.62648 15.6874L3.98955 16.3788L4.69356 13.8088L4.52777 13.5454C3.8304 12.4364 3.46213 11.1546 3.4627 9.83871Z" fill="url(#paint0_linear_555_17561)"/>
<path fill-rule="evenodd" clip-rule="evenodd" d="M8.33488 6.33508C8.17788 5.9864 8.01272 5.97933 7.86358 5.97321C7.74144 5.96803 7.60171 5.96834 7.46214 5.96834C7.32242 5.96834 7.09556 6.02078 6.90371 6.23037C6.71171 6.43995 6.17055 6.94658 6.17055 7.97709C6.17055 9.00761 6.92114 10.0033 7.0257 10.1431C7.13041 10.2829 8.4746 12.4651 10.6036 13.3046C12.3728 14.0022 12.7328 13.8635 13.1169 13.8286C13.5009 13.7938 14.3561 13.322 14.5305 12.8329C14.7051 12.3439 14.7051 11.9249 14.6528 11.8373C14.6004 11.7498 14.4608 11.6976 14.2512 11.5928C14.0418 11.4881 13.0121 10.9813 12.8201 10.9115C12.6281 10.8416 12.4885 10.8068 12.3488 11.0164C12.2092 11.2259 11.8081 11.6976 11.6858 11.8373C11.5636 11.9772 11.4415 11.9946 11.2319 11.8899C11.0225 11.7848 10.3479 11.564 9.54766 10.8504C8.92502 10.2953 8.50474 9.60968 8.38245 9.40009C8.2603 9.19051 8.36941 9.07716 8.47444 8.97275C8.56848 8.87887 8.68388 8.72816 8.78875 8.60586C8.89315 8.48356 8.92816 8.39627 8.99786 8.2567C9.06773 8.11682 9.03287 7.99452 8.98044 7.8898C8.92816 7.78509 8.52107 6.74924 8.33488 6.33508Z" fill="url(#paint1_linear_555_17561)"/>
<defs>
<linearGradient id="paint0_linear_555_17561" x1="1.97705" y1="2.5972" x2="19.3172" y2="3.01907" gradientUnits="userSpaceOnUse">
<stop offset="0.005" stop-color="#7E7B79"/>
<stop offset="0.28" stop-color="#524D45"/>
<stop offset="1" stop-color="#211E1E"/>
</linearGradient>
<linearGradient id="paint1_linear_555_17561" x1="1.97705" y1="2.5972" x2="19.3172" y2="3.01907" gradientUnits="userSpaceOnUse">
<stop offset="0.005" stop-color="#7E7B79"/>
<stop offset="0.28" stop-color="#524D45"/>
<stop offset="1" stop-color="#211E1E"/>
</linearGradient>
</defs>
</svg>
