<svg aria-hidden="true" style="position: absolute; width: 0; height: 0; overflow: hidden;" version="1.1" xmlns="http://www.w3.org/2000/svg" xmlns:xlink="http://www.w3.org/1999/xlink">
<defs>
<symbol id="scale" viewBox="0 0 14 15"> 
<path d="M13.9385 5.4891L12.6106 2.83334H13.4167C13.5714 2.83334 13.7197 2.77188 13.8291 2.66248C13.9385 2.55309 14 2.40471 14 2.25C14 2.09529 13.9385 1.94692 13.8291 1.83753C13.7197 1.72813 13.5714 1.66667 13.4167 1.66667H8.64251C8.52363 1.32582 8.30165 1.03039 8.00734 0.82135C7.71304 0.612306 7.36099 0.5 7 0.5C6.63901 0.5 6.28696 0.612306 5.99266 0.82135C5.69835 1.03039 5.47637 1.32582 5.35749 1.66667H0.583333C0.428624 1.66667 0.280251 1.72813 0.170854 1.83753C0.0614582 1.94692 0 2.09529 0 2.25C0 2.40471 0.0614582 2.55309 0.170854 2.66248C0.280251 2.77188 0.428624 2.83334 0.583333 2.83334H1.38941L0.0615242 5.4891C0.0338833 5.57423 0.0133056 5.66149 0 5.75L0 6.91667C0 7.53551 0.245833 8.129 0.683417 8.56659C1.121 9.00417 1.71449 9.25 2.33333 9.25C2.95217 9.25 3.54566 9.00417 3.98325 8.56659C4.42083 8.129 4.66667 7.53551 4.66667 6.91667V5.75C4.65336 5.66149 4.63278 5.57423 4.60514 5.4891L3.27726 2.83334H5.35753C5.44451 3.07735 5.58467 3.29897 5.76785 3.48215C5.95103 3.66533 6.17265 3.80549 6.41667 3.89248V9.83334H5.25C4.94069 9.83369 4.64415 9.95672 4.42543 10.1754C4.20672 10.3942 4.08369 10.6907 4.08333 11V11.5833H3.5C3.03603 11.5838 2.5912 11.7684 2.26312 12.0965C1.93504 12.4245 1.75051 12.8694 1.75 13.3333V13.9167C1.74998 13.9933 1.76505 14.0691 1.79436 14.1399C1.82367 14.2107 1.86664 14.275 1.92081 14.3292C1.97498 14.3834 2.0393 14.4263 2.11008 14.4556C2.18086 14.4849 2.25672 14.5 2.33333 14.5H11.6667C11.7433 14.5 11.8191 14.4849 11.8899 14.4556C11.9607 14.4263 12.025 14.3834 12.0792 14.3292C12.1334 14.275 12.1763 14.2107 12.2056 14.1399C12.2349 14.0691 12.25 13.9933 12.25 13.9167V13.3333C12.2495 12.8694 12.065 12.4245 11.7369 12.0965C11.4088 11.7684 10.964 11.5838 10.5 11.5833H9.91667V11C9.91631 10.6907 9.79328 10.3942 9.57457 10.1754C9.35585 9.95672 9.05931 9.83369 8.75 9.83334H7.58333V3.89251C7.82735 3.80552 8.04898 3.66535 8.23216 3.48217C8.41535 3.29898 8.55551 3.07736 8.64251 2.83334H10.7227L9.39486 5.4891C9.36722 5.57423 9.34664 5.66149 9.33333 5.75V6.91667C9.33333 7.53551 9.57917 8.129 10.0168 8.56659C10.4543 9.00417 11.0478 9.25 11.6667 9.25C12.2855 9.25 12.879 9.00417 13.3166 8.56659C13.7542 8.129 14 7.53551 14 6.91667V5.75C13.9867 5.66149 13.9661 5.57423 13.9385 5.4891ZM2.33333 3.55453L3.13941 5.16667H1.52726L2.33333 3.55453ZM3.5 6.91667C3.5 7.22609 3.37708 7.52284 3.15829 7.74163C2.9395 7.96042 2.64275 8.08334 2.33333 8.08334C2.02391 8.08334 1.72717 7.96042 1.50838 7.74163C1.28958 7.52284 1.16667 7.22609 1.16667 6.91667V6.33334H3.5V6.91667ZM11.0833 13.3333H2.91667C2.91682 13.1787 2.97833 13.0304 3.08769 12.921C3.19705 12.8117 3.34534 12.7502 3.5 12.75H10.5C10.6547 12.7502 10.8029 12.8117 10.9123 12.921C11.0217 13.0304 11.0832 13.1787 11.0833 13.3333ZM8.75 11.5833H5.25V11H8.75V11.5833ZM7 2.83334C6.88463 2.83334 6.77185 2.79913 6.67592 2.73503C6.57999 2.67093 6.50522 2.57983 6.46107 2.47324C6.41692 2.36665 6.40537 2.24936 6.42788 2.1362C6.45038 2.02305 6.50594 1.91911 6.58752 1.83753C6.6691 1.75594 6.77304 1.70039 6.8862 1.67788C6.99935 1.65537 7.11664 1.66692 7.22323 1.71107C7.32982 1.75523 7.42093 1.82999 7.48502 1.92592C7.54912 2.02185 7.58333 2.13463 7.58333 2.25C7.58318 2.40467 7.52167 2.55295 7.41231 2.66231C7.30295 2.77168 7.15466 2.83318 7 2.83334ZM12.4727 5.16667H10.8606L11.6667 3.55453L12.4727 5.16667ZM12.8333 6.91667C12.8333 7.22609 12.7104 7.52284 12.4916 7.74163C12.2728 7.96042 11.9761 8.08334 11.6667 8.08334C11.3572 8.08334 11.0605 7.96042 10.8417 7.74163C10.6229 7.52284 10.5 7.22609 10.5 6.91667V6.33334H12.8333V6.91667Z" />
</symbol>

<symbol id="burger-menu" viewBox="0 0 24 24">
  <path d="M4 18H20C20.55 18 21 17.55 21 17C21 16.45 20.55 16 20 16H4C3.45 16 3 16.45 3 17C3 17.55 3.45 18 4 18ZM4 13H20C20.55 13 21 12.55 21 12C21 11.45 20.55 11 20 11H4C3.45 11 3 11.45 3 12C3 12.55 3.45 13 4 13ZM3 7C3 7.55 3.45 8 4 8H20C20.55 8 21 7.55 21 7C21 6.45 20.55 6 20 6H4C3.45 6 3 6.45 3 7Z" />
</symbol>

<symbol id="close-cross" viewBox="0 0 24 24" fill="none">
<path d="M19 6.41L17.59 5L12 10.59L6.41 5L5 6.41L10.59 12L5 17.59L6.41 19L12 13.41L17.59 19L19 17.59L13.41 12L19 6.41Z" fill="#FCFEFF"/>
</symbol>

<symbol id="facebook-icon" viewBox="0 0 20 21" fill="none">
  <path fill-rule="evenodd" clip-rule="evenodd" d="M0 10.4551C0 4.93223 4.47715 0.455078 10 0.455078C15.5228 0.455078 20 4.93223 20 10.4551C20 15.9779 15.5228 20.4551 10 20.4551C4.47715 20.4551 0 15.9779 0 10.4551ZM11.0423 16.3349V10.8943H12.5441L12.7432 9.0195H11.0423L11.0449 8.08112C11.0449 7.59214 11.0913 7.33013 11.7937 7.33013H12.7325V5.45508H11.2305C9.42631 5.45508 8.79128 6.36458 8.79128 7.89406V9.01971H7.66667V10.8945H8.79128V16.3349H11.0423Z" fill="white"/>  <path fill-rule="evenodd" clip-rule="evenodd" d="M0 10.4551C0 4.93223 4.47715 0.455078 10 0.455078C15.5228 0.455078 20 4.93223 20 10.4551C20 15.9779 15.5228 20.4551 10 20.4551C4.47715 20.4551 0 15.9779 0 10.4551ZM11.0423 16.3349V10.8943H12.5441L12.7432 9.0195H11.0423L11.0449 8.08112C11.0449 7.59214 11.0913 7.33013 11.7937 7.33013H12.7325V5.45508H11.2305C9.42631 5.45508 8.79128 6.36458 8.79128 7.89406V9.01971H7.66667V10.8945H8.79128V16.3349H11.0423Z" fill="white"/>
</symbol>

<symbol id="instagram-icon" viewBox="0 0 20 21" fill="none">
  <path d="M10.0007 0.455078C7.28487 0.455078 6.94403 0.466953 5.87735 0.515495C4.81276 0.564245 4.08608 0.732787 3.45024 0.980078C2.79253 1.23549 2.23461 1.57716 1.67877 2.1332C1.12251 2.68904 0.780841 3.24695 0.524589 3.90445C0.276669 4.54049 0.107918 5.26737 0.0600007 6.33154C0.0125002 7.3982 0 7.73924 0 10.4551C0 13.1709 0.0120836 13.5107 0.0604175 14.5774C0.109376 15.642 0.27792 16.3686 0.525006 17.0045C0.780633 17.6622 1.1223 18.2201 1.67835 18.7759C2.23398 19.3322 2.7919 19.6747 3.4492 19.9301C4.08546 20.1774 4.81234 20.3459 5.87673 20.3947C6.94341 20.4432 7.28403 20.4551 9.99969 20.4551C12.7158 20.4551 13.0556 20.4432 14.1222 20.3947C15.1868 20.3459 15.9143 20.1774 16.5506 19.9301C17.2081 19.6747 17.7652 19.3322 18.3208 18.7759C18.8771 18.2201 19.2187 17.6622 19.475 17.0047C19.7208 16.3686 19.8896 15.6417 19.9396 14.5776C19.9875 13.5109 20 13.1709 20 10.4551C20 7.73924 19.9875 7.39841 19.9396 6.33174C19.8896 5.26716 19.7208 4.54049 19.475 3.90466C19.2187 3.24695 18.8771 2.68904 18.3208 2.1332C17.7646 1.57695 17.2083 1.23529 16.55 0.980078C15.9125 0.732787 15.1854 0.564245 14.1208 0.515495C13.0541 0.466953 12.7145 0.455078 9.99781 0.455078H10.0007ZM9.10364 2.25716C9.36989 2.25674 9.66698 2.25716 10.0007 2.25716C12.6708 2.25716 12.9872 2.26674 14.0416 2.31466C15.0166 2.35924 15.5458 2.52216 15.8983 2.65904C16.365 2.84029 16.6977 3.05695 17.0475 3.40695C17.3975 3.75695 17.6141 4.09029 17.7958 4.55695C17.9327 4.90904 18.0958 5.4382 18.1402 6.4132C18.1881 7.46737 18.1985 7.78404 18.1985 10.4528C18.1985 13.1215 18.1881 13.4382 18.1402 14.4924C18.0956 15.4674 17.9327 15.9965 17.7958 16.3486C17.6146 16.8153 17.3975 17.1476 17.0475 17.4974C16.6975 17.8474 16.3652 18.064 15.8983 18.2453C15.5462 18.3828 15.0166 18.5453 14.0416 18.5899C12.9874 18.6378 12.6708 18.6482 10.0007 18.6482C7.33049 18.6482 7.01403 18.6378 5.95985 18.5899C4.98484 18.5449 4.45567 18.382 4.10296 18.2451C3.63629 18.0638 3.30295 17.8472 2.95295 17.4972C2.60294 17.1472 2.38628 16.8147 2.20461 16.3478C2.06773 15.9957 1.9046 15.4665 1.86023 14.4915C1.81231 13.4374 1.80273 13.1207 1.80273 10.4503C1.80273 7.77987 1.81231 7.46487 1.86023 6.4107C1.90481 5.4357 2.06773 4.90654 2.20461 4.55404C2.38586 4.08737 2.60294 3.75404 2.95295 3.40404C3.30295 3.05404 3.63629 2.83737 4.10296 2.6557C4.45546 2.5182 4.98484 2.3557 5.95985 2.31091C6.88236 2.26924 7.23987 2.25674 9.10364 2.25466V2.25716Z" fill="white"/>
  <path d="M15.3172 3.89301C15.0798 3.89301 14.8478 3.9634 14.6505 4.09528C14.4531 4.22716 14.2993 4.41459 14.2085 4.63389C14.1177 4.85319 14.0939 5.09449 14.1403 5.32728C14.1866 5.56006 14.3009 5.77388 14.4688 5.94169C14.6367 6.1095 14.8505 6.22375 15.0833 6.27001C15.3161 6.31626 15.5574 6.29244 15.7767 6.20155C15.996 6.11066 16.1834 5.95679 16.3152 5.7594C16.447 5.562 16.5173 5.32995 16.5172 5.0926C16.5172 4.4301 15.9797 3.89301 15.3172 3.89301Z" fill="white"/>
  <path fill-rule="evenodd" clip-rule="evenodd" d="M9.97922 5.2951C7.14315 5.2951 4.84375 7.59447 4.84375 10.4305C4.84375 13.2666 7.14315 15.5649 9.97922 15.5649C12.8153 15.5649 15.1141 13.2666 15.1141 10.4305C15.1141 7.59447 12.8153 5.2951 9.97922 5.2951ZM10 13.7363C11.8122 13.7363 13.2813 12.2673 13.2813 10.4551C13.2813 8.64291 11.8122 7.17385 10 7.17385C8.18782 7.17385 6.71875 8.64291 6.71875 10.4551C6.71875 12.2673 8.18782 13.7363 10 13.7363Z" fill="white"/>
</symbol>

<symbol id="tik-tok-icon" viewBox="0 0 20 21" fill="none">
  <path fill-rule="evenodd" clip-rule="evenodd" d="M6.02942 16.0064C6.42546 16.2153 6.86654 16.3244 7.31429 16.3242C8.80575 16.3242 10.0233 15.1379 10.0782 13.6592L10.0837 0.455078H13.3782C13.3785 0.73553 13.4045 1.01536 13.456 1.29104H11.0439V1.2915H14.3387C14.3383 2.39659 14.7388 3.46431 15.466 4.2964L15.467 4.29747C16.2088 4.78208 17.0759 5.03974 17.962 5.03891V5.77266C18.2721 5.83908 18.5928 5.87445 18.9226 5.87445V9.16974C17.2778 9.17166 15.6741 8.65595 14.3387 7.6957V14.3912C14.3387 17.7346 11.6183 20.4551 8.27442 20.4551C7.44171 20.4553 6.61792 20.2835 5.85467 19.9505C5.09196 19.6177 4.40621 19.1311 3.84022 18.5211L3.83898 18.5202C2.27515 17.4222 1.25 15.6065 1.25 13.5552C1.25 10.2114 3.97044 7.49049 7.31429 7.49049C7.58775 7.49179 7.86075 7.5117 8.1315 7.55004V8.33012C8.15054 8.32974 8.16946 8.32908 8.18846 8.32845C8.21696 8.32745 8.24554 8.32645 8.27442 8.32645C8.54783 8.32774 8.82087 8.34766 9.09158 8.38599V11.7496C8.83325 11.6685 8.55979 11.6213 8.27442 11.6213C7.54008 11.6222 6.83608 11.9143 6.31687 12.4336C5.79767 12.9529 5.50567 13.6569 5.50496 14.3912C5.505 14.9712 5.68829 15.5364 6.02871 16.006L6.02942 16.0064ZM2.61012 16.555C2.89156 17.2882 3.31158 17.9535 3.83764 18.5188C3.30087 17.9444 2.8864 17.2763 2.61012 16.555Z" fill="white"/>
</symbol>

<symbol id="telegram-icon" viewBox="0 0 20 21" fill="none">
  <path fill-rule="evenodd" clip-rule="evenodd" d="M20 10.4551C20 15.9779 15.5228 20.4551 10 20.4551C4.47717 20.4551 0 15.9779 0 10.4551C0 4.93224 4.47717 0.455078 10 0.455078C15.5228 0.455078 20 4.93224 20 10.4551ZM6.69646 9.53904C5.69471 9.97641 4.66546 10.4258 3.72427 10.9442C3.23282 11.3041 3.88599 11.5586 4.49879 11.7974C4.59621 11.8353 4.69258 11.8729 4.78321 11.9104C4.85862 11.9336 4.93529 11.958 5.013 11.9827C5.69454 12.1999 6.45446 12.442 7.11613 12.0778C8.20304 11.4534 9.22875 10.7316 10.2537 10.0103C10.5895 9.77395 10.9252 9.5377 11.263 9.30495C11.2788 9.29483 11.2966 9.28324 11.3162 9.27062C11.6039 9.08408 12.251 8.66462 12.0116 9.24262C11.4456 9.86162 10.8393 10.4095 10.2298 10.9605C9.81896 11.3318 9.40663 11.7045 9.00413 12.1011C8.65358 12.386 8.28954 12.9587 8.68208 13.3576C9.58621 13.9905 10.5045 14.6081 11.4222 15.2254C11.7208 15.4262 12.0194 15.627 12.3174 15.8284C12.8225 16.2316 13.6119 15.9054 13.7229 15.2753C13.7723 14.9854 13.8219 14.6956 13.8715 14.4057C14.1455 12.8037 14.4195 11.2012 14.6617 9.59404C14.6946 9.34191 14.7319 9.08983 14.7692 8.83762C14.8597 8.22633 14.9503 7.61429 14.9785 6.9997C14.9056 6.38637 14.162 6.52124 13.7481 6.65916C11.621 7.46858 9.51504 8.33799 7.41746 9.22274C7.17983 9.32799 6.93896 9.43316 6.69646 9.53904Z" fill="white"/>
</symbol>

<symbol id="icon-arrow-left" viewBox="0 0 32 32">
<path fill="none" stroke="#ee8e18" style="stroke: var(--color1, #ee8e18)" stroke-linejoin="miter" stroke-linecap="butt" stroke-miterlimit="4" stroke-width="1" d="M31.5 16c0 8.56-6.94 15.5-15.5 15.5s-15.5-6.94-15.5-15.5c0-8.56 6.94-15.5 15.5-15.5s15.5 6.94 15.5 15.5z"></path>
<path fill="#ee8e18" style="fill: var(--color1, #ee8e18)" d="M21.2 16.353c0 0.148-0.059 0.291-0.164 0.396s-0.247 0.164-0.396 0.164h-8.729l1.844 1.844c0.053 0.052 0.096 0.113 0.126 0.182s0.045 0.142 0.045 0.216c0.001 0.074-0.014 0.148-0.042 0.217s-0.070 0.131-0.122 0.184-0.115 0.094-0.184 0.122c-0.069 0.028-0.143 0.042-0.217 0.042s-0.148-0.016-0.216-0.045c-0.068-0.029-0.13-0.072-0.182-0.125l-2.8-2.8c-0.105-0.105-0.164-0.248-0.164-0.396s0.059-0.291 0.164-0.396l2.8-2.8c0.106-0.102 0.247-0.159 0.394-0.157s0.287 0.060 0.391 0.164c0.104 0.104 0.163 0.244 0.164 0.391s-0.055 0.288-0.157 0.394l-1.844 1.844h8.729c0.148 0 0.291 0.059 0.396 0.164s0.164 0.247 0.164 0.396z"></path>
</symbol>

<symbol id="icon-arrow-right" viewBox="0 0 32 32">
<path fill="none" stroke="#ee8e18" style="stroke: var(--color1, #ee8e18)" stroke-linejoin="miter" stroke-linecap="butt" stroke-miterlimit="4" stroke-width="1" d="M31.5 16c0 8.56-6.94 15.5-15.5 15.5s-15.5-6.94-15.5-15.5c0-8.56 6.94-15.5 15.5-15.5s15.5 6.94 15.5 15.5z"></path>
<path fill="#ee8e18" style="fill: var(--color1, #ee8e18)" d="M10 16.353c0 0.148 0.059 0.291 0.164 0.396s0.248 0.164 0.396 0.164h8.729l-1.844 1.844c-0.053 0.052-0.096 0.113-0.126 0.182s-0.045 0.142-0.045 0.216c-0.001 0.074 0.014 0.148 0.042 0.217s0.070 0.131 0.122 0.184 0.115 0.094 0.184 0.122c0.069 0.028 0.142 0.042 0.217 0.042s0.148-0.016 0.216-0.045c0.068-0.029 0.13-0.072 0.182-0.125l2.8-2.8c0.105-0.105 0.164-0.248 0.164-0.396s-0.059-0.291-0.164-0.396l-2.8-2.8c-0.106-0.102-0.247-0.159-0.394-0.157s-0.287 0.060-0.391 0.164c-0.104 0.104-0.163 0.244-0.164 0.391s0.055 0.288 0.157 0.394l1.844 1.844h-8.729c-0.149 0-0.291 0.059-0.396 0.164s-0.164 0.247-0.164 0.396z"></path>
</symbol>

<symbol id="quotes"  viewBox="0 0 5 7" fill="none">
<path d="M0.707071 6.36364C1.03704 6.04938 1.34343 5.67228 1.62626 5.23232C1.90909 4.79237 2.08193 4.35241 2.14478 3.91246C1.53199 3.91246 1.02132 3.74747 0.612795 3.41751C0.204265 3.07183 0 2.6083 0 2.02694C0 1.42985 0.188552 0.942761 0.565657 0.565656C0.942761 0.188552 1.42985 0 2.02694 0C2.62402 0 3.10326 0.196408 3.46465 0.589225C3.84175 0.982043 4.0303 1.47699 4.0303 2.07407C4.0303 3.03255 3.78676 3.96745 3.29966 4.87879C2.81257 5.79012 2.17621 6.49719 1.39057 7L0.707071 6.36364Z" fill="black"/>
</symbol>

<symbol id="star"  width="10" height="10" viewBox="0 0 10 10" fill="none">
<path d="M9.97597 3.84498C9.94327 3.74474 9.87972 3.65739 9.7944 3.59543C9.70907 3.53347 9.60633 3.50006 9.50087 3.49998H6.5253L5.47509 0.340001C5.44131 0.240839 5.37733 0.154734 5.29213 0.0937597C5.20693 0.0327856 5.10478 0 5 0C4.89522 0 4.79307 0.0327856 4.70787 0.0937597C4.62267 0.154734 4.55869 0.240839 4.52491 0.340001L3.4747 3.49998H0.499127C0.393668 3.50006 0.290933 3.53347 0.205606 3.59543C0.120278 3.65739 0.056727 3.74474 0.0240348 3.84498C-0.00809211 3.94544 -0.00800945 4.05342 0.0242711 4.15383C0.0565516 4.25424 0.119416 4.34205 0.20407 4.40498L2.58953 6.15497L1.52433 9.33995C1.49061 9.44105 1.48988 9.55024 1.52224 9.65179C1.55459 9.75333 1.61837 9.84198 1.70436 9.90495C1.79065 9.96595 1.89374 9.9987 1.99942 9.9987C2.1051 9.9987 2.20818 9.96595 2.29448 9.90495L5 7.91996L7.70553 9.90495C7.79079 9.96812 7.89447 10.0015 8.00058 9.99995C8.10658 10.0007 8.21002 9.96743 8.29564 9.90495C8.38163 9.84198 8.44541 9.75333 8.47776 9.65179C8.51012 9.55024 8.50939 9.44105 8.47567 9.33995L8.31064 8.85495L7.41047 6.15497L9.79593 4.40498C9.88058 4.34205 9.94345 4.25424 9.97573 4.15383C10.008 4.05342 10.0081 3.94544 9.97597 3.84498Z" fill="#E3AD5C"/>
<path d="M8.29564 9.90496C8.21002 9.96745 8.10658 10.0008 8.00058 9.99996C7.89447 10.0015 7.79079 9.96814 7.70552 9.90496L5 7.91998L2.29448 9.90496C2.20818 9.96596 2.1051 9.99872 1.99942 9.99872C1.89374 9.99872 1.79065 9.96596 1.70436 9.90496C1.61837 9.84199 1.55459 9.75335 1.52224 9.6518C1.48988 9.55026 1.49061 9.44107 1.52433 9.33997L2.58953 6.15499L0.20407 4.405C0.119416 4.34207 0.0565516 4.25426 0.0242711 4.15385C-0.00800945 4.05344 -0.00809211 3.94546 0.0240348 3.845C0.056727 3.74475 0.120278 3.65741 0.205606 3.59545C0.290933 3.53348 0.393668 3.50008 0.499127 3.5H1.93441C3.32301 6.01301 5.59517 7.92124 8.31064 8.85497L8.47567 9.33997C8.50939 9.44107 8.51012 9.55026 8.47776 9.6518C8.44541 9.75335 8.38163 9.84199 8.29564 9.90496Z" fill="#EE8E18"/>
</symbol>

<symbol id="phone"  width="17" height="16" viewBox="0 0 17 16" fill="none">
<path d="M15.8942 10.424L12.6942 9.624C12.5341 9.58419 12.3656 9.59475 12.2117 9.65424C12.0578 9.71373 11.9261 9.81925 11.8344 9.9564L9.7864 13.0284C7.03376 11.6901 4.81009 9.4664 3.47176 6.71376L6.54376 4.66576C6.68108 4.5742 6.78672 4.44242 6.8462 4.28847C6.90568 4.13452 6.91609 3.96594 6.876 3.80584L6.076 0.60584C6.03271 0.432798 5.93283 0.279188 5.79223 0.169419C5.65163 0.0596496 5.47837 1.8086e-05 5.3 0H1.3C1.08783 0 0.884344 0.0842854 0.734315 0.234315C0.584285 0.384344 0.5 0.587827 0.5 0.8C0.504869 4.8298 2.10786 8.69315 4.95736 11.5426C7.80685 14.3921 11.6702 15.9951 15.7 16C15.9122 16 16.1157 15.9157 16.2657 15.7657C16.4157 15.6157 16.5 15.4122 16.5 15.2V11.2C16.5 11.0216 16.4404 10.8484 16.3306 10.7078C16.2208 10.5672 16.0672 10.4673 15.8942 10.424ZM5.18712 3.64728L2.84704 5.20728C2.43085 4.0474 2.19266 2.83119 2.14056 1.6H4.67536L5.18712 3.64728ZM12.8527 11.3129L14.9 11.8249V14.3597C13.6686 14.3103 12.4521 14.072 11.293 13.6532L12.8527 11.3129Z" fill="#262525"/>
</symbol>

<symbol id="viber"  width="20" height="20" viewBox="0 0 20 20" fill="none">
  <path fill-rule="evenodd" clip-rule="evenodd" d="M10 0C15.5228 0 20 4.47715 20 10C20 15.5228 15.5228 20 10 20C4.47715 20 0 15.5228 0 10C0 4.47715 4.47715 0 10 0ZM12.6642 8.73267C12.6156 8.33754 12.4941 8.02728 12.2784 7.75247C11.9984 7.3986 11.6405 7.1867 11.1106 7.061C10.7653 6.97722 10.6258 6.98684 10.5009 7.10092C10.3846 7.2078 10.3619 7.42207 10.4508 7.56082C10.5133 7.66153 10.5854 7.69761 10.786 7.73698C11.0531 7.78613 11.2377 7.84992 11.4057 7.94593C11.7621 8.15174 11.9281 8.4738 11.9459 8.99519C11.9542 9.24 11.9753 9.31527 12.0608 9.40209C12.2193 9.56081 12.5013 9.52994 12.621 9.34001C12.6649 9.26842 12.6716 9.23726 12.6762 9.07103C12.6793 8.96811 12.6749 8.81493 12.6642 8.73267ZM12.669 6.3084C13.5164 6.99366 13.9899 7.96762 14.0603 9.17819C14.0899 9.655 14.0505 9.81028 13.8823 9.89875C13.7305 9.9807 13.5585 9.95372 13.4406 9.83033C13.3624 9.75008 13.3324 9.64031 13.3335 9.44594C13.337 8.90854 13.2132 8.30841 13.0118 7.89197C12.7789 7.4073 12.4187 6.99484 11.9657 6.69329C11.5688 6.42844 11.0436 6.24953 10.5344 6.20498C10.2041 6.17609 10.0861 6.12014 10.0227 5.9618C9.98347 5.86708 9.99385 5.70333 10.0399 5.62998C10.0834 5.56235 10.1811 5.48756 10.2502 5.46779C10.3234 5.44644 10.75 5.48377 10.9818 5.52982C11.6144 5.65858 12.1915 5.92335 12.669 6.3084ZM15.6051 13.8401C15.5814 13.7709 15.5262 13.6642 15.4867 13.6029C15.238 13.2274 13.9019 12.1818 13.2348 11.8398C12.8539 11.6441 12.5717 11.5789 12.3625 11.6402C12.1375 11.7034 12.019 11.8082 11.6421 12.2766C11.4901 12.4644 11.3342 12.6403 11.2928 12.668C11.1901 12.7392 10.9888 12.7965 10.8467 12.7965C10.5171 12.7945 9.91911 12.581 9.45926 12.3003C9.10203 12.0829 8.64418 11.6936 8.29285 11.3081C7.87838 10.8555 7.59618 10.4562 7.37314 10.0055C7.08501 9.42638 7.01198 9.07256 7.13236 8.81361C7.16197 8.74839 7.20145 8.67923 7.21919 8.65745C7.23696 8.63772 7.42249 8.4855 7.62772 8.31946C8.03036 7.99927 8.09548 7.92613 8.17048 7.70672C8.26521 7.42801 8.23957 7.14338 8.09352 6.85678C7.98101 6.63935 7.68695 6.16497 7.4738 5.8586C7.19157 5.45538 6.48896 4.59358 6.34882 4.47693C6.0962 4.27138 5.77255 4.23578 5.41529 4.37417C5.03837 4.52045 4.33179 5.0897 4.02982 5.48701C3.75746 5.84674 3.65289 6.10171 3.63708 6.43774C3.62328 6.71445 3.64695 6.8291 3.793 7.18292C4.93573 9.95807 6.64091 12.1739 8.98362 13.9331C10.2073 14.8522 11.4763 15.5519 12.7927 16.0302C13.5604 16.3089 13.894 16.3228 14.2867 16.0935C14.4525 15.9946 14.863 15.5736 15.0919 15.2673C15.4709 14.7573 15.611 14.5221 15.6505 14.3343C15.6781 14.2058 15.6564 13.9825 15.6051 13.8401ZM15.1005 7.58356C15.3409 8.20978 15.4562 8.77145 15.4814 9.45622C15.4855 9.5915 15.4836 9.83934 15.4748 10.0072C15.4566 10.3291 15.4391 10.393 15.3465 10.4782C15.1975 10.6179 14.9073 10.5846 14.7972 10.4162C14.7397 10.3259 14.7316 10.2597 14.7427 9.88365C14.7747 8.77137 14.5497 7.90048 14.0078 7.02965C13.3602 5.98487 12.3916 5.28106 11.132 4.93674C10.8108 4.84909 10.5401 4.79568 10.1191 4.739C9.84484 4.7031 9.78478 4.68793 9.7171 4.64627C9.51263 4.51531 9.50991 4.1837 9.71374 4.05074C9.81892 3.98056 9.89648 3.97742 10.2393 4.02133C11.2447 4.14696 12.1417 4.44569 12.8789 4.89711C13.4072 5.2211 13.7404 5.51216 14.1693 6.02192C14.6229 6.5656 14.8631 6.96756 15.1005 7.58356Z" fill="url(#paint0_linear_2002_21149)"/>
  <defs>
    <linearGradient id="paint0_linear_2002_21149" x1="5.55368e-09" y1="1.34615" x2="20.5998" y2="1.84957" gradientUnits="userSpaceOnUse">
      <stop offset="0.005" stop-color="#7E7B79"/>
      <stop offset="0.28" stop-color="#524D45"/>
      <stop offset="1" stop-color="#211E1E"/>
    </linearGradient>
  </defs>
</symbol>

<symbol id="telegram-form"  width="21" height="20" viewBox="0 0 21 20" fill="none">
<path d="M10.6667 20C16.1896 20 20.6667 15.5228 20.6667 10C20.6667 4.47717 16.1896 0 10.6667 0C5.14391 0 0.666748 4.47717 0.666748 10C0.666748 15.5228 5.14391 20 10.6667 20Z" fill="url(#paint0_linear_2002_21154)"/>
<path d="M4.39109 10.49C5.56008 9.84605 6.865 9.30863 8.08425 8.76847C10.1818 7.88372 12.2877 7.0143 14.4149 6.20488C14.8288 6.06697 15.5724 5.93209 15.6453 6.54543C15.6054 7.41359 15.4412 8.27668 15.3285 9.13976C15.0425 11.0378 14.712 12.9293 14.3897 14.821C14.2787 15.4511 13.4893 15.7773 12.9842 15.3741C11.7704 14.5542 10.5472 13.7423 9.34892 12.9033C8.95637 12.5045 9.32037 11.9317 9.67096 11.6468C10.6707 10.6616 11.731 9.82451 12.6785 8.78834C12.934 8.17113 12.1789 8.6913 11.9298 8.85068C10.5611 9.79384 9.22596 10.7946 7.78296 11.6235C7.04587 12.0293 6.18679 11.6825 5.45004 11.4561C4.78945 11.1826 3.82144 10.9071 4.39102 10.49L4.39109 10.49Z" fill="#FFFDFA"/>
<defs>
<linearGradient id="paint0_linear_2002_21154" x1="0.666748" y1="1.34615" x2="21.2666" y2="1.84957" gradientUnits="userSpaceOnUse">
<stop offset="0.005" stop-color="#7E7B79"/>
<stop offset="0.28" stop-color="#524D45"/>
<stop offset="1" stop-color="#211E1E"/>
</linearGradient>
</defs>
</symbol>

<symbol id="fb-messenger-form"  width="21" height="20" viewBox="0 0 21 20" fill="none">
<path d="M10.3324 0C4.70037 0 0.333252 4.12713 0.333252 9.69914C0.333252 12.6139 1.52815 15.1337 3.47297 16.8735C3.63546 17.0185 3.73545 17.2235 3.74045 17.4435L3.79545 19.2233C3.81294 19.7907 4.39789 20.1607 4.91785 19.9307L6.90267 19.0558C7.07015 18.9808 7.26014 18.9683 7.43762 19.0158C8.35004 19.2658 9.31996 19.4008 10.3324 19.4008C15.9644 19.4008 20.3315 15.2736 20.3315 9.70164C20.3315 4.12963 15.9644 0 10.3324 0Z" fill="url(#paint0_linear_2002_21160)"/>
<path d="M4.32795 12.5358L7.26519 7.87617C7.73265 7.13374 8.73256 6.95126 9.435 7.47621L11.7723 9.22855C11.9873 9.38854 12.2822 9.38854 12.4947 9.22605L15.6494 6.83127C16.0694 6.5113 16.6194 7.01625 16.3394 7.46371L13.3996 12.1208C12.9322 12.8632 11.9323 13.0457 11.2298 12.5208L8.89254 10.7684C8.67756 10.6084 8.38259 10.6084 8.17011 10.7709L5.01539 13.1657C4.59543 13.4857 4.04547 12.9832 4.32795 12.5358Z" fill="#FFFDFA"/>
<defs>
<linearGradient id="paint0_linear_2002_21160" x1="0.333252" y1="1.34615" x2="20.9312" y2="1.84948" gradientUnits="userSpaceOnUse">
<stop offset="0.005" stop-color="#7E7B79"/>
<stop offset="0.28" stop-color="#524D45"/>
<stop offset="1" stop-color="#211E1E"/>
</linearGradient>
</defs>
</symbol>

<symbol id="whatsapp"  width="18" height="18" viewBox="0 0 18 18" fill="none">
<path fill-rule="evenodd" clip-rule="evenodd" d="M2.16629 13.0275L0.977051 17.3697L5.42063 16.2045C6.64503 16.8722 8.02345 17.2241 9.4262 17.2246H9.42981C14.0495 17.2246 17.8102 13.4651 17.8122 8.84502C17.813 6.60581 16.9417 4.5005 15.3593 2.91658C13.7765 1.33266 11.672 0.460078 9.42981 0.458984C4.80929 0.458984 1.04926 4.21791 1.04738 8.83827C1.04691 10.3151 1.43281 11.7568 2.16629 13.0275ZM2.4627 8.83871C2.46411 4.99862 5.58943 1.87444 9.4325 1.87444C11.2935 1.87523 13.0426 2.60052 14.3581 3.91692C15.6735 5.23333 16.3974 6.98335 16.3968 8.84437C16.3952 12.6848 13.2699 15.8093 9.42979 15.8093H9.42714C8.17668 15.8087 6.95055 15.473 5.8811 14.8383L5.62648 14.6874L2.98955 15.3788L3.69356 12.8088L3.52777 12.5454C2.8304 11.4364 2.46213 10.1546 2.4627 8.83871Z" fill="url(#paint0_linear_2002_21166)"/>
<path fill-rule="evenodd" clip-rule="evenodd" d="M7.33488 5.33508C7.17788 4.9864 7.01272 4.97933 6.86358 4.97321C6.74144 4.96803 6.60171 4.96834 6.46214 4.96834C6.32242 4.96834 6.09556 5.02078 5.90371 5.23037C5.71171 5.43995 5.17055 5.94658 5.17055 6.97709C5.17055 8.00761 5.92114 9.00327 6.0257 9.14315C6.13041 9.28287 7.4746 11.4651 9.60361 12.3046C11.3728 13.0022 11.7328 12.8635 12.1169 12.8286C12.5009 12.7938 13.3561 12.322 13.5305 11.8329C13.7051 11.3439 13.7051 10.9249 13.6528 10.8373C13.6004 10.7498 13.4608 10.6976 13.2512 10.5928C13.0418 10.4881 12.0121 9.98135 11.8201 9.91148C11.6281 9.84162 11.4885 9.80677 11.3488 10.0164C11.2092 10.2259 10.8081 10.6976 10.6858 10.8373C10.5636 10.9772 10.4415 10.9946 10.2319 10.8899C10.0225 10.7848 9.34786 10.564 8.54766 9.85041C7.92502 9.29528 7.50474 8.60968 7.38245 8.40009C7.2603 8.19051 7.36941 8.07716 7.47444 7.97275C7.56848 7.87887 7.68388 7.72816 7.78875 7.60586C7.89315 7.48356 7.92816 7.39627 7.99786 7.2567C8.06773 7.11682 8.03287 6.99452 7.98044 6.8898C7.92816 6.78509 7.52107 5.74924 7.33488 5.33508Z" fill="url(#paint1_linear_2002_21166)"/>
<defs>
<linearGradient id="paint0_linear_2002_21166" x1="0.977051" y1="1.5972" x2="18.3172" y2="2.01907" gradientUnits="userSpaceOnUse">
<stop offset="0.005" stop-color="#7E7B79"/>
<stop offset="0.28" stop-color="#524D45"/>
<stop offset="1" stop-color="#211E1E"/>
</linearGradient>
<linearGradient id="paint1_linear_2002_21166" x1="0.977051" y1="1.5972" x2="18.3172" y2="2.01907" gradientUnits="userSpaceOnUse">
<stop offset="0.005" stop-color="#7E7B79"/>
<stop offset="0.28" stop-color="#524D45"/>
<stop offset="1" stop-color="#211E1E"/>
</linearGradient>
</defs>
</symbol>

<symbol id="icon-messenger" viewBox="0 0 34 32">
<path fill="#000" style="fill: var(--color1, #000)" d="M16.532 0c-9.011 0-15.999 6.603-15.999 15.519 0 4.664 1.912 8.695 5.024 11.479 0.26 0.232 0.42 0.56 0.428 0.912l0.088 2.848c0.028 0.908 0.964 1.5 1.796 1.132l3.176-1.4c0.268-0.12 0.572-0.14 0.856-0.064 1.46 0.4 3.012 0.616 4.632 0.616 9.011 0 15.999-6.604 15.999-15.519s-6.987-15.523-15.999-15.523z"></path>
<path fill="#fffdfa" style="fill: var(--color2, #fffdfa)" d="M6.925 20.057l4.7-7.455c0.748-1.188 2.348-1.48 3.472-0.64l3.74 2.804c0.344 0.256 0.816 0.256 1.156-0.004l5.048-3.832c0.672-0.512 1.552 0.296 1.104 1.012l-4.704 7.451c-0.748 1.188-2.348 1.48-3.472 0.64l-3.74-2.804c-0.344-0.256-0.816-0.256-1.156 0.004l-5.048 3.832c-0.672 0.512-1.552-0.292-1.1-1.008z"></path>
</symbol>

<symbol id="icon-telegram" viewBox="0 0 34 32">
<path fill="#000" style="fill: var(--color1, #000)" d="M17.067 32c8.837 0 16-7.164 16-16s-7.163-16-16-16c-8.836 0-16 7.163-16 16s7.163 16 16 16z"></path>
<path fill="#fffdfa" style="fill: var(--color2, #fffdfa)" d="M7.026 16.784c1.87-1.030 3.958-1.89 5.909-2.754 3.356-1.416 6.726-2.807 10.129-4.102 0.662-0.221 1.852-0.436 1.969 0.545-0.064 1.389-0.327 2.77-0.507 4.151-0.458 3.037-0.986 6.063-1.502 9.090-0.178 1.008-1.441 1.53-2.249 0.885-1.942-1.312-3.899-2.611-5.816-3.953-0.628-0.638-0.046-1.555 0.515-2.010 1.6-1.576 3.296-2.916 4.812-4.574 0.409-0.988-0.799-0.155-1.198 0.1-2.19 1.509-4.326 3.11-6.635 4.437-1.179 0.649-2.554 0.094-3.733-0.268-1.057-0.438-2.606-0.878-1.694-1.546h0z"></path>
</symbol>

<symbol id="icon-viber" viewBox="0 0 32 32">
<path d="M16 0c8.836 0 16 7.163 16 16s-7.164 16-16 16c-8.837 0-16-7.164-16-16s7.163-16 16-16zM20.263 13.972c-0.078-0.632-0.272-1.129-0.617-1.568-0.448-0.566-1.021-0.905-1.868-1.106-0.552-0.134-0.776-0.119-0.976 0.064-0.186 0.171-0.222 0.514-0.080 0.736 0.1 0.161 0.215 0.219 0.536 0.282 0.427 0.079 0.723 0.181 0.992 0.334 0.57 0.329 0.836 0.845 0.864 1.679 0.013 0.392 0.047 0.512 0.184 0.651 0.254 0.254 0.705 0.205 0.896-0.099 0.070-0.115 0.081-0.164 0.088-0.43 0.005-0.165-0.002-0.41-0.019-0.541zM20.27 10.093c1.356 1.096 2.113 2.655 2.226 4.592 0.047 0.763-0.016 1.011-0.285 1.153-0.243 0.131-0.518 0.088-0.707-0.109-0.125-0.128-0.173-0.304-0.171-0.615 0.006-0.86-0.192-1.82-0.515-2.486-0.373-0.775-0.949-1.435-1.674-1.918-0.635-0.424-1.475-0.71-2.29-0.781-0.528-0.046-0.717-0.136-0.819-0.389-0.063-0.152-0.046-0.414 0.028-0.531 0.070-0.108 0.226-0.228 0.336-0.259 0.117-0.034 0.8 0.026 1.171 0.099 1.012 0.206 1.936 0.63 2.7 1.246zM24.968 22.144c-0.038-0.111-0.126-0.281-0.189-0.38-0.398-0.601-2.536-2.274-3.603-2.821-0.609-0.313-1.061-0.417-1.396-0.319-0.36 0.101-0.55 0.269-1.153 1.018-0.243 0.3-0.493 0.582-0.559 0.626-0.164 0.114-0.486 0.206-0.714 0.206-0.527-0.003-1.484-0.345-2.22-0.794-0.572-0.348-1.304-0.971-1.866-1.588-0.663-0.724-1.115-1.363-1.472-2.084-0.461-0.927-0.578-1.493-0.385-1.907 0.047-0.104 0.111-0.215 0.139-0.25 0.028-0.032 0.325-0.275 0.654-0.541 0.644-0.512 0.748-0.629 0.868-0.98 0.152-0.446 0.111-0.901-0.123-1.36-0.18-0.348-0.65-1.107-0.992-1.597-0.452-0.645-1.576-2.024-1.8-2.211-0.404-0.329-0.922-0.386-1.494-0.164-0.603 0.234-1.734 1.145-2.217 1.781-0.436 0.576-0.603 0.984-0.628 1.521-0.022 0.443 0.016 0.626 0.249 1.192 1.828 4.44 4.557 7.986 8.305 10.8 1.958 1.471 3.988 2.59 6.095 3.355 1.228 0.446 1.762 0.468 2.39 0.101 0.265-0.158 0.922-0.832 1.288-1.322 0.606-0.816 0.831-1.192 0.894-1.493 0.044-0.206 0.009-0.563-0.073-0.791zM24.161 12.134c0.385 1.002 0.569 1.901 0.609 2.996 0.007 0.216 0.004 0.613-0.011 0.882-0.029 0.515-0.057 0.617-0.205 0.754-0.238 0.224-0.703 0.17-0.879-0.099-0.092-0.144-0.105-0.25-0.087-0.852 0.051-1.78-0.309-3.173-1.176-4.566-1.036-1.672-2.586-2.798-4.601-3.349-0.514-0.14-0.947-0.226-1.621-0.316-0.439-0.057-0.535-0.082-0.643-0.148-0.327-0.21-0.332-0.74-0.005-0.953 0.168-0.112 0.292-0.117 0.841-0.047 1.609 0.201 3.044 0.679 4.223 1.401 0.845 0.518 1.378 0.984 2.065 1.8 0.726 0.87 1.11 1.513 1.49 2.499z"></path>
</symbol>

<symbol id="icon-whatsapp" viewBox="0 0 32 32">
<path d="M3.851 23.16l-2.114 7.719 7.9-2.071c2.177 1.187 4.627 1.813 7.121 1.814h0.006c8.213 0 14.898-6.684 14.902-14.897 0.001-3.981-1.548-7.724-4.361-10.539s-6.555-4.367-10.541-4.369c-8.214 0-14.899 6.683-14.902 14.896-0.001 2.625 0.685 5.188 1.989 7.448zM4.378 15.713c0.003-6.827 5.559-12.381 12.391-12.381 3.308 0.001 6.418 1.291 8.757 3.631s3.625 5.451 3.624 8.76c-0.003 6.827-5.559 12.382-12.386 12.382h-0.005c-2.223-0.001-4.403-0.598-6.304-1.726l-0.453-0.268-4.688 1.229 1.252-4.569-0.295-0.468c-1.24-1.972-1.894-4.25-1.893-6.59z"></path>
<path d="M13.040 9.485c-0.279-0.62-0.573-0.632-0.838-0.643-0.217-0.009-0.466-0.009-0.714-0.009s-0.652 0.093-0.993 0.466c-0.341 0.373-1.303 1.273-1.303 3.105s1.334 3.602 1.52 3.851c0.186 0.248 2.576 4.128 6.361 5.62 3.145 1.24 3.785 0.994 4.468 0.932s2.203-0.901 2.513-1.77c0.31-0.869 0.31-1.614 0.217-1.77s-0.341-0.248-0.714-0.435c-0.372-0.186-2.203-1.087-2.544-1.211s-0.59-0.186-0.838 0.187c-0.248 0.372-0.961 1.211-1.179 1.459s-0.434 0.28-0.807 0.093c-0.372-0.187-1.572-0.579-2.994-1.848-1.107-0.987-1.854-2.206-2.072-2.578s-0.023-0.574 0.164-0.76c0.167-0.167 0.372-0.435 0.559-0.652s0.248-0.373 0.372-0.621c0.124-0.249 0.062-0.466-0.031-0.652s-0.817-2.028-1.148-2.764z"></path>
</symbol>



</defs>
</svg>