<svg aria-hidden="true" style="position: absolute; width: 0; height: 0; overflow: hidden;" version="1.1" xmlns="http://www.w3.org/2000/svg" xmlns:xlink="http://www.w3.org/1999/xlink">
<defs>
<symbol id="scale" viewBox="0 0 14 15"> 
<path d="M13.9385 5.4891L12.6106 2.83334H13.4167C13.5714 2.83334 13.7197 2.77188 13.8291 2.66248C13.9385 2.55309 14 2.40471 14 2.25C14 2.09529 13.9385 1.94692 13.8291 1.83753C13.7197 1.72813 13.5714 1.66667 13.4167 1.66667H8.64251C8.52363 1.32582 8.30165 1.03039 8.00734 0.82135C7.71304 0.612306 7.36099 0.5 7 0.5C6.63901 0.5 6.28696 0.612306 5.99266 0.82135C5.69835 1.03039 5.47637 1.32582 5.35749 1.66667H0.583333C0.428624 1.66667 0.280251 1.72813 0.170854 1.83753C0.0614582 1.94692 0 2.09529 0 2.25C0 2.40471 0.0614582 2.55309 0.170854 2.66248C0.280251 2.77188 0.428624 2.83334 0.583333 2.83334H1.38941L0.0615242 5.4891C0.0338833 5.57423 0.0133056 5.66149 0 5.75L0 6.91667C0 7.53551 0.245833 8.129 0.683417 8.56659C1.121 9.00417 1.71449 9.25 2.33333 9.25C2.95217 9.25 3.54566 9.00417 3.98325 8.56659C4.42083 8.129 4.66667 7.53551 4.66667 6.91667V5.75C4.65336 5.66149 4.63278 5.57423 4.60514 5.4891L3.27726 2.83334H5.35753C5.44451 3.07735 5.58467 3.29897 5.76785 3.48215C5.95103 3.66533 6.17265 3.80549 6.41667 3.89248V9.83334H5.25C4.94069 9.83369 4.64415 9.95672 4.42543 10.1754C4.20672 10.3942 4.08369 10.6907 4.08333 11V11.5833H3.5C3.03603 11.5838 2.5912 11.7684 2.26312 12.0965C1.93504 12.4245 1.75051 12.8694 1.75 13.3333V13.9167C1.74998 13.9933 1.76505 14.0691 1.79436 14.1399C1.82367 14.2107 1.86664 14.275 1.92081 14.3292C1.97498 14.3834 2.0393 14.4263 2.11008 14.4556C2.18086 14.4849 2.25672 14.5 2.33333 14.5H11.6667C11.7433 14.5 11.8191 14.4849 11.8899 14.4556C11.9607 14.4263 12.025 14.3834 12.0792 14.3292C12.1334 14.275 12.1763 14.2107 12.2056 14.1399C12.2349 14.0691 12.25 13.9933 12.25 13.9167V13.3333C12.2495 12.8694 12.065 12.4245 11.7369 12.0965C11.4088 11.7684 10.964 11.5838 10.5 11.5833H9.91667V11C9.91631 10.6907 9.79328 10.3942 9.57457 10.1754C9.35585 9.95672 9.05931 9.83369 8.75 9.83334H7.58333V3.89251C7.82735 3.80552 8.04898 3.66535 8.23216 3.48217C8.41535 3.29898 8.55551 3.07736 8.64251 2.83334H10.7227L9.39486 5.4891C9.36722 5.57423 9.34664 5.66149 9.33333 5.75V6.91667C9.33333 7.53551 9.57917 8.129 10.0168 8.56659C10.4543 9.00417 11.0478 9.25 11.6667 9.25C12.2855 9.25 12.879 9.00417 13.3166 8.56659C13.7542 8.129 14 7.53551 14 6.91667V5.75C13.9867 5.66149 13.9661 5.57423 13.9385 5.4891ZM2.33333 3.55453L3.13941 5.16667H1.52726L2.33333 3.55453ZM3.5 6.91667C3.5 7.22609 3.37708 7.52284 3.15829 7.74163C2.9395 7.96042 2.64275 8.08334 2.33333 8.08334C2.02391 8.08334 1.72717 7.96042 1.50838 7.74163C1.28958 7.52284 1.16667 7.22609 1.16667 6.91667V6.33334H3.5V6.91667ZM11.0833 13.3333H2.91667C2.91682 13.1787 2.97833 13.0304 3.08769 12.921C3.19705 12.8117 3.34534 12.7502 3.5 12.75H10.5C10.6547 12.7502 10.8029 12.8117 10.9123 12.921C11.0217 13.0304 11.0832 13.1787 11.0833 13.3333ZM8.75 11.5833H5.25V11H8.75V11.5833ZM7 2.83334C6.88463 2.83334 6.77185 2.79913 6.67592 2.73503C6.57999 2.67093 6.50522 2.57983 6.46107 2.47324C6.41692 2.36665 6.40537 2.24936 6.42788 2.1362C6.45038 2.02305 6.50594 1.91911 6.58752 1.83753C6.6691 1.75594 6.77304 1.70039 6.8862 1.67788C6.99935 1.65537 7.11664 1.66692 7.22323 1.71107C7.32982 1.75523 7.42093 1.82999 7.48502 1.92592C7.54912 2.02185 7.58333 2.13463 7.58333 2.25C7.58318 2.40467 7.52167 2.55295 7.41231 2.66231C7.30295 2.77168 7.15466 2.83318 7 2.83334ZM12.4727 5.16667H10.8606L11.6667 3.55453L12.4727 5.16667ZM12.8333 6.91667C12.8333 7.22609 12.7104 7.52284 12.4916 7.74163C12.2728 7.96042 11.9761 8.08334 11.6667 8.08334C11.3572 8.08334 11.0605 7.96042 10.8417 7.74163C10.6229 7.52284 10.5 7.22609 10.5 6.91667V6.33334H12.8333V6.91667Z" />
</symbol>

<symbol id="burger-menu" viewBox="0 0 24 24">
  <path d="M4 18H20C20.55 18 21 17.55 21 17C21 16.45 20.55 16 20 16H4C3.45 16 3 16.45 3 17C3 17.55 3.45 18 4 18ZM4 13H20C20.55 13 21 12.55 21 12C21 11.45 20.55 11 20 11H4C3.45 11 3 11.45 3 12C3 12.55 3.45 13 4 13ZM3 7C3 7.55 3.45 8 4 8H20C20.55 8 21 7.55 21 7C21 6.45 20.55 6 20 6H4C3.45 6 3 6.45 3 7Z" />
</symbol>

<symbol id="close-cross" viewBox="0 0 24 24" fill="none">
<path d="M19 6.41L17.59 5L12 10.59L6.41 5L5 6.41L10.59 12L5 17.59L6.41 19L12 13.41L17.59 19L19 17.59L13.41 12L19 6.41Z" fill="#FCFEFF"/>
</symbol>

<symbol id="facebook-icon" viewBox="0 0 20 21" fill="none">
  <path fill-rule="evenodd" clip-rule="evenodd" d="M0 10.4551C0 4.93223 4.47715 0.455078 10 0.455078C15.5228 0.455078 20 4.93223 20 10.4551C20 15.9779 15.5228 20.4551 10 20.4551C4.47715 20.4551 0 15.9779 0 10.4551ZM11.0423 16.3349V10.8943H12.5441L12.7432 9.0195H11.0423L11.0449 8.08112C11.0449 7.59214 11.0913 7.33013 11.7937 7.33013H12.7325V5.45508H11.2305C9.42631 5.45508 8.79128 6.36458 8.79128 7.89406V9.01971H7.66667V10.8945H8.79128V16.3349H11.0423Z" fill="white"/>  <path fill-rule="evenodd" clip-rule="evenodd" d="M0 10.4551C0 4.93223 4.47715 0.455078 10 0.455078C15.5228 0.455078 20 4.93223 20 10.4551C20 15.9779 15.5228 20.4551 10 20.4551C4.47715 20.4551 0 15.9779 0 10.4551ZM11.0423 16.3349V10.8943H12.5441L12.7432 9.0195H11.0423L11.0449 8.08112C11.0449 7.59214 11.0913 7.33013 11.7937 7.33013H12.7325V5.45508H11.2305C9.42631 5.45508 8.79128 6.36458 8.79128 7.89406V9.01971H7.66667V10.8945H8.79128V16.3349H11.0423Z" fill="white"/>
</symbol>

<symbol id="instagram-icon" viewBox="0 0 20 21" fill="none">
  <path d="M10.0007 0.455078C7.28487 0.455078 6.94403 0.466953 5.87735 0.515495C4.81276 0.564245 4.08608 0.732787 3.45024 0.980078C2.79253 1.23549 2.23461 1.57716 1.67877 2.1332C1.12251 2.68904 0.780841 3.24695 0.524589 3.90445C0.276669 4.54049 0.107918 5.26737 0.0600007 6.33154C0.0125002 7.3982 0 7.73924 0 10.4551C0 13.1709 0.0120836 13.5107 0.0604175 14.5774C0.109376 15.642 0.27792 16.3686 0.525006 17.0045C0.780633 17.6622 1.1223 18.2201 1.67835 18.7759C2.23398 19.3322 2.7919 19.6747 3.4492 19.9301C4.08546 20.1774 4.81234 20.3459 5.87673 20.3947C6.94341 20.4432 7.28403 20.4551 9.99969 20.4551C12.7158 20.4551 13.0556 20.4432 14.1222 20.3947C15.1868 20.3459 15.9143 20.1774 16.5506 19.9301C17.2081 19.6747 17.7652 19.3322 18.3208 18.7759C18.8771 18.2201 19.2187 17.6622 19.475 17.0047C19.7208 16.3686 19.8896 15.6417 19.9396 14.5776C19.9875 13.5109 20 13.1709 20 10.4551C20 7.73924 19.9875 7.39841 19.9396 6.33174C19.8896 5.26716 19.7208 4.54049 19.475 3.90466C19.2187 3.24695 18.8771 2.68904 18.3208 2.1332C17.7646 1.57695 17.2083 1.23529 16.55 0.980078C15.9125 0.732787 15.1854 0.564245 14.1208 0.515495C13.0541 0.466953 12.7145 0.455078 9.99781 0.455078H10.0007ZM9.10364 2.25716C9.36989 2.25674 9.66698 2.25716 10.0007 2.25716C12.6708 2.25716 12.9872 2.26674 14.0416 2.31466C15.0166 2.35924 15.5458 2.52216 15.8983 2.65904C16.365 2.84029 16.6977 3.05695 17.0475 3.40695C17.3975 3.75695 17.6141 4.09029 17.7958 4.55695C17.9327 4.90904 18.0958 5.4382 18.1402 6.4132C18.1881 7.46737 18.1985 7.78404 18.1985 10.4528C18.1985 13.1215 18.1881 13.4382 18.1402 14.4924C18.0956 15.4674 17.9327 15.9965 17.7958 16.3486C17.6146 16.8153 17.3975 17.1476 17.0475 17.4974C16.6975 17.8474 16.3652 18.064 15.8983 18.2453C15.5462 18.3828 15.0166 18.5453 14.0416 18.5899C12.9874 18.6378 12.6708 18.6482 10.0007 18.6482C7.33049 18.6482 7.01403 18.6378 5.95985 18.5899C4.98484 18.5449 4.45567 18.382 4.10296 18.2451C3.63629 18.0638 3.30295 17.8472 2.95295 17.4972C2.60294 17.1472 2.38628 16.8147 2.20461 16.3478C2.06773 15.9957 1.9046 15.4665 1.86023 14.4915C1.81231 13.4374 1.80273 13.1207 1.80273 10.4503C1.80273 7.77987 1.81231 7.46487 1.86023 6.4107C1.90481 5.4357 2.06773 4.90654 2.20461 4.55404C2.38586 4.08737 2.60294 3.75404 2.95295 3.40404C3.30295 3.05404 3.63629 2.83737 4.10296 2.6557C4.45546 2.5182 4.98484 2.3557 5.95985 2.31091C6.88236 2.26924 7.23987 2.25674 9.10364 2.25466V2.25716Z" fill="white"/>
  <path d="M15.3172 3.89301C15.0798 3.89301 14.8478 3.9634 14.6505 4.09528C14.4531 4.22716 14.2993 4.41459 14.2085 4.63389C14.1177 4.85319 14.0939 5.09449 14.1403 5.32728C14.1866 5.56006 14.3009 5.77388 14.4688 5.94169C14.6367 6.1095 14.8505 6.22375 15.0833 6.27001C15.3161 6.31626 15.5574 6.29244 15.7767 6.20155C15.996 6.11066 16.1834 5.95679 16.3152 5.7594C16.447 5.562 16.5173 5.32995 16.5172 5.0926C16.5172 4.4301 15.9797 3.89301 15.3172 3.89301Z" fill="white"/>
  <path fill-rule="evenodd" clip-rule="evenodd" d="M9.97922 5.2951C7.14315 5.2951 4.84375 7.59447 4.84375 10.4305C4.84375 13.2666 7.14315 15.5649 9.97922 15.5649C12.8153 15.5649 15.1141 13.2666 15.1141 10.4305C15.1141 7.59447 12.8153 5.2951 9.97922 5.2951ZM10 13.7363C11.8122 13.7363 13.2813 12.2673 13.2813 10.4551C13.2813 8.64291 11.8122 7.17385 10 7.17385C8.18782 7.17385 6.71875 8.64291 6.71875 10.4551C6.71875 12.2673 8.18782 13.7363 10 13.7363Z" fill="white"/>
</symbol>

<symbol id="tik-tok-icon" viewBox="0 0 20 21" fill="none">
  <path fill-rule="evenodd" clip-rule="evenodd" d="M6.02942 16.0064C6.42546 16.2153 6.86654 16.3244 7.31429 16.3242C8.80575 16.3242 10.0233 15.1379 10.0782 13.6592L10.0837 0.455078H13.3782C13.3785 0.73553 13.4045 1.01536 13.456 1.29104H11.0439V1.2915H14.3387C14.3383 2.39659 14.7388 3.46431 15.466 4.2964L15.467 4.29747C16.2088 4.78208 17.0759 5.03974 17.962 5.03891V5.77266C18.2721 5.83908 18.5928 5.87445 18.9226 5.87445V9.16974C17.2778 9.17166 15.6741 8.65595 14.3387 7.6957V14.3912C14.3387 17.7346 11.6183 20.4551 8.27442 20.4551C7.44171 20.4553 6.61792 20.2835 5.85467 19.9505C5.09196 19.6177 4.40621 19.1311 3.84022 18.5211L3.83898 18.5202C2.27515 17.4222 1.25 15.6065 1.25 13.5552C1.25 10.2114 3.97044 7.49049 7.31429 7.49049C7.58775 7.49179 7.86075 7.5117 8.1315 7.55004V8.33012C8.15054 8.32974 8.16946 8.32908 8.18846 8.32845C8.21696 8.32745 8.24554 8.32645 8.27442 8.32645C8.54783 8.32774 8.82087 8.34766 9.09158 8.38599V11.7496C8.83325 11.6685 8.55979 11.6213 8.27442 11.6213C7.54008 11.6222 6.83608 11.9143 6.31687 12.4336C5.79767 12.9529 5.50567 13.6569 5.50496 14.3912C5.505 14.9712 5.68829 15.5364 6.02871 16.006L6.02942 16.0064ZM2.61012 16.555C2.89156 17.2882 3.31158 17.9535 3.83764 18.5188C3.30087 17.9444 2.8864 17.2763 2.61012 16.555Z" fill="white"/>
</symbol>

<symbol id="telegram-icon" viewBox="0 0 20 21" fill="none">
  <path fill-rule="evenodd" clip-rule="evenodd" d="M20 10.4551C20 15.9779 15.5228 20.4551 10 20.4551C4.47717 20.4551 0 15.9779 0 10.4551C0 4.93224 4.47717 0.455078 10 0.455078C15.5228 0.455078 20 4.93224 20 10.4551ZM6.69646 9.53904C5.69471 9.97641 4.66546 10.4258 3.72427 10.9442C3.23282 11.3041 3.88599 11.5586 4.49879 11.7974C4.59621 11.8353 4.69258 11.8729 4.78321 11.9104C4.85862 11.9336 4.93529 11.958 5.013 11.9827C5.69454 12.1999 6.45446 12.442 7.11613 12.0778C8.20304 11.4534 9.22875 10.7316 10.2537 10.0103C10.5895 9.77395 10.9252 9.5377 11.263 9.30495C11.2788 9.29483 11.2966 9.28324 11.3162 9.27062C11.6039 9.08408 12.251 8.66462 12.0116 9.24262C11.4456 9.86162 10.8393 10.4095 10.2298 10.9605C9.81896 11.3318 9.40663 11.7045 9.00413 12.1011C8.65358 12.386 8.28954 12.9587 8.68208 13.3576C9.58621 13.9905 10.5045 14.6081 11.4222 15.2254C11.7208 15.4262 12.0194 15.627 12.3174 15.8284C12.8225 16.2316 13.6119 15.9054 13.7229 15.2753C13.7723 14.9854 13.8219 14.6956 13.8715 14.4057C14.1455 12.8037 14.4195 11.2012 14.6617 9.59404C14.6946 9.34191 14.7319 9.08983 14.7692 8.83762C14.8597 8.22633 14.9503 7.61429 14.9785 6.9997C14.9056 6.38637 14.162 6.52124 13.7481 6.65916C11.621 7.46858 9.51504 8.33799 7.41746 9.22274C7.17983 9.32799 6.93896 9.43316 6.69646 9.53904Z" fill="white"/>
</symbol>



</defs>
</svg>