<svg aria-hidden="true" style="position: absolute; width: 0; height: 0; overflow: hidden;" version="1.1" xmlns="http://www.w3.org/2000/svg" xmlns:xlink="http://www.w3.org/1999/xlink">
<defs>
<symbol id="icon-arrow-left" viewBox="0 0 32 32">
<path fill="none" stroke="#ee8e18" style="stroke: var(--color1, #ee8e18)" stroke-linejoin="miter" stroke-linecap="butt" stroke-miterlimit="4" stroke-width="1" d="M31.5 16c0 8.56-6.94 15.5-15.5 15.5s-15.5-6.94-15.5-15.5c0-8.56 6.94-15.5 15.5-15.5s15.5 6.94 15.5 15.5z"></path>
<path fill="#ee8e18" style="fill: var(--color1, #ee8e18)" d="M21.2 16.353c0 0.148-0.059 0.291-0.164 0.396s-0.247 0.164-0.396 0.164h-8.729l1.844 1.844c0.053 0.052 0.096 0.113 0.126 0.182s0.045 0.142 0.045 0.216c0.001 0.074-0.014 0.148-0.042 0.217s-0.070 0.131-0.122 0.184-0.115 0.094-0.184 0.122c-0.069 0.028-0.143 0.042-0.217 0.042s-0.148-0.016-0.216-0.045c-0.068-0.029-0.13-0.072-0.182-0.125l-2.8-2.8c-0.105-0.105-0.164-0.248-0.164-0.396s0.059-0.291 0.164-0.396l2.8-2.8c0.106-0.102 0.247-0.159 0.394-0.157s0.287 0.060 0.391 0.164c0.104 0.104 0.163 0.244 0.164 0.391s-0.055 0.288-0.157 0.394l-1.844 1.844h8.729c0.148 0 0.291 0.059 0.396 0.164s0.164 0.247 0.164 0.396z"></path>
</symbol>
<symbol id="icon-arrow-right" viewBox="0 0 32 32">
<path fill="none" stroke="#ee8e18" style="stroke: var(--color1, #ee8e18)" stroke-linejoin="miter" stroke-linecap="butt" stroke-miterlimit="4" stroke-width="1" d="M31.5 16c0 8.56-6.94 15.5-15.5 15.5s-15.5-6.94-15.5-15.5c0-8.56 6.94-15.5 15.5-15.5s15.5 6.94 15.5 15.5z"></path>
<path fill="#ee8e18" style="fill: var(--color1, #ee8e18)" d="M10 16.353c0 0.148 0.059 0.291 0.164 0.396s0.248 0.164 0.396 0.164h8.729l-1.844 1.844c-0.053 0.052-0.096 0.113-0.126 0.182s-0.045 0.142-0.045 0.216c-0.001 0.074 0.014 0.148 0.042 0.217s0.070 0.131 0.122 0.184 0.115 0.094 0.184 0.122c0.069 0.028 0.142 0.042 0.217 0.042s0.148-0.016 0.216-0.045c0.068-0.029 0.13-0.072 0.182-0.125l2.8-2.8c0.105-0.105 0.164-0.248 0.164-0.396s-0.059-0.291-0.164-0.396l-2.8-2.8c-0.106-0.102-0.247-0.159-0.394-0.157s-0.287 0.060-0.391 0.164c-0.104 0.104-0.163 0.244-0.164 0.391s0.055 0.288 0.157 0.394l1.844 1.844h-8.729c-0.149 0-0.291 0.059-0.396 0.164s-0.164 0.247-0.164 0.396z"></path>
</symbol>
</defs>
</svg>
