<svg width="32" height="32" viewBox="0 0 32 32" fill="none" xmlns="http://www.w3.org/2000/svg">
<circle cx="16" cy="16" r="15.5" stroke="#EE8E18"/>
<path d="M21.2002 16.3534C21.2002 16.5019 21.1412 16.6444 21.0362 16.7494C20.9312 16.8544 20.7887 16.9134 20.6402 16.9134H11.9114L13.7556 18.7576C13.8091 18.8093 13.8517 18.8711 13.8811 18.9394C13.9104 19.0078 13.9259 19.0813 13.9265 19.1556C13.9272 19.23 13.913 19.3037 13.8849 19.3725C13.8567 19.4414 13.8151 19.5039 13.7625 19.5565C13.7099 19.6091 13.6474 19.6507 13.5786 19.6788C13.5098 19.707 13.436 19.7211 13.3616 19.7205C13.2873 19.7199 13.2138 19.7044 13.1455 19.6751C13.0771 19.6457 13.0153 19.603 12.9637 19.5496L10.1638 16.7497C10.059 16.6444 10.0002 16.5019 10.0002 16.3534C10.0002 16.2048 10.059 16.0623 10.1638 15.957L12.9637 13.1572C13.0693 13.0552 13.2108 12.9987 13.3576 13C13.5045 13.0013 13.6449 13.0602 13.7488 13.164C13.8526 13.2679 13.9115 13.4083 13.9128 13.5552C13.914 13.702 13.8576 13.8435 13.7556 13.9491L11.9114 15.7933H20.6402C20.7887 15.7933 20.9312 15.8523 21.0362 15.9574C21.1412 16.0624 21.2002 16.2048 21.2002 16.3534Z" fill="#EE8E18"/>
</svg>
