<svg width="32" height="32" viewBox="0 0 32 32" fill="none" xmlns="http://www.w3.org/2000/svg">
<circle cx="16" cy="16" r="15.5" stroke="#EE8E18"/>
<path d="M10.0002 16.3534C10.0002 16.5019 10.0592 16.6444 10.1642 16.7494C10.2693 16.8544 10.4117 16.9134 10.5602 16.9134H19.289L17.4449 18.7576C17.3914 18.8093 17.3487 18.8711 17.3193 18.9394C17.29 19.0078 17.2745 19.0813 17.2739 19.1556C17.2733 19.23 17.2874 19.3037 17.3156 19.3725C17.3437 19.4414 17.3853 19.5039 17.4379 19.5565C17.4905 19.6091 17.553 19.6507 17.6219 19.6788C17.6907 19.707 17.7644 19.7211 17.8388 19.7205C17.9132 19.7199 17.9866 19.7044 18.055 19.6751C18.1233 19.6457 18.1851 19.603 18.2368 19.5496L21.0366 16.7497C21.1414 16.6444 21.2002 16.5019 21.2002 16.3534C21.2002 16.2048 21.1414 16.0623 21.0366 15.957L18.2368 13.1572C18.1311 13.0552 17.9897 12.9987 17.8428 13C17.696 13.0013 17.5555 13.0602 17.4517 13.164C17.3478 13.2679 17.2889 13.4083 17.2877 13.5552C17.2864 13.702 17.3428 13.8435 17.4449 13.9491L19.289 15.7933H10.5602C10.4117 15.7933 10.2693 15.8523 10.1642 15.9574C10.0592 16.0624 10.0002 16.2048 10.0002 16.3534Z" fill="#EE8E18"/>
</svg>
