<svg width="21" height="20" viewBox="0 0 21 20" fill="none" xmlns="http://www.w3.org/2000/svg">
<path d="M10.3324 0C4.70037 0 0.333252 4.12713 0.333252 9.69914C0.333252 12.6139 1.52815 15.1337 3.47297 16.8735C3.63546 17.0185 3.73545 17.2235 3.74045 17.4435L3.79545 19.2233C3.81294 19.7907 4.39789 20.1607 4.91785 19.9307L6.90267 19.0558C7.07015 18.9808 7.26014 18.9683 7.43762 19.0158C8.35004 19.2658 9.31996 19.4008 10.3324 19.4008C15.9644 19.4008 20.3315 15.2736 20.3315 9.70164C20.3315 4.12963 15.9644 0 10.3324 0Z" fill="url(#paint0_linear_2002_21160)"/>
<path d="M4.32795 12.5358L7.26519 7.87617C7.73265 7.13374 8.73256 6.95126 9.435 7.47621L11.7723 9.22855C11.9873 9.38854 12.2822 9.38854 12.4947 9.22605L15.6494 6.83127C16.0694 6.5113 16.6194 7.01625 16.3394 7.46371L13.3996 12.1208C12.9322 12.8632 11.9323 13.0457 11.2298 12.5208L8.89254 10.7684C8.67756 10.6084 8.38259 10.6084 8.17011 10.7709L5.01539 13.1657C4.59543 13.4857 4.04547 12.9832 4.32795 12.5358Z" fill="#FFFDFA"/>
<defs>
<linearGradient id="paint0_linear_2002_21160" x1="0.333252" y1="1.34615" x2="20.9312" y2="1.84948" gradientUnits="userSpaceOnUse">
<stop offset="0.005" stop-color="#7E7B79"/>
<stop offset="0.28" stop-color="#524D45"/>
<stop offset="1" stop-color="#211E1E"/>
</linearGradient>
</defs>
</svg>
