<svg width="21" height="20" viewBox="0 0 21 20" fill="none" xmlns="http://www.w3.org/2000/svg">
<path d="M10.6667 20C16.1896 20 20.6667 15.5228 20.6667 10C20.6667 4.47717 16.1896 0 10.6667 0C5.14391 0 0.666748 4.47717 0.666748 10C0.666748 15.5228 5.14391 20 10.6667 20Z" fill="url(#paint0_linear_2002_21154)"/>
<path d="M4.39109 10.49C5.56008 9.84605 6.865 9.30863 8.08425 8.76847C10.1818 7.88372 12.2877 7.0143 14.4149 6.20488C14.8288 6.06697 15.5724 5.93209 15.6453 6.54543C15.6054 7.41359 15.4412 8.27668 15.3285 9.13976C15.0425 11.0378 14.712 12.9293 14.3897 14.821C14.2787 15.4511 13.4893 15.7773 12.9842 15.3741C11.7704 14.5542 10.5472 13.7423 9.34892 12.9033C8.95637 12.5045 9.32037 11.9317 9.67096 11.6468C10.6707 10.6616 11.731 9.82451 12.6785 8.78834C12.934 8.17113 12.1789 8.6913 11.9298 8.85068C10.5611 9.79384 9.22596 10.7946 7.78296 11.6235C7.04587 12.0293 6.18679 11.6825 5.45004 11.4561C4.78945 11.1826 3.82144 10.9071 4.39102 10.49L4.39109 10.49Z" fill="#FFFDFA"/>
<defs>
<linearGradient id="paint0_linear_2002_21154" x1="0.666748" y1="1.34615" x2="21.2666" y2="1.84957" gradientUnits="userSpaceOnUse">
<stop offset="0.005" stop-color="#7E7B79"/>
<stop offset="0.28" stop-color="#524D45"/>
<stop offset="1" stop-color="#211E1E"/>
</linearGradient>
</defs>
</svg>
