<svg width="20" height="20" viewBox="0 0 20 20" fill="none" xmlns="http://www.w3.org/2000/svg">
<path fill-rule="evenodd" clip-rule="evenodd" d="M10 0C15.5228 0 20 4.47715 20 10C20 15.5228 15.5228 20 10 20C4.47715 20 0 15.5228 0 10C0 4.47715 4.47715 0 10 0ZM12.6642 8.73267C12.6156 8.33754 12.4941 8.02728 12.2784 7.75247C11.9984 7.3986 11.6405 7.1867 11.1106 7.061C10.7653 6.97722 10.6258 6.98684 10.5009 7.10092C10.3846 7.2078 10.3619 7.42207 10.4508 7.56082C10.5133 7.66153 10.5854 7.69761 10.786 7.73698C11.0531 7.78613 11.2377 7.84992 11.4057 7.94593C11.7621 8.15174 11.9281 8.4738 11.9459 8.99519C11.9542 9.24 11.9753 9.31527 12.0608 9.40209C12.2193 9.56081 12.5013 9.52994 12.621 9.34001C12.6649 9.26842 12.6716 9.23726 12.6762 9.07103C12.6793 8.96811 12.6749 8.81493 12.6642 8.73267ZM12.669 6.3084C13.5164 6.99366 13.9899 7.96762 14.0603 9.17819C14.0899 9.655 14.0505 9.81028 13.8823 9.89875C13.7305 9.9807 13.5585 9.95372 13.4406 9.83033C13.3624 9.75008 13.3324 9.64031 13.3335 9.44594C13.337 8.90854 13.2132 8.30841 13.0118 7.89197C12.7789 7.4073 12.4187 6.99484 11.9657 6.69329C11.5688 6.42844 11.0436 6.24953 10.5344 6.20498C10.2041 6.17609 10.0861 6.12014 10.0227 5.9618C9.98347 5.86708 9.99385 5.70333 10.0399 5.62998C10.0834 5.56235 10.1811 5.48756 10.2502 5.46779C10.3234 5.44644 10.75 5.48377 10.9818 5.52982C11.6144 5.65858 12.1915 5.92335 12.669 6.3084ZM15.6051 13.8401C15.5814 13.7709 15.5262 13.6642 15.4867 13.6029C15.238 13.2274 13.9019 12.1818 13.2348 11.8398C12.8539 11.6441 12.5717 11.5789 12.3625 11.6402C12.1375 11.7034 12.019 11.8082 11.6421 12.2766C11.4901 12.4644 11.3342 12.6403 11.2928 12.668C11.1901 12.7392 10.9888 12.7965 10.8467 12.7965C10.5171 12.7945 9.91911 12.581 9.45926 12.3003C9.10203 12.0829 8.64418 11.6936 8.29285 11.3081C7.87838 10.8555 7.59618 10.4562 7.37314 10.0055C7.08501 9.42638 7.01198 9.07256 7.13236 8.81361C7.16197 8.74839 7.20145 8.67923 7.21919 8.65745C7.23696 8.63772 7.42249 8.4855 7.62772 8.31946C8.03036 7.99927 8.09548 7.92613 8.17048 7.70672C8.26521 7.42801 8.23957 7.14338 8.09352 6.85678C7.98101 6.63935 7.68695 6.16497 7.4738 5.8586C7.19157 5.45538 6.48896 4.59358 6.34882 4.47693C6.0962 4.27138 5.77255 4.23578 5.41529 4.37417C5.03837 4.52045 4.33179 5.0897 4.02982 5.48701C3.75746 5.84674 3.65289 6.10171 3.63708 6.43774C3.62328 6.71445 3.64695 6.8291 3.793 7.18292C4.93573 9.95807 6.64091 12.1739 8.98362 13.9331C10.2073 14.8522 11.4763 15.5519 12.7927 16.0302C13.5604 16.3089 13.894 16.3228 14.2867 16.0935C14.4525 15.9946 14.863 15.5736 15.0919 15.2673C15.4709 14.7573 15.611 14.5221 15.6505 14.3343C15.6781 14.2058 15.6564 13.9825 15.6051 13.8401ZM15.1005 7.58356C15.3409 8.20978 15.4562 8.77145 15.4814 9.45622C15.4855 9.5915 15.4836 9.83934 15.4748 10.0072C15.4566 10.3291 15.4391 10.393 15.3465 10.4782C15.1975 10.6179 14.9073 10.5846 14.7972 10.4162C14.7397 10.3259 14.7316 10.2597 14.7427 9.88365C14.7747 8.77137 14.5497 7.90048 14.0078 7.02965C13.3602 5.98487 12.3916 5.28106 11.132 4.93674C10.8108 4.84909 10.5401 4.79568 10.1191 4.739C9.84484 4.7031 9.78478 4.68793 9.7171 4.64627C9.51263 4.51531 9.50991 4.1837 9.71374 4.05074C9.81892 3.98056 9.89648 3.97742 10.2393 4.02133C11.2447 4.14696 12.1417 4.44569 12.8789 4.89711C13.4072 5.2211 13.7404 5.51216 14.1693 6.02192C14.6229 6.5656 14.8631 6.96756 15.1005 7.58356Z" fill="url(#paint0_linear_2002_21149)"/>
<defs>
<linearGradient id="paint0_linear_2002_21149" x1="5.55368e-09" y1="1.34615" x2="20.5998" y2="1.84957" gradientUnits="userSpaceOnUse">
<stop offset="0.005" stop-color="#7E7B79"/>
<stop offset="0.28" stop-color="#524D45"/>
<stop offset="1" stop-color="#211E1E"/>
</linearGradient>
</defs>
</svg>
