<svg width="18" height="18" viewBox="0 0 18 18" fill="none" xmlns="http://www.w3.org/2000/svg">
<path fill-rule="evenodd" clip-rule="evenodd" d="M2.16629 13.0275L0.977051 17.3697L5.42063 16.2045C6.64503 16.8722 8.02345 17.2241 9.4262 17.2246H9.42981C14.0495 17.2246 17.8102 13.4651 17.8122 8.84502C17.813 6.60581 16.9417 4.5005 15.3593 2.91658C13.7765 1.33266 11.672 0.460078 9.42981 0.458984C4.80929 0.458984 1.04926 4.21791 1.04738 8.83827C1.04691 10.3151 1.43281 11.7568 2.16629 13.0275ZM2.4627 8.83871C2.46411 4.99862 5.58943 1.87444 9.4325 1.87444C11.2935 1.87523 13.0426 2.60052 14.3581 3.91692C15.6735 5.23333 16.3974 6.98335 16.3968 8.84437C16.3952 12.6848 13.2699 15.8093 9.42979 15.8093H9.42714C8.17668 15.8087 6.95055 15.473 5.8811 14.8383L5.62648 14.6874L2.98955 15.3788L3.69356 12.8088L3.52777 12.5454C2.8304 11.4364 2.46213 10.1546 2.4627 8.83871Z" fill="url(#paint0_linear_2002_21166)"/>
<path fill-rule="evenodd" clip-rule="evenodd" d="M7.33488 5.33508C7.17788 4.9864 7.01272 4.97933 6.86358 4.97321C6.74144 4.96803 6.60171 4.96834 6.46214 4.96834C6.32242 4.96834 6.09556 5.02078 5.90371 5.23037C5.71171 5.43995 5.17055 5.94658 5.17055 6.97709C5.17055 8.00761 5.92114 9.00327 6.0257 9.14315C6.13041 9.28287 7.4746 11.4651 9.60361 12.3046C11.3728 13.0022 11.7328 12.8635 12.1169 12.8286C12.5009 12.7938 13.3561 12.322 13.5305 11.8329C13.7051 11.3439 13.7051 10.9249 13.6528 10.8373C13.6004 10.7498 13.4608 10.6976 13.2512 10.5928C13.0418 10.4881 12.0121 9.98135 11.8201 9.91148C11.6281 9.84162 11.4885 9.80677 11.3488 10.0164C11.2092 10.2259 10.8081 10.6976 10.6858 10.8373C10.5636 10.9772 10.4415 10.9946 10.2319 10.8899C10.0225 10.7848 9.34786 10.564 8.54766 9.85041C7.92502 9.29528 7.50474 8.60968 7.38245 8.40009C7.2603 8.19051 7.36941 8.07716 7.47444 7.97275C7.56848 7.87887 7.68388 7.72816 7.78875 7.60586C7.89315 7.48356 7.92816 7.39627 7.99786 7.2567C8.06773 7.11682 8.03287 6.99452 7.98044 6.8898C7.92816 6.78509 7.52107 5.74924 7.33488 5.33508Z" fill="url(#paint1_linear_2002_21166)"/>
<defs>
<linearGradient id="paint0_linear_2002_21166" x1="0.977051" y1="1.5972" x2="18.3172" y2="2.01907" gradientUnits="userSpaceOnUse">
<stop offset="0.005" stop-color="#7E7B79"/>
<stop offset="0.28" stop-color="#524D45"/>
<stop offset="1" stop-color="#211E1E"/>
</linearGradient>
<linearGradient id="paint1_linear_2002_21166" x1="0.977051" y1="1.5972" x2="18.3172" y2="2.01907" gradientUnits="userSpaceOnUse">
<stop offset="0.005" stop-color="#7E7B79"/>
<stop offset="0.28" stop-color="#524D45"/>
<stop offset="1" stop-color="#211E1E"/>
</linearGradient>
</defs>
</svg>
